<svg width="18" height="20" viewBox="0 0 18 25" fill="currentColor" xmlns="http://www.w3.org/2000/svg">
<path fill-rule="evenodd" clip-rule="evenodd" d="M7.98581 8.56306L6.6233 6.54382L5.96097 8.69394L8.51568 11.218V18.6966H6.6233V13.0876L5.0621 11.5452L2.83856 18.6966H0.946186L3.78474 5.60899L1.89237 6.54382V10.2832H0V5.60899L3.91721 3.29061C4.16562 3.15859 4.44449 3.09262 4.72647 3.09917C5.00846 3.10573 5.28388 3.18458 5.52573 3.328L6.77469 4.15065C7.28724 4.51062 7.73502 4.95302 8.09935 5.45942L9.46186 7.47866H12.3004V9.34832H9.47132C8.94146 9.34832 8.27913 9.00243 7.98581 8.56306ZM8.9076 3.19172C8.55271 3.54235 8.07138 3.73933 7.56949 3.73933C7.0676 3.73933 6.58627 3.54235 6.23138 3.19172C5.87649 2.84109 5.67712 2.36553 5.67712 1.86966C5.67712 1.3738 5.87649 0.898242 6.23138 0.547612C6.58627 0.196982 7.0676 0 7.56949 0C8.07138 0 8.55271 0.196982 8.9076 0.547612C9.26249 0.898242 9.46186 1.3738 9.46186 1.86966C9.46186 2.36553 9.26249 2.84109 8.9076 3.19172ZM10.792 17.5213C10.9424 17.5223 11.0862 17.5848 11.1918 17.695L14.637 21.279L11.1861 24.8282C11.1339 24.8824 11.0717 24.9254 11.0032 24.9549C10.9348 24.9843 10.8614 24.9996 10.7871 24.9999C10.7129 25.0002 10.6394 24.9854 10.5707 24.9564C10.5021 24.9275 10.4396 24.8849 10.387 24.8311C10.3343 24.7773 10.2925 24.7134 10.2638 24.643C10.2352 24.5726 10.2203 24.4971 10.22 24.4207C10.2198 24.3444 10.2341 24.2688 10.2623 24.1982C10.2905 24.1276 10.3319 24.0633 10.3841 24.0092L12.4851 21.8599H2.38119C2.2314 21.8599 2.08774 21.7987 1.98183 21.6898C1.87591 21.5808 1.81641 21.4331 1.81641 21.279C1.81641 21.125 1.87591 20.9772 1.98183 20.8683C2.08774 20.7593 2.2314 20.6981 2.38119 20.6981H12.4851L10.3841 18.514C10.2785 18.4039 10.2198 18.2551 10.2209 18.1004C10.2219 17.9457 10.2827 17.7978 10.3898 17.6892C10.4969 17.5806 10.6416 17.5202 10.792 17.5213Z"/>
</svg>
