<svg width="18" height="18" viewBox="0 0 18 18" fill="none" xmlns="http://www.w3.org/2000/svg">
<path fill-rule="evenodd" clip-rule="evenodd" d="M4.36612 13.8651C3.87796 14.3532 3.87796 15.1447 4.36612 15.6328C4.85427 16.121 5.64573 16.121 6.13388 15.6328L10.9987 10.768L15.8642 15.6335C16.3524 16.1217 17.1438 16.1217 17.632 15.6335C18.1201 15.1454 18.1201 14.3539 17.632 13.8658L12.7664 9.00019L17.632 4.13461C18.1201 3.64645 18.1201 2.855 17.632 2.36684C17.1438 1.87868 16.3524 1.87868 15.8642 2.36684L10.9994 7.23163L6.13388 2.36612C5.64573 1.87796 4.85427 1.87796 4.36612 2.36612C3.87796 2.85427 3.87796 3.64573 4.36612 4.13388L9.23171 8.99947L4.36612 13.8651Z" fill="#999999"/>
</svg>
