<svg width="14" height="14" viewBox="0 0 14 14" fill="none" xmlns="http://www.w3.org/2000/svg">
<path fill-rule="evenodd" clip-rule="evenodd" d="M0.366118 11.8651C-0.122038 12.3532 -0.122039 13.1447 0.366116 13.6328C0.854271 14.121 1.64573 14.121 2.13388 13.6328L6.99869 8.76803L11.8642 13.6335C12.3524 14.1217 13.1438 14.1217 13.632 13.6335C14.1201 13.1454 14.1201 12.3539 13.632 11.8658L8.76639 7.00019L13.632 2.13461C14.1201 1.64645 14.1201 0.854996 13.632 0.36684C13.1438 -0.121316 12.3524 -0.121316 11.8642 0.366838L6.99941 5.23163L2.13388 0.366116C1.64573 -0.122039 0.85427 -0.122038 0.366116 0.366118C-0.122039 0.854273 -0.122038 1.64573 0.366117 2.13388L5.23171 6.99947L0.366118 11.8651Z" fill="#999999"/>
</svg>
