<svg width="18" height="20" viewBox="0 0 18 25" fill="currentColor" xmlns="http://www.w3.org/2000/svg">
<path fill-rule="evenodd" clip-rule="evenodd" d="M10.0142 8.56306L11.3767 6.54382L12.039 8.69394L9.48432 11.218V18.6966H11.3767V13.0876L12.9379 11.5452L15.1614 18.6966H17.0538L14.2153 5.60899L16.1076 6.54382V10.2832H18V5.60899L14.0828 3.29061C13.8344 3.15859 13.5555 3.09262 13.2735 3.09917C12.9915 3.10573 12.7161 3.18458 12.4743 3.328L11.2253 4.15065C10.7128 4.51062 10.265 4.95302 9.90065 5.45942L8.53814 7.47866H5.69958V9.34832H8.52868C9.05854 9.34832 9.72087 9.00243 10.0142 8.56306ZM9.0924 3.19172C9.44729 3.54235 9.92862 3.73933 10.4305 3.73933C10.9324 3.73933 11.4137 3.54235 11.7686 3.19172C12.1235 2.84109 12.3229 2.36553 12.3229 1.86966C12.3229 1.3738 12.1235 0.898242 11.7686 0.547612C11.4137 0.196982 10.9324 0 10.4305 0C9.92862 0 9.44729 0.196982 9.0924 0.547612C8.73751 0.898242 8.53814 1.3738 8.53814 1.86966C8.53814 2.36553 8.73751 2.84109 9.0924 3.19172ZM7.20804 17.5213C7.05764 17.5223 6.91381 17.5848 6.80821 17.695L3.36304 21.279L6.81386 24.8282C6.86615 24.8824 6.9283 24.9254 6.99676 24.9549C7.06522 24.9843 7.13865 24.9996 7.21286 24.9999C7.28707 25.0002 7.3606 24.9854 7.42926 24.9564C7.49792 24.9275 7.56037 24.8849 7.61303 24.8311C7.66569 24.7773 7.70753 24.7134 7.73617 24.643C7.76481 24.5726 7.77969 24.4971 7.77995 24.4207C7.78021 24.3444 7.76586 24.2688 7.7377 24.1982C7.70954 24.1276 7.66814 24.0633 7.61585 24.0092L5.51486 21.8599H15.6188C15.7686 21.8599 15.9123 21.7987 16.0182 21.6898C16.1241 21.5808 16.1836 21.4331 16.1836 21.279C16.1836 21.125 16.1241 20.9772 16.0182 20.8683C15.9123 20.7593 15.7686 20.6981 15.6188 20.6981H5.51486L7.61585 18.514C7.72145 18.4039 7.78018 18.2551 7.77912 18.1004C7.77806 17.9457 7.7173 17.7978 7.6102 17.6892C7.5031 17.5806 7.35844 17.5202 7.20804 17.5213Z"/>
</svg>
