<svg width="68" height="24" viewBox="0 0 68 24" fill="none" xmlns="http://www.w3.org/2000/svg">
<path d="M25.685 9.33685H24.0355C24.0484 7.75303 23.3505 6.46536 21.8233 5.90008C19.445 4.9897 15.1906 5.67216 16.0057 9.05228C17.1337 12.2058 25.1687 10.1095 25.9889 14.9974C26.5748 18.7316 23.1136 20.5344 19.8313 20.2923C16.2078 20.17 13.5643 18.1561 13.8244 14.3162H15.479C15.4661 14.8777 15.4224 15.4404 15.5717 15.9902C15.9245 17.4646 17.3114 18.3788 18.7432 18.617C20.1185 18.8746 21.607 18.89 22.8754 18.223C23.9982 17.6243 24.5493 16.5568 24.3575 15.2949C24.0536 13.5192 21.9212 13.1496 20.4494 12.8187C18.8372 12.444 17.0925 12.2689 15.7108 11.2825C15.067 10.8061 14.5802 10.2034 14.3781 9.40639C14.145 8.42519 14.2081 7.34612 14.6807 6.44476C15.6593 4.58666 17.9178 3.96343 19.8854 4.00592C23.2011 4.05228 25.7211 5.82024 25.685 9.33685ZM0.164821 20.179C1.79157 20.179 3.41832 20.179 5.04507 20.179C5.98506 20.179 6.92634 20.1094 7.82771 19.8287C11.1525 18.9119 12.7131 15.6516 12.7002 12.3989C12.7324 10.1391 12.2367 7.68349 10.5691 6.04559C9.19778 4.68324 7.22122 4.20036 5.33608 4.20938H0.00128794V17.0203H1.63662V5.72882C2.9539 5.72882 4.26732 5.72882 5.5846 5.74298C7.77363 5.77002 9.78754 6.75637 10.5498 8.91965C11.2516 10.8846 11.258 13.6595 10.4301 15.5833C9.62143 17.5612 7.57018 18.6737 5.47901 18.6505C3.65224 18.6505 1.82591 18.6505 0 18.6505V20.1777L0.164821 20.179ZM27.2985 24.0046H28.9287V14.3935C28.9254 13.8864 28.9641 13.3799 29.0445 12.8792C29.2428 11.5091 30.0425 10.1313 31.4435 9.73603C32.3049 9.5094 33.2668 9.52872 34.0819 9.90858C36.4795 11.0675 36.7319 14.9755 35.582 17.095C34.8313 18.5115 33.2475 19.0265 31.7293 18.751C30.9194 18.6338 30.2962 18.2153 29.7772 17.5921V19.6214C30.9361 20.376 32.4092 20.4803 33.7471 20.2498C37.5843 19.5429 38.4471 15.2382 37.5843 11.9637C37.1684 10.3889 36.0726 8.97116 34.5184 8.39299C32.5753 7.66933 30.2897 8.06722 28.9235 9.68967V8.01571H27.2985V24.0046ZM49.5351 18.5964C49.2094 18.6312 48.8913 18.6853 48.5668 18.7123C48.3479 18.7458 48.2745 18.5359 48.2565 18.3531C48.1509 15.8537 48.3247 13.3402 48.1818 10.8434C47.9166 8.70075 45.7056 8.13932 43.8553 8.2153C41.1022 8.24878 39.5081 9.75019 39.5236 12.538H41.0301C41.0662 12.2805 41.0636 12.0229 41.1113 11.7654C41.3817 9.92403 43.3634 9.3523 44.9742 9.72058C45.7674 9.8751 46.5993 10.461 46.7152 11.307C46.7332 11.6377 46.7242 11.9693 46.6881 12.2985C46.6766 12.4417 46.6241 12.5786 46.5369 12.6928C46.4497 12.8069 46.3314 12.8936 46.1962 12.9423C45.4957 13.2166 44.7309 13.2256 43.9918 13.2951C42.8599 13.3775 41.6894 13.46 40.6619 13.9892C39.0755 14.7347 38.666 16.6534 39.154 18.2217C39.4592 19.2944 40.4262 20.0051 41.4911 20.2266C42.9526 20.5447 44.5815 20.4198 45.8408 19.5558V17.8895C45.7428 17.9496 45.6524 18.0214 45.5717 18.1033C45.1936 18.439 44.742 18.6811 44.2532 18.8102C42.9397 19.1669 40.9477 19.0304 40.5498 17.4594C40.3065 16.4654 40.7108 15.4558 41.7087 15.0927C43.3093 14.4824 45.0979 14.8043 46.71 14.2403V18.7471C46.71 20.1893 48.4831 20.2923 49.5429 19.9807L49.5351 18.5964ZM56.7628 8.06078C56.0494 8.05048 55.3232 8.06078 54.633 8.26681C53.8604 8.50631 53.1548 8.85012 52.5727 9.4257C52.5408 9.45065 52.5073 9.47345 52.4723 9.49395V8.01314H50.7803V20.1455H52.4787C52.52 17.6925 52.3835 15.2305 52.5483 12.7826C52.6577 11.777 53.1728 11.0044 53.9557 10.3966C54.7631 9.77466 55.77 9.624 56.7628 9.65362V8.06078ZM57.9384 20.1455H59.5944V4.27376H57.9384V20.1455ZM66.4963 8.01828C65.7803 7.99253 65.0798 8.01829 64.36 8.00798C64.3225 8.00643 64.285 8.01311 64.2503 8.02757C64.2156 8.04203 64.1845 8.06391 64.1591 8.09168C62.7054 9.55318 61.2284 10.9928 59.7811 12.4697L65.367 20.1185H67.3384L61.871 12.6255L66.4963 8.01828Z" fill="url(#paint0_linear)"/>
<defs>
<linearGradient id="paint0_linear" x1="0" y1="14.0046" x2="67.3397" y2="14.0046" gradientUnits="userSpaceOnUse">
<stop stop-color="#797979"/>
<stop offset="0.25" stop-color="#595959"/>
<stop offset="0.5" stop-color="#676767"/>
<stop offset="0.76" stop-color="#5D5D5D"/>
<stop offset="1" stop-color="#7B7B7B"/>
</linearGradient>
</defs>
</svg>
