<svg width="68" height="24" viewBox="0 0 68 24" fill="none" xmlns="http://www.w3.org/2000/svg">
<path d="M25.685 9.33295H24.0355C24.0484 7.74912 23.3505 6.46146 21.8233 5.89617C19.445 4.98579 15.1906 5.66825 16.0057 9.04837C17.1337 12.2019 25.1687 10.1055 25.9889 14.9935C26.5748 18.7277 23.1136 20.5305 19.8313 20.2884C16.2078 20.1661 13.5643 18.1522 13.8244 14.3123H15.479C15.4661 14.8738 15.4224 15.4365 15.5717 15.9863C15.9245 17.4607 17.3114 18.3749 18.7432 18.6131C20.1185 18.8707 21.607 18.8861 22.8754 18.2191C23.9982 17.6204 24.5493 16.5529 24.3575 15.291C24.0536 13.5153 21.9212 13.1457 20.4494 12.8148C18.8372 12.4401 17.0925 12.265 15.7108 11.2786C15.067 10.8022 14.5802 10.1995 14.3781 9.40248C14.145 8.42128 14.2081 7.34222 14.6807 6.44085C15.6593 4.58275 17.9178 3.95952 19.8854 4.00202C23.2011 4.04837 25.7211 5.81634 25.685 9.33295ZM0.164821 20.1751C1.79157 20.1751 3.41832 20.1751 5.04507 20.1751C5.98506 20.1751 6.92634 20.1055 7.82771 19.8248C11.1525 18.908 12.7131 15.6477 12.7002 12.395C12.7324 10.1352 12.2367 7.67959 10.5691 6.04168C9.19778 4.67933 7.22122 4.19646 5.33608 4.20547H0.00128794V17.0164H1.63662V5.72491C2.9539 5.72491 4.26732 5.72491 5.5846 5.73908C7.77363 5.76612 9.78754 6.75247 10.5498 8.91574C11.2516 10.8807 11.258 13.6556 10.4301 15.5794C9.62143 17.5573 7.57018 18.6698 5.47901 18.6466C3.65224 18.6466 1.82591 18.6466 0 18.6466V20.1738L0.164821 20.1751ZM27.2985 24.0007H28.9287V14.3896C28.9254 13.8825 28.9641 13.376 29.0445 12.8753C29.2428 11.5052 30.0425 10.1274 31.4435 9.73212C32.3049 9.50549 33.2668 9.52481 34.0819 9.90467C36.4795 11.0636 36.7319 14.9716 35.582 17.0911C34.8313 18.5076 33.2475 19.0226 31.7293 18.7471C30.9194 18.6299 30.2962 18.2114 29.7772 17.5882V19.6175C30.9361 20.3721 32.4092 20.4764 33.7471 20.2459C37.5843 19.539 38.4471 15.2343 37.5843 11.9598C37.1684 10.385 36.0726 8.96725 34.5184 8.38909C32.5753 7.66542 30.2897 8.06331 28.9235 9.68577V8.0118H27.2985V24.0007ZM49.5351 18.5925C49.2094 18.6273 48.8913 18.6814 48.5668 18.7084C48.3479 18.7419 48.2745 18.532 48.2565 18.3492C48.1509 15.8498 48.3247 13.3363 48.1818 10.8395C47.9166 8.69684 45.7056 8.13542 43.8553 8.21139C41.1022 8.24487 39.5081 9.74629 39.5236 12.5341H41.0301C41.0662 12.2765 41.0636 12.019 41.1113 11.7615C41.3817 9.92012 43.3634 9.3484 44.9742 9.71667C45.7674 9.87119 46.5993 10.4571 46.7152 11.3031C46.7332 11.6338 46.7242 11.9654 46.6881 12.2946C46.6766 12.4378 46.6241 12.5747 46.5369 12.6888C46.4497 12.803 46.3314 12.8897 46.1962 12.9384C45.4957 13.2127 44.7309 13.2217 43.9918 13.2912C42.8599 13.3736 41.6894 13.456 40.6619 13.9853C39.0755 14.7308 38.666 16.6495 39.154 18.2178C39.4592 19.2905 40.4262 20.0012 41.4911 20.2227C42.9526 20.5408 44.5815 20.4159 45.8408 19.5518V17.8856C45.7428 17.9457 45.6524 18.0175 45.5717 18.0994C45.1936 18.4351 44.742 18.6772 44.2532 18.8063C42.9397 19.163 40.9477 19.0265 40.5498 17.4555C40.3065 16.4615 40.7108 15.4519 41.7087 15.0888C43.3093 14.4785 45.0979 14.8004 46.71 14.2364V18.7432C46.71 20.1854 48.4831 20.2884 49.5429 19.9768L49.5351 18.5925ZM56.7628 8.05687C56.0494 8.04657 55.3232 8.05687 54.633 8.2629C53.8604 8.50241 53.1548 8.84621 52.5727 9.4218C52.5408 9.44674 52.5073 9.46954 52.4723 9.49004V8.00923H50.7803V20.1416H52.4787C52.52 17.6886 52.3835 15.2266 52.5483 12.7787C52.6577 11.7731 53.1728 11.0005 53.9557 10.3927C54.7631 9.77075 55.77 9.6201 56.7628 9.64971V8.05687ZM57.9384 20.1416H59.5944V4.26985H57.9384V20.1416ZM66.4963 8.01438C65.7803 7.98862 65.0798 8.01438 64.36 8.00408C64.3225 8.00252 64.285 8.00921 64.2503 8.02367C64.2156 8.03813 64.1845 8.06001 64.1591 8.08778C62.7054 9.54927 61.2284 10.9889 59.7811 12.4658L65.367 20.1146H67.3384L61.871 12.6216L66.4963 8.01438Z" fill="url(#paint0_linear)"/>
<defs>
<linearGradient id="paint0_linear" x1="0" y1="14.0007" x2="67.3397" y2="14.0007" gradientUnits="userSpaceOnUse">
<stop stop-color="#E01172"/>
<stop offset="0.25" stop-color="#792A88"/>
<stop offset="0.5" stop-color="#364298"/>
<stop offset="0.76" stop-color="#0B65AE"/>
<stop offset="1" stop-color="#1AA2DC"/>
</linearGradient>
</defs>
</svg>
