<svg width="68" height="24" viewBox="0 0 68 24" fill="none" xmlns="http://www.w3.org/2000/svg">
<path d="M25.685 9.29584H24.0355C24.0484 7.71201 23.3505 6.42435 21.8233 5.85906C19.445 4.94868 15.1906 5.63114 16.0057 9.01126C17.1337 12.1648 25.1687 10.0684 25.9889 14.9564C26.5748 18.6906 23.1136 20.4934 19.8313 20.2513C16.2078 20.129 13.5643 18.115 13.8244 14.2752H15.479C15.4661 14.8367 15.4224 15.3994 15.5717 15.9492C15.9245 17.4236 17.3114 18.3378 18.7432 18.576C20.1185 18.8336 21.607 18.849 22.8754 18.182C23.9982 17.5832 24.5493 16.5158 24.3575 15.2539C24.0536 13.4782 21.9212 13.1086 20.4494 12.7777C18.8372 12.403 17.0925 12.2278 15.7108 11.2415C15.067 10.7651 14.5802 10.1624 14.3781 9.36537C14.145 8.38417 14.2081 7.30511 14.6807 6.40374C15.6593 4.54564 17.9178 3.92241 19.8854 3.96491C23.2011 4.01126 25.7211 5.77923 25.685 9.29584ZM0.164821 20.138C1.79157 20.138 3.41832 20.138 5.04507 20.138C5.98506 20.138 6.92634 20.0684 7.82771 19.7877C11.1525 18.8709 12.7131 15.6105 12.7002 12.3579C12.7324 10.0981 12.2367 7.64248 10.5691 6.00457C9.19778 4.64222 7.22122 4.15935 5.33608 4.16836H0.00128794V16.9793H1.63662V5.6878C2.9539 5.6878 4.26732 5.6878 5.5846 5.70197C7.77363 5.72901 9.78754 6.71536 10.5498 8.87863C11.2516 10.8436 11.258 13.6185 10.4301 15.5423C9.62143 17.5201 7.57018 18.6327 5.47901 18.6095C3.65224 18.6095 1.82591 18.6095 0 18.6095V20.1367L0.164821 20.138ZM27.2985 23.9636H28.9287V14.3525C28.9254 13.8454 28.9641 13.3389 29.0445 12.8382C29.2428 11.4681 30.0425 10.0903 31.4435 9.69501C32.3049 9.46838 33.2668 9.4877 34.0819 9.86756C36.4795 11.0265 36.7319 14.9345 35.582 17.054C34.8313 18.4704 33.2475 18.9855 31.7293 18.7099C30.9194 18.5928 30.2962 18.1743 29.7772 17.5511V19.5804C30.9361 20.335 32.4092 20.4393 33.7471 20.2088C37.5843 19.5019 38.4471 15.1972 37.5843 11.9227C37.1684 10.3479 36.0726 8.93014 34.5184 8.35198C32.5753 7.62831 30.2897 8.0262 28.9235 9.64866V7.97469H27.2985V23.9636ZM49.5351 18.5554C49.2094 18.5902 48.8913 18.6443 48.5668 18.6713C48.3479 18.7048 48.2745 18.4949 48.2565 18.3121C48.1509 15.8127 48.3247 13.2992 48.1818 10.8024C47.9166 8.65973 45.7056 8.09831 43.8553 8.17428C41.1022 8.20776 39.5081 9.70918 39.5236 12.497H41.0301C41.0662 12.2394 41.0636 11.9819 41.1113 11.7244C41.3817 9.88301 43.3634 9.31129 44.9742 9.67956C45.7674 9.83408 46.5993 10.42 46.7152 11.266C46.7332 11.5966 46.7242 11.9283 46.6881 12.2575C46.6766 12.4007 46.6241 12.5376 46.5369 12.6517C46.4497 12.7659 46.3314 12.8525 46.1962 12.9013C45.4957 13.1756 44.7309 13.1846 43.9918 13.2541C42.8599 13.3365 41.6894 13.4189 40.6619 13.9482C39.0755 14.6937 38.666 16.6123 39.154 18.1807C39.4592 19.2533 40.4262 19.9641 41.4911 20.1856C42.9526 20.5037 44.5815 20.3788 45.8408 19.5147V17.8485C45.7428 17.9086 45.6524 17.9803 45.5717 18.0623C45.1936 18.3979 44.742 18.6401 44.2532 18.7692C42.9397 19.1259 40.9477 18.9894 40.5498 17.4184C40.3065 16.4243 40.7108 15.4148 41.7087 15.0517C43.3093 14.4413 45.0979 14.7633 46.71 14.1993V18.7061C46.71 20.1483 48.4831 20.2513 49.5429 19.9397L49.5351 18.5554ZM56.7628 8.01976C56.0494 8.00946 55.3232 8.01976 54.633 8.22579C53.8604 8.4653 53.1548 8.8091 52.5727 9.38469C52.5408 9.40963 52.5073 9.43243 52.4723 9.45293V7.97212H50.7803V20.1045H52.4787C52.52 17.6515 52.3835 15.1895 52.5483 12.7416C52.6577 11.736 53.1728 10.9634 53.9557 10.3556C54.7631 9.73364 55.77 9.58299 56.7628 9.6126V8.01976ZM57.9384 20.1045H59.5944V4.23274H57.9384V20.1045ZM66.4963 7.97727C65.7803 7.95152 65.0798 7.97727 64.36 7.96697C64.3225 7.96541 64.285 7.9721 64.2503 7.98656C64.2156 8.00102 64.1845 8.0229 64.1591 8.05067C62.7054 9.51216 61.2284 10.9518 59.7811 12.4287L65.367 20.0774H67.3384L61.871 12.5845L66.4963 7.97727Z" fill="url(#paint0_linear)"/>
<defs>
<linearGradient id="paint0_linear" x1="0" y1="13.9636" x2="67.3397" y2="13.9636" gradientUnits="userSpaceOnUse">
<stop stop-color="#878787"/>
<stop offset="0.25" stop-color="#A6A6A6"/>
<stop offset="0.5" stop-color="#999999"/>
<stop offset="0.76" stop-color="#A3A3A3"/>
<stop offset="1" stop-color="#858585"/>
</linearGradient>
</defs>
</svg>
