<svg width="81" height="16" viewBox="0 0 81 16" fill="none" xmlns="http://www.w3.org/2000/svg">
<path d="M60.4318 9.28544C60.4318 11.3824 59.1285 12.3807 57.2549 12.3807C55.382 12.3807 54.1605 11.3824 54.1605 9.28544V0.916356C54.1605 0.54988 54.099 0.366238 53.7123 0.24408C53.4065 0.142146 52.8976 0.0612465 52.2253 0.0612465C51.5539 0.0612465 51.0442 0.142146 50.7392 0.24408C50.3525 0.366238 50.291 0.54988 50.291 0.916356V9.4076C50.291 13.6022 52.9178 15.8828 57.2549 15.8828C61.6129 15.8828 64.26 13.6022 64.26 9.4076V0.916356C64.26 0.54988 64.1985 0.366238 63.8118 0.24408C63.5068 0.142146 63.0182 0.0612465 62.3459 0.0612465C61.6736 0.0612465 61.185 0.142146 60.88 0.24408C60.4933 0.366238 60.4318 0.54988 60.4318 0.916356V9.28544Z" fill="#3CA6AD"/>
<path d="M41.3111 15.8013C41.9834 15.8013 42.4922 15.7196 42.7972 15.6176C43.1847 15.4955 43.2454 15.3126 43.2454 14.9462V3.72617H47.2774C47.6641 3.72617 47.8065 3.58378 47.9085 3.27798C47.9902 3.03367 48.0719 2.58548 48.0719 2.01595C48.0719 1.4456 47.9902 0.997419 47.9085 0.753101C47.8065 0.448109 47.6641 0.304916 47.2774 0.304916H35.3447C34.958 0.304916 34.8156 0.448109 34.7137 0.753101C34.632 0.997419 34.5503 1.4456 34.5503 2.01595C34.5503 2.58548 34.632 3.03367 34.7137 3.27798C34.8156 3.58378 34.958 3.72617 35.3447 3.72617H39.3768V14.9462C39.3768 15.3126 39.4374 15.4955 39.825 15.6176C40.13 15.7196 40.6388 15.8013 41.3111 15.8013Z" fill="#3CA6AD"/>
<path d="M9.13808 12.3807C6.57275 12.3807 4.73956 10.5685 4.73956 7.94169C4.73956 5.31488 6.57275 3.50272 9.13808 3.50272C11.7042 3.50272 13.5366 5.31488 13.5366 7.94169C13.5366 10.5685 11.7042 12.3807 9.13808 12.3807ZM9.13808 -0.000238692C4.19025 -0.000238692 0.70752 3.36034 0.70752 7.94169C0.70752 12.523 4.19025 15.8828 9.13808 15.8828C14.0859 15.8828 17.5686 12.523 17.5686 7.94169C17.5686 3.36034 14.0859 -0.000238692 9.13808 -0.000238692Z" fill="#3CA6AD"/>
<path d="M27.0368 7.79964H24.084V3.60499H27.0368C28.421 3.60499 29.2971 4.31772 29.2971 5.70272C29.2971 7.04647 28.421 7.79964 27.0368 7.79964ZM27.0983 0.305899H20.7242C20.4192 0.305899 20.2153 0.489539 20.2153 0.815565V14.9471C20.2153 15.3136 20.276 15.4964 20.6635 15.6186C20.9685 15.7205 21.4782 15.8022 22.1496 15.8022C22.8219 15.8022 23.3308 15.7205 23.6358 15.6186C24.0233 15.4964 24.084 15.3136 24.084 14.9471V11.0373H27.1387C31.1093 11.0373 33.2273 8.87884 33.2273 5.70272C33.2273 2.44408 31.1093 0.305899 27.0983 0.305899" fill="#3CA6AD"/>
<path d="M66.7645 14.0707C68.7401 15.2922 71.3054 15.8828 73.586 15.8828C77.5776 15.8828 80.4074 13.908 80.4074 10.6292C80.4074 8.12452 78.5953 6.82123 75.2153 6.23147L74.5228 6.1085C71.9364 5.66113 71.2439 5.3351 71.2439 4.62237C71.2439 3.78749 72.201 3.31908 73.8505 3.31908C75.174 3.31908 76.4571 3.60465 77.8008 4.21545C78.1269 4.35783 78.3307 4.37806 78.5751 4.13374C78.982 3.72681 79.5725 2.68806 79.7764 1.95511C79.8783 1.58863 79.7562 1.36454 79.4706 1.22216C77.8421 0.407496 75.8261 -0.000238692 73.7898 -0.000238692C69.6761 -0.000238692 67.1512 1.83295 67.0906 4.86669C67.0291 7.57522 68.8825 8.93918 72.1808 9.44804L72.9752 9.5702C75.4798 9.95771 76.1926 10.2627 76.1926 11.0571C76.1926 11.9737 75.2153 12.5433 73.484 12.5433C71.896 12.5433 70.2877 12.0142 68.4343 11.0369C68.088 10.8533 67.9254 10.8735 67.6609 11.1388C67.2532 11.5458 66.6828 12.6048 66.479 13.3377C66.3778 13.7042 66.5 13.908 66.7645 14.0707Z" fill="#3CA6AD"/>
<path d="M60.4318 9.28544C60.4318 11.3824 59.1285 12.3807 57.2549 12.3807C55.382 12.3807 54.1605 11.3824 54.1605 9.28544V0.916356C54.1605 0.54988 54.099 0.366238 53.7123 0.24408C53.4065 0.142146 52.8976 0.0612465 52.2253 0.0612465C51.5539 0.0612465 51.0442 0.142146 50.7392 0.24408C50.3525 0.366238 50.291 0.54988 50.291 0.916356V9.4076C50.291 13.6022 52.9178 15.8828 57.2549 15.8828C61.6129 15.8828 64.26 13.6022 64.26 9.4076V0.916356C64.26 0.54988 64.1985 0.366238 63.8118 0.24408C63.5068 0.142146 63.0182 0.0612465 62.3459 0.0612465C61.6736 0.0612465 61.185 0.142146 60.88 0.24408C60.4933 0.366238 60.4318 0.54988 60.4318 0.916356V9.28544Z" fill="#3CA6AD"/>
<path d="M41.3111 15.8013C41.9834 15.8013 42.4922 15.7196 42.7972 15.6176C43.1847 15.4955 43.2454 15.3126 43.2454 14.9462V3.72617H47.2774C47.6641 3.72617 47.8065 3.58378 47.9085 3.27798C47.9902 3.03367 48.0719 2.58548 48.0719 2.01595C48.0719 1.4456 47.9902 0.997419 47.9085 0.753101C47.8065 0.448109 47.6641 0.304916 47.2774 0.304916H35.3447C34.958 0.304916 34.8156 0.448109 34.7137 0.753101C34.632 0.997419 34.5503 1.4456 34.5503 2.01595C34.5503 2.58548 34.632 3.03367 34.7137 3.27798C34.8156 3.58378 34.958 3.72617 35.3447 3.72617H39.3768V14.9462C39.3768 15.3126 39.4374 15.4955 39.825 15.6176C40.13 15.7196 40.6388 15.8013 41.3111 15.8013Z" fill="#3CA6AD"/>
<path d="M9.13808 12.3807C6.57275 12.3807 4.73956 10.5685 4.73956 7.94169C4.73956 5.31488 6.57275 3.50272 9.13808 3.50272C11.7042 3.50272 13.5366 5.31488 13.5366 7.94169C13.5366 10.5685 11.7042 12.3807 9.13808 12.3807ZM9.13808 -0.000238692C4.19025 -0.000238692 0.70752 3.36034 0.70752 7.94169C0.70752 12.523 4.19025 15.8828 9.13808 15.8828C14.0859 15.8828 17.5686 12.523 17.5686 7.94169C17.5686 3.36034 14.0859 -0.000238692 9.13808 -0.000238692Z" fill="#3CA6AD"/>
<path d="M27.0368 7.79964H24.084V3.60499H27.0368C28.421 3.60499 29.2971 4.31772 29.2971 5.70272C29.2971 7.04647 28.421 7.79964 27.0368 7.79964ZM27.0983 0.305899H20.7242C20.4192 0.305899 20.2153 0.489539 20.2153 0.815565V14.9471C20.2153 15.3136 20.276 15.4964 20.6635 15.6186C20.9685 15.7205 21.4782 15.8022 22.1496 15.8022C22.8219 15.8022 23.3308 15.7205 23.6358 15.6186C24.0233 15.4964 24.084 15.3136 24.084 14.9471V11.0373H27.1387C31.1093 11.0373 33.2273 8.87884 33.2273 5.70272C33.2273 2.44408 31.1093 0.305899 27.0983 0.305899" fill="#3CA6AD"/>
<path d="M66.7645 14.0707C68.7401 15.2922 71.3054 15.8828 73.586 15.8828C77.5776 15.8828 80.4074 13.908 80.4074 10.6292C80.4074 8.12452 78.5953 6.82123 75.2153 6.23147L74.5228 6.1085C71.9364 5.66113 71.2439 5.3351 71.2439 4.62237C71.2439 3.78749 72.201 3.31908 73.8505 3.31908C75.174 3.31908 76.4571 3.60465 77.8008 4.21545C78.1269 4.35783 78.3307 4.37806 78.5751 4.13374C78.982 3.72681 79.5725 2.68806 79.7764 1.95511C79.8783 1.58863 79.7562 1.36454 79.4706 1.22216C77.8421 0.407496 75.8261 -0.000238692 73.7898 -0.000238692C69.6761 -0.000238692 67.1512 1.83295 67.0906 4.86669C67.0291 7.57522 68.8825 8.93918 72.1808 9.44804L72.9752 9.5702C75.4798 9.95771 76.1926 10.2627 76.1926 11.0571C76.1926 11.9737 75.2153 12.5433 73.484 12.5433C71.896 12.5433 70.2877 12.0142 68.4343 11.0369C68.088 10.8533 67.9254 10.8735 67.6609 11.1388C67.2532 11.5458 66.6828 12.6048 66.479 13.3377C66.3778 13.7042 66.5 13.908 66.7645 14.0707Z" fill="#3CA6AD"/>
</svg>
