<svg width="71" height="48" viewBox="0 0 71 48" fill="none" xmlns="http://www.w3.org/2000/svg">
<path d="M45.2683 33.9024C44.5658 33.9024 43.7073 33.5122 43.7073 32.7317V15.561C43.7073 14.7805 44.4878 14 45.2683 14H68.6829C69.4634 14 70.2439 14.7805 70.2439 15.561V45.3756C70.2439 45.7659 69.9317 46 69.5414 46C69.0731 46 68.917 45.6098 68.839 45.3756C62.2048 33.9024 45.9707 33.9024 45.2683 33.9024Z" fill="#E91B2B"/>
<path d="M62.4391 19.4641L60.8001 26.0982C60.8001 26.0982 60.8001 26.1763 60.8781 26.1763H64.3123C64.3123 26.1763 64.3903 26.1763 64.3903 26.0982L62.7513 19.4641C62.6733 19.1519 62.5172 19.1519 62.4391 19.4641ZM64.2342 16.186C64.5464 16.186 64.7806 16.3421 64.7806 16.5763L68.4489 30.8592C68.5269 31.0153 68.5269 31.1714 68.5269 31.2494C68.5269 31.4836 68.2928 31.7177 67.9806 31.7177H66.1854C65.8733 31.7177 65.7172 31.4836 65.6391 31.2494L64.9367 28.5177C64.9367 28.5177 64.9367 28.5177 64.8586 28.5177H60.2537C60.2537 28.5177 60.2537 28.5177 60.1757 28.5177L59.4733 31.2494C59.3952 31.4836 59.2391 31.7177 58.9269 31.7177H57.1318C56.8196 31.7177 56.5854 31.4836 56.5854 31.2494C56.5854 31.2494 56.5854 31.0153 56.6635 30.8592L60.3318 16.5763C60.4098 16.3421 60.5659 16.186 60.8781 16.186H64.2342Z" fill="white"/>
<path d="M48.6243 19.8529C48.6243 20.9456 49.1706 21.3358 50.4194 22.0383L53.1511 23.5992C55.0243 24.6919 55.7267 25.8627 55.7267 27.8919C55.7267 30.6236 53.6194 32.0285 50.6536 32.0285C47.7658 32.0285 45.6584 30.6236 45.6584 27.8139V26.8773C45.6584 26.5651 45.9706 26.2529 46.3609 26.2529H47.9219C48.3121 26.2529 48.6243 26.5651 48.6243 26.8773V27.8139C48.6243 28.9066 49.4828 29.609 50.6536 29.609C51.9804 29.609 52.6828 29.0627 52.6828 27.8919C52.6828 26.487 51.5121 25.8626 50.6536 25.3944L47.6097 23.6773C46.2048 22.8968 45.6584 21.3358 45.6584 20.087C45.6584 17.3553 47.6877 15.7163 50.7316 15.7163C53.6194 15.7163 55.7267 17.1992 55.7267 20.009V20.4773C55.7267 20.7895 55.4145 21.1017 55.0243 21.1017H53.4633C53.0731 21.1017 52.7609 20.7895 52.7609 20.4773V20.009C52.7609 18.9163 52.0584 17.9797 50.7316 17.9797C49.4048 17.9017 48.6243 18.6041 48.6243 19.8529Z" fill="white"/>
<path d="M16.7804 26.2539C16.7804 26.1759 16.7804 26.1759 16.7804 26.2539L13.9706 27.3466C13.1901 27.6588 13.034 28.2051 13.034 28.6734C13.034 29.4539 13.2682 30.1564 14.8292 30.1564C15.9218 30.1564 16.7023 29.3759 16.7023 28.4393L16.7804 26.2539ZM10.1462 28.9856C10.1462 27.1905 11.0828 26.1759 12.5658 25.6295L15.5316 24.5369C16.4682 24.2247 16.7804 23.9125 16.7804 23.2881C16.7804 22.5076 16.156 21.9612 15.0633 21.9612C14.0487 21.9612 13.3462 22.5076 13.3462 23.3661C13.3462 23.6783 13.034 23.9905 12.6438 23.9905H11.317C10.9267 23.9905 10.6145 23.6783 10.6145 23.3661C10.6145 21.3369 12.4097 19.7759 15.0633 19.7759C17.9511 19.7759 19.356 21.493 19.356 23.6003V31.2491C19.356 31.5612 19.0438 31.8734 18.6535 31.8734H17.3267C16.9365 31.8734 16.6243 31.5612 16.6243 31.2491V31.171C16.6243 30.9369 16.5462 30.9369 16.3901 31.093C15.6877 31.7954 14.6731 32.1856 13.5804 32.1856C12.1755 32.1076 10.1462 31.3271 10.1462 28.9856Z" fill="#002F6C"/>
<path d="M32.0781 16.9657C32.0781 16.6535 32.3903 16.3413 32.7806 16.3413H34.1074C34.4976 16.3413 34.8098 16.6535 34.8098 16.9657V24.4584C34.8098 24.6925 34.8879 24.6925 35.044 24.5364L38.0879 20.9462C38.322 20.634 38.4781 20.4779 38.8684 20.4779H40.5074C40.8976 20.4779 41.1318 20.634 41.1318 20.8681C41.1318 20.9462 41.0537 21.1803 40.9757 21.2584L37.5415 25.3169C37.4635 25.395 37.4635 25.473 37.5415 25.473L41.444 30.9364C41.522 31.0925 41.522 31.1706 41.522 31.2486C41.522 31.5608 41.2098 31.795 40.8196 31.795H39.3367C38.9464 31.795 38.7123 31.4828 38.4781 31.1706L35.122 26.3316C34.9659 26.0974 34.8879 26.1755 34.8879 26.4096V31.1706C34.8879 31.4828 34.5757 31.795 34.1854 31.795H32.8586C32.4684 31.795 32.1562 31.4828 32.1562 31.1706L32.0781 16.9657Z" fill="#002F6C"/>
<path d="M30.2828 23.0539C30.2828 21.3369 28.956 19.7759 27.0828 19.7759C25.9121 19.7759 24.8974 20.2442 24.3511 21.0247C24.195 21.2588 24.117 21.1808 24.117 20.9466V20.7905C24.117 20.4783 23.8048 20.1661 23.4145 20.1661H22.0877C21.6974 20.1661 21.3853 20.4783 21.3853 20.7905V24.693V30.8588V31.3271C21.3853 31.6393 21.6974 31.9515 22.0877 31.9515H23.4145C23.8048 31.9515 24.117 31.6393 24.117 31.3271V30.7808V23.0539C24.3511 22.6637 24.8194 22.1954 25.4438 22.0393C25.5999 22.0393 25.756 21.9612 25.9121 21.9612C26.4584 21.9612 26.8487 22.1173 27.1609 22.4295C27.1609 22.4295 27.1609 22.4295 27.2389 22.5076C27.4731 22.7417 27.6292 23.0539 27.6292 23.3661C27.6292 23.5222 27.6292 23.6003 27.6292 23.7564V31.3271C27.6292 31.6393 27.9413 31.9515 28.3316 31.9515H29.6584C30.0487 31.9515 30.3609 31.6393 30.3609 31.3271L30.2828 23.0539Z" fill="#002F6C"/>
<path d="M8.97561 22.8194C8.97561 21.1803 7.49268 19.7755 5.77561 19.7755C4.60488 19.7755 3.59024 20.2437 3.0439 21.0242C2.8878 21.2584 2.80976 21.1803 2.80976 20.9462V16.9657C2.80976 16.6535 2.49756 16.3413 2.10732 16.3413H0.780488C0.312195 16.3413 0 16.6535 0 16.9657V31.2486C0 31.5608 0.312195 31.873 0.702439 31.873H2.02927C2.41951 31.873 2.73171 31.5608 2.73171 31.2486V31.0925C2.73171 30.8584 2.80976 30.7803 2.96585 31.0145C3.51219 31.795 4.52683 32.1072 5.69756 32.1072C7.49268 32.1072 8.89756 30.8584 8.89756 28.9852C8.89756 28.9852 8.97561 27.8145 8.97561 25.9413C8.97561 24.1462 8.97561 22.8194 8.97561 22.8194ZM6.2439 28.2828C6.2439 29.2974 5.61951 29.9998 4.52683 29.9998C3.82439 29.9998 3.0439 29.5316 2.80976 28.9072V23.1316C3.12195 22.5072 3.82439 22.1169 4.52683 22.1169C5.61951 22.1169 6.2439 22.8194 6.2439 23.834C6.2439 23.834 6.2439 24.4584 6.2439 25.8633C6.2439 27.4242 6.2439 28.2828 6.2439 28.2828Z" fill="#002F6C"/>
</svg>
