<svg width="126" height="36" viewBox="0 0 126 36" fill="none" xmlns="http://www.w3.org/2000/svg">
<path fill-rule="evenodd" clip-rule="evenodd" d="M25.97 13.7652C27.55 17.0827 26.775 21.4627 24.245 24.0902C23.0686 25.352 21.5715 26.2704 19.9137 26.7473C18.2558 27.2241 16.4995 27.2416 14.8325 26.7977C11.4225 26.0477 8.38503 22.6577 7.91503 19.2027C7.28003 15.4527 8.83253 12.0552 11.8275 9.85524C14.5775 7.77524 19.1175 7.63024 22.035 9.43524C23.759 10.4417 25.1326 11.9531 25.97 13.7652V13.7652ZM25.72 13.6077C27.335 16.7327 26.72 21.0927 24.395 23.6902C21.9825 26.4402 18.5225 27.5252 14.9375 26.6652C11.74 26.0252 8.81003 22.8802 8.18753 19.7152C7.29253 15.8527 8.84503 12.1652 12.01 9.92274C14.6675 7.97524 18.96 7.79774 21.8 9.48024C23.4993 10.4251 24.8709 11.8647 25.7325 13.6077" fill="#221F20"/>
<path fill-rule="evenodd" clip-rule="evenodd" d="M7.07491 21.2026C7.33451 21.6183 7.57071 22.0482 7.78241 22.4901C7.61741 22.5626 7.59491 22.3076 7.44991 22.2701L7.22991 22.3126L5.17491 23.4676C5.0666 23.5468 4.97832 23.6502 4.91711 23.7696C4.8559 23.889 4.82347 24.021 4.82241 24.1551C4.82422 24.3709 4.88749 24.5817 5.00483 24.7628C5.12217 24.9439 5.28871 25.0878 5.48491 25.1776C6.40241 25.2551 7.09741 24.5226 7.89241 24.1551C7.98327 24.0989 8.06033 24.023 8.11789 23.933C8.17544 23.843 8.21202 23.7412 8.22491 23.6351L8.17991 23.3251H8.26991L8.88741 24.4576L8.84241 24.5026C8.7548 24.3931 8.6374 24.3112 8.50433 24.2669C8.37127 24.2225 8.22822 24.2176 8.09241 24.2526L6.09241 25.3176C5.90394 25.3689 5.70498 25.367 5.51749 25.3123C5.32999 25.2576 5.16126 25.1522 5.02991 25.0076C4.83163 24.7957 4.6837 24.5418 4.59713 24.2648C4.51056 23.9877 4.48759 23.6948 4.52991 23.4076C4.5739 23.2777 4.64345 23.1579 4.73448 23.0553C4.8255 22.9527 4.93616 22.8693 5.05991 22.8101L7.00491 21.7201C7.20741 21.5751 6.98741 21.3651 7.02741 21.2201L7.07491 21.2026Z" fill="#221F20"/>
<path d="M27.2951 21.5352C27.2951 21.7352 27.1476 22.0352 27.4501 22.0902L30.0801 23.2902C30.2901 23.2902 30.2901 22.9352 30.4776 23.0227C30.2726 23.4677 30.0976 23.9452 29.8576 24.3552H29.7926C29.7926 24.2002 29.8926 24.0327 29.7926 23.8902L27.0426 22.6002C26.8326 22.5677 26.7926 22.8627 26.6226 22.8902C26.7851 22.4232 26.9849 21.9701 27.2201 21.5352H27.2951Z" fill="#221F20"/>
<path d="M25.0624 24.9776C25.0974 25.1451 24.8124 25.2601 24.9524 25.4651L27.1199 27.4851C27.3949 27.6151 27.5724 27.2751 27.7149 27.1101C28.0574 26.6426 27.9374 25.8601 27.6499 25.4226L27.7374 25.4001L28.5099 26.4651C27.8799 27.1476 27.2599 27.8126 26.5874 28.4401L26.5449 28.4176C26.5649 28.2626 26.7424 28.1401 26.6774 27.9751L24.4874 25.9101C24.2949 25.7701 24.1174 26.2151 24.0249 25.9751L24.9974 24.9751L25.0624 24.9776Z" fill="#221F20"/>
<path fill-rule="evenodd" clip-rule="evenodd" d="M10.8099 26.1098C10.8499 26.2395 10.9262 26.3549 11.0299 26.4424L11.2299 26.3973V26.5298C11.0024 26.8423 10.7999 27.1649 10.5449 27.4624H10.4774C10.6049 26.9874 10.9274 26.3149 10.4574 25.8649C10.3277 25.7222 10.1494 25.6331 9.95741 25.6149C9.84195 25.6288 9.73219 25.6728 9.63916 25.7426C9.54612 25.8124 9.47309 25.9054 9.42741 26.0124C9.31741 26.9474 10.6149 27.7324 9.73741 28.6349C9.62678 28.7423 9.49489 28.8254 9.35022 28.8787C9.20555 28.9321 9.05131 28.9546 8.89741 28.9448C8.32241 28.8998 7.86491 28.4048 7.59491 27.9223C7.50491 27.8123 7.39991 27.8549 7.28491 27.8799V27.7674L8.23491 26.6798H8.30241C8.07991 27.1798 7.69241 27.7624 8.03491 28.3224C8.11436 28.4357 8.21608 28.5316 8.33386 28.6042C8.45164 28.6768 8.583 28.7247 8.71991 28.7449C8.85334 28.7433 8.98377 28.7051 9.09705 28.6346C9.21032 28.5641 9.3021 28.4639 9.36241 28.3449C9.61241 27.3449 7.97991 26.4123 9.22991 25.5698C9.3692 25.5 9.52091 25.4583 9.67635 25.4473C9.83178 25.4363 9.98786 25.4561 10.1356 25.5055C10.2834 25.555 10.4199 25.6332 10.5373 25.7357C10.6548 25.8381 10.7508 25.9627 10.8199 26.1023" fill="#221F20"/>
<path d="M12.82 27.3301C13.6103 27.6495 14.4234 27.9094 15.2525 28.1076C15.2206 28.534 15.1537 28.9571 15.0525 29.3726C14.9425 29.2526 14.9975 29.0176 14.92 28.8726C14.8773 28.6685 14.7843 28.4784 14.6494 28.3194C14.5145 28.1605 14.3419 28.0378 14.1475 27.9626L13.0875 30.9151C13.12 31.1326 13.385 31.1226 13.4825 31.2701L13.44 31.3151C12.925 31.1326 12.395 30.9776 11.8925 30.7601V30.7151C12.0475 30.6826 12.23 30.7826 12.3925 30.7151C12.8275 29.7676 13.125 28.7601 13.495 27.7851L13.385 27.6751C12.79 27.6126 12.33 27.8901 11.9275 28.2951C11.8275 28.2776 11.9275 28.1901 11.9275 28.1401L12.545 27.1626L12.82 27.3301Z" fill="#221F20"/>
<path fill-rule="evenodd" clip-rule="evenodd" d="M3.1651 17.65C3.9776 18.1775 4.9751 18.245 5.8826 18.5375C6.1576 18.21 6.4226 18.715 6.7451 18.6725L6.7876 18.715C5.7126 19.32 4.6226 19.9875 3.5376 20.625C3.3501 20.7025 3.4776 20.975 3.3176 21.0025C3.2401 20.5475 3.1951 20.0475 3.1626 19.6025L3.2501 19.58C3.3176 19.6925 3.2776 19.915 3.4701 19.915C3.81492 19.7815 4.13641 19.5942 4.4226 19.36L4.3101 18.2725C4.0076 18.1775 3.6376 17.9775 3.3101 18.1825C3.1151 18.2725 3.2376 18.55 3.0426 18.5825C2.97204 18.1691 2.92862 17.7516 2.9126 17.3325C3.0701 17.3325 3.0476 17.5475 3.1626 17.6425L3.1651 17.65ZM5.7051 18.635C5.3538 18.8896 4.97572 19.1051 4.5776 19.2775L4.4901 18.3225L5.7051 18.635Z" fill="#221F20"/>
<path fill-rule="evenodd" clip-rule="evenodd" d="M19.075 28.5976C19.1598 28.6969 19.22 28.8147 19.2508 28.9415C19.2817 29.0683 19.2822 29.2006 19.2525 29.3276C19.1025 29.7576 18.65 29.9226 18.28 30.0401C18.4443 30.0854 18.5975 30.1637 18.7303 30.2704C18.8632 30.377 18.9728 30.5096 19.0525 30.6601C19.29 31.0101 19.4175 31.6601 19.98 31.6176V31.6826C19.65 31.7001 19.3275 31.7426 18.98 31.7276C18.6125 31.2101 18.44 30.5501 17.8775 30.1726C17.7684 30.1487 17.6564 30.1411 17.545 30.1501L17.5 30.2176L17.5675 31.5276C17.6675 31.6776 17.8375 31.6501 17.9875 31.6826L17.855 31.7951L16.5275 31.8376L16.485 31.7951C16.58 31.6376 16.8375 31.7501 16.905 31.5276L16.7925 28.5751C16.7225 28.3577 16.4675 28.4451 16.3525 28.3252L16.4175 28.2801C17.3025 28.3201 18.3775 27.9526 19.07 28.5926L19.075 28.5976ZM18.32 28.5026C18.625 28.8176 18.5925 29.3301 18.4325 29.7026C18.21 29.9951 17.8575 29.9526 17.525 29.9901C17.4612 29.4526 17.4462 28.9104 17.48 28.3701C17.775 28.3701 18.095 28.3251 18.32 28.5026" fill="#221F20"/>
<path fill-rule="evenodd" clip-rule="evenodd" d="M24.9524 29.6625V29.7075C24.5274 29.905 24.1074 30.1225 23.6724 30.285C23.6324 30.1275 24.0074 30.0775 23.8699 29.8625L23.0974 29.1725C22.7247 29.3113 22.3684 29.4908 22.0349 29.7075C22.0974 30.055 22.0349 30.51 22.4549 30.6625H22.7574V30.7275C22.3873 30.9231 22.0029 31.0902 21.6074 31.2275C21.9224 30.9775 21.9624 30.555 21.9624 30.1825L21.8299 28.14C21.4049 28.0075 21.8124 27.5625 21.6524 27.2525L21.6974 27.2075L24.6149 29.6725L24.9524 29.6625ZM22.9524 29.0625L22.0899 29.485C22.0186 29.0662 21.9818 28.6423 21.9799 28.2175C22.3183 28.4824 22.6429 28.7644 22.9524 29.0625" fill="#221F20"/>
<path fill-rule="evenodd" clip-rule="evenodd" d="M31.605 17.4048C31.605 17.8498 31.5325 18.3223 31.495 18.7823L31.4275 18.8048C31.345 18.6923 31.4275 18.5098 31.2725 18.4273C30.8934 18.4663 30.5257 18.5793 30.19 18.7598L30.08 19.8473C30.3625 20.0198 30.65 20.2423 31.0075 20.1598C31.2125 20.1148 31.2 19.8423 31.3825 19.8048C31.3789 20.231 31.3269 20.6553 31.2275 21.0698C31.1894 20.9171 31.1211 20.7737 31.0267 20.6479C30.9322 20.5221 30.8135 20.4164 30.6775 20.3373L28.62 19.2473C28.285 19.5548 28.1025 18.9473 27.78 18.9373V18.8698C28.9975 18.5048 30.2075 18.1198 31.405 17.6948C31.5375 17.6273 31.455 17.4273 31.605 17.4048V17.4048ZM29.9475 19.7598C29.5563 19.6069 29.179 19.4204 28.82 19.2023C29.2122 19.0333 29.6188 18.9003 30.035 18.8048L29.9475 19.7598Z" fill="#221F20"/>
<path d="M18.9425 3.30492C18.8925 3.44492 18.6925 3.40743 18.59 3.52743C18.295 3.79993 18.385 4.22742 18.3675 4.61742C18.3025 5.34742 18.705 6.55992 17.7275 6.86742C17.4527 6.95239 17.163 6.9785 16.8775 6.94404C16.5919 6.90958 16.3167 6.81533 16.07 6.66743C15.9491 6.56838 15.8525 6.443 15.7875 6.30088C15.7225 6.15875 15.6909 6.00365 15.695 5.84743L15.6275 3.58242C15.545 3.37742 15.2675 3.53242 15.2075 3.35992C15.706 3.31258 16.2071 3.29755 16.7075 3.31493C16.73 3.50993 16.475 3.39743 16.3775 3.49493L16.2875 3.62743L16.355 6.11243C16.3834 6.23739 16.4398 6.35428 16.5199 6.45431C16.6 6.55434 16.7018 6.6349 16.8175 6.68993C16.9858 6.76553 17.1694 6.80103 17.3538 6.79366C17.5381 6.78628 17.7183 6.73623 17.88 6.64743C18.0105 6.54103 18.1129 6.40426 18.1783 6.2491C18.2437 6.09395 18.27 5.92513 18.255 5.75743C18.155 5.05243 18.3875 4.20993 18.055 3.60493C17.94 3.43743 17.7125 3.43243 17.6125 3.31493L17.7675 3.27243C18.16 3.34243 18.5475 3.21993 18.94 3.29243" fill="#221F20"/>
<path d="M23.7825 4.77254H23.9375C23.8827 5.20054 23.7941 5.62353 23.6725 6.03754C23.615 5.84754 23.5875 5.60504 23.5375 5.39254C23.4887 5.21479 23.4022 5.04959 23.2841 4.90813C23.1659 4.76666 23.0187 4.65222 22.8525 4.57254C22.4125 5.53254 22.0475 6.52004 21.66 7.50254C21.705 7.70754 21.925 7.75254 22.0575 7.88004L21.86 7.90254C21.4125 7.68504 20.93 7.53504 20.49 7.30254C20.56 7.20254 20.755 7.30254 20.8875 7.30254C21.1075 7.33004 21.12 7.07504 21.195 6.94754C21.5 6.06004 21.91 5.21504 22.2125 4.32754C21.615 4.07754 21.0575 4.46504 20.6 4.81504C20.785 4.42702 21.0149 4.06202 21.285 3.72754L21.5725 3.92754L23.7825 4.77254Z" fill="#221F20"/>
<path d="M27.1401 7.19238L27.1201 7.27988C26.9476 7.27988 26.8526 7.02988 26.6551 7.14738L25.7576 8.07988C26.0576 8.48488 26.4426 8.74988 26.7751 9.12238H26.8426C27.0926 8.67238 28.1276 8.32988 27.5926 7.76988C27.6426 7.66488 27.7151 7.76989 27.7701 7.79239L28.6976 8.74488L28.6526 8.81239C28.4876 8.81239 28.3826 8.56238 28.1901 8.67988L26.0676 10.8549C26.0226 11.0274 26.2276 11.1049 26.2226 11.2549H26.1126C25.7687 10.9334 25.444 10.592 25.1401 10.2324C25.3151 10.1399 25.5326 10.5674 25.7151 10.2549L26.6876 9.27988C26.3926 8.90238 26.0076 8.56738 25.6701 8.21238H25.6026L24.5426 9.29988C24.4276 9.47738 24.8476 9.65488 24.6101 9.74488L23.6101 8.74488V8.67988C23.7801 8.65738 23.9476 8.97988 24.1401 8.76738L26.2176 6.65989C26.3276 6.44739 25.9076 6.28738 26.1526 6.19238L27.1401 7.19238Z" fill="#221F20"/>
<path fill-rule="evenodd" clip-rule="evenodd" d="M8.3799 7.88478V7.97478C7.9099 7.79728 7.2899 7.45229 6.8099 7.83979C6.71925 7.90947 6.64322 7.99635 6.58617 8.09544C6.52912 8.19453 6.49216 8.3039 6.4774 8.41729C6.49889 8.52061 6.54152 8.61836 6.60261 8.70441C6.66371 8.79046 6.74194 8.86294 6.8324 8.91729C7.7224 9.07479 8.4274 8.06229 9.3324 8.58479C9.58811 8.788 9.75412 9.08322 9.7949 9.40728C9.8399 9.93978 9.5074 10.3498 9.0874 10.6573C8.9016 10.728 8.73533 10.842 8.6024 10.9898L8.6474 11.1698L8.6024 11.2123C8.19495 10.8798 7.81072 10.5198 7.4524 10.1348L7.4949 10.0898C7.9424 10.3623 8.4274 10.6723 8.9949 10.5123C9.15315 10.442 9.28983 10.3309 9.39088 10.1903C9.49194 10.0497 9.55373 9.88468 9.5699 9.71228C9.55774 9.5874 9.51514 9.4674 9.44584 9.3628C9.37655 9.2582 9.28266 9.17218 9.1724 9.11229C8.2099 8.88479 6.9024 10.4948 6.3224 8.93478C6.2691 8.71457 6.27804 8.48387 6.34823 8.26844C6.41842 8.05301 6.5471 7.86133 6.7199 7.71479C6.9224 7.47979 7.4699 7.51979 7.3599 7.09229H7.4274L8.3799 7.88478Z" fill="#221F20"/>
<path fill-rule="evenodd" clip-rule="evenodd" d="M13.5949 5.41524C13.7259 5.68983 13.7901 5.99151 13.7823 6.29563C13.7744 6.59976 13.6948 6.89773 13.5499 7.16523C13.3911 7.44377 13.1675 7.68001 12.8982 7.85405C12.6289 8.02809 12.3217 8.13482 12.0024 8.16523C11.6874 8.18484 11.3724 8.12827 11.0839 8.00034C10.7953 7.8724 10.5419 7.67685 10.3449 7.43023C10.173 7.18875 10.0563 6.91239 10.0032 6.62075C9.95004 6.32911 9.96174 6.02934 10.0374 5.74273C10.1522 5.38866 10.3642 5.07403 10.6494 4.83484C10.9346 4.59566 11.2813 4.44158 11.6499 4.39024C12.0392 4.34452 12.4331 4.41743 12.7802 4.59944C13.1273 4.78145 13.4112 5.06406 13.5949 5.41024V5.41524ZM13.1074 6.14274C13.2674 6.56024 13.3024 7.20274 12.9974 7.56274C12.7771 7.79611 12.4775 7.93877 12.1574 7.96274C11.2249 7.91024 10.7949 6.86524 10.5674 6.12024C10.4799 5.70524 10.4999 5.22773 10.8174 4.92273C10.9614 4.7769 11.1434 4.67448 11.3428 4.62718C11.5422 4.57988 11.7508 4.5896 11.9449 4.65524C12.5474 4.90524 12.8999 5.57774 13.1149 6.15524" fill="#221F20"/>
<path d="M1.17749 11.4501C2.41542 8.15809 4.62812 5.32207 7.52018 3.32065C10.4122 1.31923 13.846 0.247666 17.3631 0.249025C20.8801 0.250383 24.3131 1.3246 27.2036 3.32825C30.0941 5.3319 32.3046 8.16964 33.54 11.4626L31.79 12.1151C30.6839 9.18301 28.7106 6.65755 26.1332 4.8751C23.5557 3.09266 20.4963 2.13785 17.3625 2.13785C14.2287 2.13785 11.1693 3.09266 8.59183 4.8751C6.01434 6.65755 4.04111 9.18301 2.93499 12.1151L1.17749 11.4501Z" fill="#221F20"/>
<path d="M2.17745 20.4375C2.81358 24.0008 4.68297 27.2268 7.45825 29.5505C10.2335 31.8742 13.7378 33.1475 17.3575 33.1475C20.9771 33.1475 24.4814 31.8742 27.2567 29.5505C30.0319 27.2268 31.9013 24.0008 32.5374 20.4375L34.3875 20.7875C33.6714 24.7835 31.5731 28.4005 28.4597 31.0056C25.3462 33.6108 21.4158 35.0383 17.3562 35.0383C13.2966 35.0383 9.3662 33.6108 6.25273 31.0056C3.13927 28.4005 1.04097 24.7835 0.324951 20.7875L2.17745 20.4375Z" fill="#221F20"/>
<path d="M25.6826 16.4727C25.4679 16.2584 25.213 16.0885 24.9326 15.9727L24.9126 15.9052L25.0676 15.7627L25.3976 15.4627V15.3502C25.2026 15.1552 24.9126 15.1902 24.6901 15.0627C24.8001 14.8277 25.1551 14.7502 25.1901 14.4852C25.0501 14.3252 24.8451 14.3352 24.6576 14.3077C24.5326 14.3077 24.3876 14.3952 24.2826 14.3077C24.4201 14.0577 24.7251 13.9252 24.7826 13.6402C24.3526 13.4677 23.9151 13.7577 23.5326 13.8177C23.6458 13.6395 23.7969 13.4884 23.9751 13.3752C24.1476 13.2127 24.4901 13.0527 24.3951 12.7977C23.9949 12.8169 23.6065 12.9392 23.2676 13.1527C23.0176 13.2427 22.8051 13.5077 22.5601 13.5527C22.7376 13.3252 23.0251 13.1852 23.2251 12.9302C23.4126 12.7252 23.3801 12.4302 23.6226 12.2427C23.6376 12.1152 23.7826 11.9927 23.6651 11.8652C23.0563 12.0594 22.5237 12.4398 22.1426 12.9527L22.0976 12.9077C22.2701 12.6577 22.3476 12.3702 22.5826 12.1577C22.7151 11.8702 22.9801 11.5202 22.7826 11.2052C22.1901 11.3827 21.8926 12.0352 21.5326 12.4677C21.4651 12.3977 21.4776 12.2977 21.4651 12.2027C21.7801 11.7927 21.7701 11.2377 21.8201 10.7027L21.6651 10.5702C21.3176 10.8202 21.2226 11.2302 21.0676 11.5902L21.0251 11.5477V10.6577C21.0026 10.4077 20.9176 10.1252 20.6701 10.0577C20.4201 10.3077 20.5151 10.7027 20.4051 11.0127C20.3051 11.0127 20.2876 10.8977 20.2276 10.8352L20.0976 10.8577C20.0566 12.1246 20.0925 13.3927 20.2051 14.6552C20.0499 15.0054 19.9447 15.3757 19.8926 15.7552V15.7552C19.7801 16.3777 19.6726 17.0052 19.1426 17.4527C18.9501 17.6027 18.7126 17.4527 18.4801 17.4977C18.3868 17.3254 18.3266 17.1372 18.3026 16.9427C18.0526 16.2577 17.4201 15.9802 16.8026 15.7527C16.6551 15.6952 16.5076 15.6427 16.3701 15.5877C16.2326 15.5327 15.9726 15.5152 15.8701 15.6327L16.1201 15.7552C16.2864 15.8535 16.4303 15.9855 16.5426 16.1427L16.4976 16.1877C16.2875 16.1028 16.0614 16.0645 15.8351 16.0752C15.9676 16.4477 16.4101 16.4927 16.6326 16.7877C16.6651 17.0527 16.6976 17.3752 16.4326 17.5377C16.2501 17.6602 16.1676 17.4177 16.0126 17.4052C15.8576 17.3927 15.6651 17.5452 15.5476 17.3602C15.4926 16.9002 14.8526 16.6852 14.9951 16.1402C14.9334 16.0152 14.8759 15.8877 14.8226 15.7577C14.6431 15.3217 14.5448 14.8566 14.5326 14.3852C14.6701 13.2377 15.2176 12.0602 14.8201 10.8852C14.6551 10.8852 14.6326 11.0952 14.4876 11.1527L14.4451 11.1077C14.456 10.7655 14.4334 10.423 14.3776 10.0852L14.2876 9.90771C14.1885 9.97272 14.1039 10.0576 14.0394 10.157C13.9748 10.2565 13.9316 10.3682 13.9126 10.4852C14.0251 11.0177 13.8976 11.5627 13.8901 12.1052C13.7753 11.8425 13.6914 11.5673 13.6401 11.2852C13.5026 10.9902 13.4476 10.5477 13.0876 10.4627C12.8376 10.8127 13.0726 11.2452 13.0651 11.6402C13.1101 11.8627 13.3526 12.0577 13.1976 12.3077L12.6976 11.5952C12.5276 11.4077 12.3226 11.1252 12.0801 11.1302C12.0301 11.5952 12.3101 11.9227 12.4551 12.3077C12.5101 12.4952 12.7051 12.6502 12.7051 12.8402C12.1851 12.4727 11.7326 12.0402 11.1376 11.9277C11.0801 12.4277 11.6226 12.7277 11.8651 13.1277L11.8201 13.1727C11.5218 13.0392 11.2343 12.8829 10.9601 12.7052C10.7776 12.6677 10.6001 12.4852 10.4076 12.6177C10.4224 12.7856 10.471 12.9488 10.5504 13.0975C10.6299 13.2461 10.7386 13.3772 10.8701 13.4827C10.5726 13.5227 10.2426 13.3127 9.94258 13.4827C10.0026 13.7502 10.3251 13.9102 10.4076 14.1727C10.1251 14.3227 9.75008 14.2277 9.45758 14.3502C9.52758 14.5602 9.74008 14.7102 9.85508 14.9027L9.78758 14.9702C9.56778 15.0008 9.36131 15.0936 9.19258 15.2377C9.21258 15.4477 9.42508 15.5802 9.57508 15.7602L9.67758 15.9027C9.44241 16.0447 9.23901 16.2336 9.08008 16.4577C9.23508 16.6752 9.49008 16.7577 9.61258 16.9702C9.45258 17.1852 9.13758 17.3177 9.11258 17.6127C9.26758 17.7902 9.52258 17.8002 9.71008 17.9452C9.61508 18.1177 9.43258 18.2727 9.48758 18.4802C9.75861 18.5754 10.0411 18.6343 10.3276 18.6552C10.2545 18.8344 10.2025 19.0215 10.1726 19.2127C10.3401 19.4277 10.7001 19.3352 10.9226 19.3902C10.9051 19.5677 10.7851 19.7627 10.7676 19.9677C10.9826 20.1052 11.2551 19.9827 11.4976 19.9877C11.6401 19.9552 11.6576 20.1177 11.6751 20.2102C11.7176 20.5227 12.0276 20.2677 12.2276 20.3427L12.4476 20.7227C12.5619 20.7345 12.6771 20.7109 12.7776 20.6552C12.9001 20.5802 12.9776 20.6552 13.0276 20.7402L13.1001 20.8552C13.2276 21.0552 13.4101 20.8552 13.5651 20.8552C13.6801 20.9102 13.7251 21.0327 13.8151 21.1202C13.9801 21.2152 14.0651 21.0102 14.1901 20.9227C14.4126 20.8052 14.4951 21.1427 14.6901 21.1877C14.7839 21.1019 14.8999 21.044 15.0249 21.0206C15.15 20.9972 15.279 21.0092 15.3976 21.0552C15.4948 20.9696 15.5666 20.8589 15.6051 20.7352V20.7352C15.6569 20.5123 15.6829 20.2841 15.6826 20.0552L15.8151 19.9002C15.8801 20.1677 16.0026 20.4502 16.0426 20.7302C16.0684 20.8549 16.0673 20.9836 16.0392 21.1078C16.0112 21.232 15.9569 21.3487 15.8801 21.4502C15.3501 21.8327 14.9751 22.6877 14.1576 22.4277C13.8251 22.7202 13.2176 22.3752 12.9626 22.8027C12.9389 22.8746 12.9345 22.9515 12.9499 23.0257C12.9652 23.0998 12.9998 23.1686 13.0501 23.2252C13.2738 23.318 13.5203 23.3415 13.7576 23.2927C13.8717 23.3797 14.015 23.4191 14.1576 23.4027C14.2951 23.1877 14.4426 23.4027 14.5976 23.4252C14.7526 23.4477 14.8926 23.2302 15.0401 23.3352C14.872 23.5612 14.745 23.8151 14.6651 24.0852C14.6476 24.2877 14.9751 24.2302 14.8851 24.4652C14.9351 24.6352 15.1176 24.5752 15.2176 24.6627C15.2176 24.9527 15.5476 24.8752 15.7176 24.9527C15.7726 25.4527 16.3201 24.8852 16.4251 25.3527C16.5339 25.3326 16.6387 25.2946 16.7351 25.2402C16.8676 25.2577 16.9676 25.4077 17.0451 25.5077C17.2651 25.6852 17.3476 25.3902 17.5076 25.2852L17.9051 25.4402L18.1701 25.1302C18.4801 25.3577 18.5901 24.9027 18.8776 24.9977C19.0776 25.0177 19.0551 24.7927 19.1426 24.6852C19.4851 24.7352 19.4351 24.2577 19.7626 24.2627C19.7851 23.8752 19.4351 23.6477 19.3426 23.3102C19.4751 23.2327 19.5926 23.3477 19.6726 23.4202C19.8776 23.4877 19.9826 23.3152 20.1376 23.2652C20.4176 23.7027 20.7001 23.0977 21.0651 23.2202C21.1548 23.1944 21.2326 23.138 21.2851 23.0609C21.3376 22.9837 21.3615 22.8906 21.3526 22.7977C21.3151 22.7102 21.2601 22.5927 21.1551 22.5752C20.6076 22.6427 20.2376 22.2777 19.6726 22.3777L18.7576 21.4902C18.6386 21.4062 18.5466 21.2894 18.4928 21.154C18.4391 21.0186 18.426 20.8705 18.4551 20.7277C18.4829 20.5349 18.5247 20.3445 18.5801 20.1577C18.5926 20.0927 18.6626 19.9802 18.7576 20.0252C18.8637 20.2463 18.9354 20.4824 18.9701 20.7252V20.7252C19.0091 20.8613 19.0895 20.9819 19.2001 21.0702C19.2447 21.1071 19.3019 21.1253 19.3596 21.1211C19.4173 21.1169 19.4712 21.0906 19.5101 21.0477C19.6526 20.9152 19.8076 21.0852 19.8851 21.2027C20.0001 21.2177 20.0726 21.1252 20.1501 21.0477C20.3151 20.9077 20.4601 21.1077 20.6151 21.1352L20.8351 20.8702C20.9676 20.7927 21.0551 20.9427 21.1676 20.9802C21.3201 21.0277 21.3626 20.8627 21.4326 20.7302L21.5201 20.6277C21.6801 20.6277 21.7951 20.7277 21.9626 20.7177L22.1401 20.4052C22.3151 20.2002 22.5376 20.4227 22.7576 20.3827L23.0451 19.9627L23.5101 19.9402C23.6081 19.7932 23.6474 19.6148 23.6201 19.4402C23.8526 19.2877 24.1776 19.3677 24.4376 19.2827C24.4242 19.0719 24.3635 18.8669 24.2601 18.6827C24.4826 18.5727 24.7751 18.6277 25.0101 18.5502C25.0876 18.2727 24.8001 18.0502 24.7451 17.8402L25.4301 17.5077C25.4301 17.2577 25.1026 17.1727 25.0101 16.9752C25.2126 16.8252 25.4401 16.7252 25.6501 16.5977L25.6826 16.4727ZM14.4776 13.1202C14.4901 13.4527 14.5676 13.7852 14.4126 14.0752C14.4601 13.7577 13.9551 13.3152 14.4776 13.1202ZM14.0576 13.6527C14.1976 13.8302 14.1751 14.1127 14.2351 14.3427C14.1126 14.1577 13.9101 13.8852 14.0576 13.6527V13.6527ZM13.7576 15.7577L13.7301 15.7402C13.6751 15.6626 13.651 15.5672 13.6626 15.4727C13.7726 15.4252 13.8726 15.6627 13.9951 15.5177C13.9651 15.3027 13.6901 15.2302 13.6176 15.0302C13.7776 14.9202 13.9326 15.2627 14.0401 15.0302C13.9726 14.8402 13.6026 14.7802 13.7076 14.5302L13.9276 14.6402C13.9276 14.4577 13.7626 14.3252 13.8176 14.1402C13.9578 14.2697 14.0775 14.4197 14.1726 14.5852C14.0758 14.9663 14.0445 15.3611 14.0801 15.7527L14.1051 15.8952C13.9776 15.8874 13.8559 15.8392 13.7576 15.7577V15.7577ZM15.1876 18.1152C15.1666 18.1176 15.1454 18.1152 15.1255 18.1083C15.1056 18.1014 15.0876 18.09 15.0727 18.0751C15.0578 18.0602 15.0464 18.0421 15.0395 18.0223C15.0325 18.0024 15.0302 17.9812 15.0326 17.9602C14.9951 17.8902 15.1151 17.8277 15.0101 17.7827C14.8951 17.8602 14.7901 18.0327 14.6351 17.9377C14.5801 17.7827 14.7226 17.6552 14.7676 17.5177C14.5901 17.4952 14.4651 17.7877 14.2376 17.6502C14.1876 17.4627 14.3476 17.3602 14.4376 17.2277C14.2601 17.1277 14.1276 17.3277 13.9501 17.2277C13.9501 17.0677 14.2326 17.0102 14.3701 16.8952C14.2476 16.8127 14.0551 16.7002 14.0401 16.5177C14.2426 16.4052 14.3826 16.7277 14.5701 16.5852C14.5701 16.4177 14.3751 16.2727 14.4801 16.1177L14.6801 16.2952C14.8176 16.2552 14.6976 16.1177 14.7026 16.0302C14.9001 16.3077 14.7351 16.7802 15.1001 17.0052C15.2875 17.1645 15.4124 17.3851 15.4526 17.6277C15.459 17.726 15.4373 17.8241 15.3899 17.9104C15.3425 17.9968 15.2714 18.0678 15.1851 18.1152H15.1876ZM13.8176 23.0677C13.6251 23.0677 13.3176 23.1627 13.2001 22.9777C13.2701 22.6502 13.7001 22.8627 13.9726 22.8002L14.0176 22.8452C14.0201 22.9502 13.9051 23.0402 13.8151 23.0677H13.8176ZM14.5926 23.0452C14.4326 23.0302 14.3251 23.0852 14.1926 23.0027L14.3251 22.8002C14.4489 22.768 14.5788 22.768 14.7026 22.8002C14.7164 22.823 14.7245 22.8487 14.7261 22.8753C14.7276 22.9019 14.7226 22.9285 14.7115 22.9527C14.7004 22.9769 14.6835 22.998 14.6624 23.0141C14.6412 23.0302 14.6164 23.0409 14.5901 23.0452H14.5926ZM20.6451 22.7577C20.8176 22.7852 21.0601 22.6852 21.1451 22.8452C21.0776 23.2127 20.6151 22.9777 20.3501 23.0452C20.3726 22.8852 20.5376 22.8302 20.6426 22.7577H20.6451ZM19.8726 22.7577C19.9901 22.7727 20.1376 22.7177 20.2251 22.8002C20.2251 22.9052 20.1151 22.9952 20.0276 23.0227C19.9758 23.0467 19.9177 23.0533 19.8618 23.0416C19.8059 23.0299 19.7554 23.0005 19.7176 22.9577C19.6876 22.8352 19.7876 22.7902 19.8701 22.7577H19.8726ZM17.0651 16.2277L17.1976 16.2727L17.1326 16.3627H17.0651V16.2277ZM16.6251 16.4777C16.4787 16.4564 16.3411 16.395 16.2276 16.3002C16.3751 16.2277 16.5951 16.4502 16.7276 16.2777C16.7551 16.0502 16.5276 15.9302 16.3976 15.7777C16.4481 15.7735 16.4989 15.7804 16.5465 15.7979C16.5941 15.8154 16.6373 15.8431 16.673 15.8791C16.7087 15.9151 16.7362 15.9584 16.7534 16.0061C16.7706 16.0538 16.7771 16.1047 16.7726 16.1552C16.7276 16.2502 16.8051 16.4577 16.6226 16.4727L16.6251 16.4777ZM15.5426 22.0952C15.8851 22.1802 16.4351 21.2902 16.4701 22.1177C16.2201 22.6177 15.6126 22.5502 15.1226 22.5177C15.1476 22.3527 15.3901 22.2077 15.5401 22.0902L15.5426 22.0952ZM15.1226 23.0502C15.1051 22.9402 15.2226 22.8627 15.2976 22.8002C15.3983 22.7674 15.5069 22.7674 15.6076 22.8002C15.4776 22.8852 15.3526 23.2002 15.1201 23.0452L15.1226 23.0502ZM15.2976 23.5502C15.3301 23.2402 15.7251 23.0902 15.9401 22.8627L16.3826 22.5527C16.1001 22.9302 15.6851 23.1752 15.3651 23.5527L15.2976 23.5502ZM15.5201 23.9052H15.4751C15.6126 23.4502 16.1151 23.1302 16.4476 22.7752C16.3176 23.2077 15.7226 23.4727 15.5076 23.9102L15.5201 23.9052ZM15.8951 24.1552L15.8076 24.1127C16.0461 23.6288 16.3507 23.1803 16.7126 22.7802C16.5551 23.2852 16.1201 23.6777 15.8926 24.1552H15.8951ZM16.3826 24.4227L16.2051 24.3327C16.3251 23.7727 16.6476 23.2952 16.8676 22.7802C16.8201 23.3452 16.5401 23.8852 16.3801 24.4227H16.3826ZM16.7801 24.4452H16.7126C16.6851 23.8952 16.9051 23.4277 17.0676 22.9777C17.0701 23.4552 17.3001 24.1352 16.7776 24.4452H16.7801ZM16.5076 21.5352H16.6601C16.5925 21.3028 16.4968 21.0795 16.3751 20.8702L16.3451 20.7277C16.3451 20.5552 16.4526 20.3552 16.2401 20.3602L16.1976 20.4027C15.7651 19.6152 16.5176 18.9377 16.4626 18.1152C16.5226 17.9727 16.3176 17.7177 16.5951 17.7377C16.7835 17.7418 16.9695 17.6944 17.1329 17.6005C17.2964 17.5067 17.4311 17.37 17.5226 17.2052C17.6401 17.0277 17.5501 16.7277 17.7726 16.6277C17.9114 16.7075 18.0247 16.825 18.0995 16.9666C18.1743 17.1082 18.2074 17.2681 18.1951 17.4277C17.9897 18.2311 18.0784 19.0815 18.4451 19.8252L18.3551 20.3802C18.1201 20.3452 18.2101 20.5702 18.2051 20.7277L18.1801 20.8252C18.1 21.0792 17.9802 21.3188 17.8251 21.5352L17.9351 21.6027C17.8296 22.0485 17.5907 22.4514 17.2501 22.7577C16.8026 22.4902 16.6376 21.9902 16.5076 21.5352ZM17.2801 22.9777H17.3476C17.5372 23.4544 17.6266 23.965 17.6101 24.4777C16.9651 24.1902 17.3676 23.4552 17.2851 22.9777H17.2801ZM18.0751 24.4002C17.9251 23.8727 17.5901 23.4227 17.5001 22.8677H17.5451C17.7326 23.3402 18.1026 23.7402 18.2076 24.2452L18.0751 24.4002ZM18.6276 24.2452C18.3626 23.7327 17.7876 23.2902 17.7001 22.7127L18.6726 24.0877L18.6276 24.2452ZM18.9601 24.0877C18.5776 23.5552 18.1201 23.1127 17.7876 22.5577H17.8551C18.2729 22.9838 18.6636 23.4355 19.0251 23.9102L18.9601 24.0877ZM19.1801 23.6677C18.7865 23.3312 18.4241 22.9597 18.0976 22.5577C18.4909 22.8699 18.8533 23.219 19.1801 23.6002V23.6677ZM19.2701 23.0452C19.0576 23.1277 18.9151 22.9127 18.7701 22.7952C18.9301 22.7452 19.2551 22.6902 19.3901 22.8402L19.2701 23.0452ZM18.7576 21.8852C18.9759 22.0569 19.1761 22.2504 19.3551 22.4627C18.8951 22.4252 18.2601 22.6902 17.9851 22.1527L18.1626 21.6202C18.3301 21.8127 18.5676 21.8027 18.7576 21.8852ZM21.1226 14.6477C21.0776 14.8652 20.8076 15.0127 20.6376 15.1477C20.5651 14.8977 20.8576 14.6977 21.0351 14.5052L21.1226 14.6477ZM20.9901 14.1152C20.9219 14.3397 20.8011 14.5445 20.6376 14.7127H20.6126C20.6698 14.4746 20.8098 14.2646 21.0076 14.1202L20.9901 14.1152ZM20.4001 13.3852C20.5276 13.3852 20.5176 13.5352 20.5776 13.6077C20.5276 13.7927 20.3951 13.9977 20.4901 14.1852C20.6101 14.1077 20.6001 13.8977 20.7551 13.8527C20.7314 14.1087 20.6399 14.3538 20.4901 14.5627C20.3435 14.1879 20.3121 13.7779 20.4001 13.3852ZM20.7101 17.2952C20.5451 17.3277 20.3726 17.2277 20.2451 17.2952C20.3451 17.4677 20.6051 17.4952 20.5776 17.7377C20.3501 17.8277 20.2076 17.5877 20.0026 17.5602C19.9476 17.7227 20.2126 17.8102 20.1801 17.9827C19.9751 18.0502 19.8251 17.8452 19.6801 17.7602C19.6426 17.8652 19.7151 17.9777 19.7701 18.0727C19.6937 18.0993 19.61 18.0958 19.5361 18.0628C19.4622 18.0298 19.4037 17.9699 19.3726 17.8952C19.1501 17.5777 19.5651 17.3602 19.6601 17.0952C19.9526 16.8052 19.9476 16.3902 20.1226 16.0502C20.1626 16.1502 20.0401 16.2402 20.1451 16.3177C20.2676 16.3177 20.2676 16.1502 20.4101 16.1852C20.5226 16.4177 20.0451 16.5052 20.2551 16.6852C20.3776 16.6402 20.5226 16.5027 20.6526 16.6177C20.6526 16.8027 20.4026 16.8027 20.3676 16.9527C20.4624 16.9535 20.5556 16.9765 20.6399 17.0199C20.7241 17.0634 20.797 17.126 20.8526 17.2027L20.7101 17.2952ZM20.7101 15.7527H20.6876C20.6451 15.6327 20.8451 15.5627 20.9376 15.5202L21.0276 15.5652C21.0301 15.7602 20.8201 15.6852 20.7101 15.7527ZM21.1526 15.2302C21.0526 15.3852 20.8476 15.3802 20.6876 15.4302C20.7891 15.2542 20.9564 15.1256 21.1526 15.0727C21.2576 15.1127 21.1526 15.1802 21.1526 15.2302Z" fill="#221F20"/>
<path d="M1.87 17.5049H0V17.9799H1.87V17.5049Z" fill="#221F20"/>
<path d="M0.0395494 16.6875L0.020752 17.1597L1.87928 17.2337L1.89807 16.7615L0.0395494 16.6875Z" fill="#221F20"/>
<path d="M0.0773926 16.3826L0.112393 15.9126L1.96239 16.0626L1.92489 16.5301L0.0773926 16.3826Z" fill="#221F20"/>
<path d="M0.216538 15.1368L0.160889 15.6035L2.00036 15.8229L2.05601 15.3562L0.216538 15.1368Z" fill="#221F20"/>
<path d="M0.280029 14.8175L0.352529 14.3525L2.18253 14.65L2.10753 15.1125L0.280029 14.8175Z" fill="#221F20"/>
<path d="M0.39502 14.0348L0.48752 13.5723L2.30502 13.9423L2.21252 14.4048L0.39502 14.0348Z" fill="#221F20"/>
<path d="M0.574951 13.2676L0.687451 12.8076L2.49495 13.2526L2.38245 13.7101L0.574951 13.2676Z" fill="#221F20"/>
<path d="M0.917412 12.0449L2.71491 12.5624L2.58491 13.0174L0.784912 12.4999L0.917412 12.0449Z" fill="#221F20"/>
<path d="M34.66 17.5049H32.79V17.9799H34.66V17.5049Z" fill="#221F20"/>
<path d="M34.6119 16.698L32.7534 16.772L32.7722 17.2441L34.6307 17.1701L34.6119 16.698Z" fill="#221F20"/>
<path d="M34.544 15.9131L32.6948 16.0605L32.7322 16.5291L34.5813 16.3816L34.544 15.9131Z" fill="#221F20"/>
<path d="M34.4975 15.5998L34.4425 15.1348L32.6025 15.3548L32.6575 15.8223L34.4975 15.5998Z" fill="#221F20"/>
<path d="M34.38 14.8175L34.3075 14.3525L32.4775 14.65L32.5525 15.1125L34.38 14.8175Z" fill="#221F20"/>
<path d="M34.265 14.0348L34.17 13.5723L32.3525 13.9423L32.445 14.4048L34.265 14.0348Z" fill="#221F20"/>
<path d="M34.085 13.2676L33.9725 12.8076L32.165 13.2526L32.2775 13.7101L34.085 13.2676Z" fill="#221F20"/>
<path d="M33.7426 12.0449L31.9451 12.5624L32.0751 13.0174L33.8726 12.4999L33.7426 12.0449Z" fill="#221F20"/>
<path d="M70.9925 15.8023H72.6425V13.4748C72.6425 12.5648 72.6425 10.8898 73.985 10.8898C74.2419 10.8779 74.4983 10.924 74.735 11.0248V9.36478C74.5715 9.32452 74.4031 9.30768 74.235 9.31478C73.25 9.31478 72.5725 10.3148 72.485 10.9023H72.4599V9.46228H70.995L70.9925 15.8023ZM69.5075 14.1048C68.8737 14.4982 68.148 14.7189 67.4024 14.7448C66.3799 14.7448 65.6674 14.1648 65.5924 13.1423H69.9749C69.9749 10.9273 69.3099 9.31478 66.9599 9.31478C64.9899 9.31478 64.0175 10.8298 64.0175 12.6623C64.0175 14.7448 65.2349 15.9498 67.3274 15.9498C68.0853 15.9758 68.8367 15.8035 69.5075 15.4498V14.1048ZM65.5924 12.0098C65.6674 11.1623 66.135 10.5223 67.0575 10.5223C67.98 10.5223 68.35 11.2098 68.4 12.0098H65.5924ZM59.5374 15.8023H61.3949L63.735 9.46228H62.0849L60.5575 14.0798H60.5349L58.9574 9.46228H57.1825L59.5374 15.8023ZM51.9925 12.4798C51.9925 11.5298 52.5075 10.5948 53.58 10.5948C54.6525 10.5948 55.18 11.5073 55.18 12.4798C55.18 13.5373 54.8475 14.6698 53.58 14.6698C52.3125 14.6698 51.9899 13.5248 51.9899 12.4798H51.9925ZM50.2675 12.6748C50.2675 14.4973 51.4875 15.9498 53.58 15.9498C55.6725 15.9498 56.9049 14.4973 56.9049 12.6748C56.9049 10.5823 55.4625 9.31478 53.58 9.31478C51.6975 9.31478 50.2575 10.5823 50.2575 12.6748H50.2675ZM49.0625 7.42478C48.2441 7.18074 47.3938 7.06107 46.54 7.06978C43.6225 7.06978 41.825 8.71978 41.825 11.6623C41.825 14.5673 43.7575 15.9573 46.54 15.9573C47.4828 15.9319 48.4182 15.7831 49.3224 15.5148V10.8848H45.8475V12.2398H47.6699V14.4898C47.2991 14.5783 46.9187 14.6203 46.5374 14.6148C44.7024 14.6148 43.6199 13.2973 43.6199 11.5473C43.6199 9.79728 44.7275 8.43228 46.735 8.43228C47.4967 8.43226 48.2505 8.58794 48.95 8.88978L49.0625 7.42478Z" fill="black"/>
<path d="M122.665 15.8024H124.315V10.6699H125.757V9.46236H124.317V8.67487C124.317 8.17487 124.49 7.70237 125.045 7.70237C125.299 7.70351 125.547 7.78008 125.757 7.92236L125.892 6.55737C125.497 6.47002 125.093 6.42477 124.687 6.42236C123.382 6.42236 122.667 7.30736 122.667 8.57486V9.46236H121.45V10.6699H122.667L122.665 15.8024ZM116.165 12.4799C116.165 11.5299 116.682 10.5949 117.752 10.5949C118.822 10.5949 119.352 11.5074 119.352 12.4799C119.352 13.5374 119.02 14.6699 117.752 14.6699C116.485 14.6699 116.167 13.5249 116.167 12.4799H116.165ZM114.44 12.6749C114.44 14.4974 115.66 15.9499 117.752 15.9499C119.845 15.9499 121.077 14.4974 121.077 12.6749C121.077 10.5824 119.637 9.31487 117.752 9.31487C115.867 9.31487 114.442 10.5824 114.442 12.6749H114.44ZM107.797 13.8849C107.797 15.1349 108.51 15.9399 109.797 15.9399C110.209 15.9494 110.62 15.8997 111.017 15.7924L110.967 14.4874C110.737 14.6111 110.478 14.6707 110.217 14.6599C109.59 14.6599 109.442 14.1599 109.442 13.6149V10.6699H110.907V9.46236H109.442V7.66486L107.792 8.19487V9.46236H106.572V10.6699H107.792L107.797 13.8849ZM100.047 15.7924H101.697V12.6999C101.697 11.8874 101.947 10.5949 103.15 10.5949C104.207 10.5949 104.22 11.6424 104.22 12.4174V15.8024H105.87V11.8024C105.87 10.3724 105.217 9.31487 103.715 9.31487C103.312 9.29025 102.909 9.36921 102.545 9.54425C102.181 9.71929 101.868 9.98457 101.635 10.3149H101.61V9.45237H100.047V15.7924ZM98.595 14.0949C97.9612 14.4883 97.2355 14.7089 96.49 14.7349C95.4675 14.7349 94.755 14.1549 94.68 13.1324H99.065C99.065 10.9174 98.4 9.30486 96.0475 9.30486C94.0775 9.30486 93.105 10.8199 93.105 12.6524C93.105 14.7349 94.3225 15.9399 96.4175 15.9399C97.1745 15.9656 97.925 15.7933 98.595 15.4399V14.0949ZM94.68 11.9999C94.755 11.1524 95.2225 10.5124 96.145 10.5124C97.0675 10.5124 97.4375 11.1999 97.4875 11.9999H94.68ZM82.8525 15.7924H84.5075V12.7249C84.5075 11.8999 84.6425 10.5949 85.7375 10.5949C86.685 10.5949 86.685 11.4324 86.685 12.0224V15.8024H88.335V12.7249C88.335 11.8999 88.47 10.5949 89.5675 10.5949C90.515 10.5949 90.515 11.4324 90.515 12.0224V15.8024H92.165V11.8024C92.165 10.3849 91.7225 9.31487 90.165 9.31487C89.7633 9.30042 89.3656 9.39741 89.0157 9.59509C88.6658 9.79276 88.3774 10.0834 88.1825 10.4349C87.825 9.64736 87.1975 9.31487 86.3125 9.31487C85.9365 9.31449 85.5665 9.40918 85.237 9.59014C84.9074 9.77109 84.6289 10.0324 84.4275 10.3499H84.4025V9.46236H82.865L82.8525 15.7924ZM75.6625 15.7924H77.3125V12.6999C77.3125 11.8874 77.5625 10.5949 78.765 10.5949C79.825 10.5949 79.8375 11.6424 79.8375 12.4174V15.8024H81.4875V11.8024C81.4875 10.3724 80.835 9.31487 79.3325 9.31487C78.9292 9.28976 78.5262 9.36852 78.162 9.54359C77.7979 9.71867 77.4847 9.98422 77.2525 10.3149H77.2275V9.45237H75.6575L75.6625 15.7924Z" fill="black"/>
<path d="M121.705 26.2823C121.705 25.3073 122.802 25.1848 123.54 25.1848H124.257C124.289 25.6458 124.167 26.1044 123.912 26.4898C123.779 26.67 123.604 26.8156 123.403 26.9144C123.201 27.0131 122.979 27.0621 122.755 27.0573C122.16 27.0573 121.705 26.8223 121.705 26.2823ZM120.867 23.5323C121.43 23.1005 122.116 22.8596 122.825 22.8448C123.797 22.8448 124.255 23.1873 124.255 24.2098H123.342C122.652 24.2098 121.842 24.2723 121.212 24.5798C120.87 24.7367 120.584 24.9937 120.39 25.3168C120.197 25.6399 120.106 26.014 120.13 26.3898C120.13 27.5973 121.225 28.2723 122.345 28.2723C122.738 28.2769 123.126 28.1782 123.47 27.9861C123.813 27.7939 124.1 27.515 124.302 27.1773H124.327C124.333 27.4944 124.358 27.8108 124.402 28.1248H125.855C125.817 27.6248 125.792 27.1898 125.78 26.7098C125.767 26.2298 125.755 25.7623 125.755 25.1223V24.3098C125.755 22.4373 124.955 21.6373 123.022 21.6373C122.264 21.6483 121.515 21.8115 120.82 22.1173L120.867 23.5323ZM117.457 20.6173H119.107V19.0423H117.457V20.6173ZM117.457 28.1173H119.107V21.7748H117.457V28.1173ZM114.345 28.1173H116.007V18.8848H114.357L114.345 28.1173ZM108.942 26.2848C108.942 25.3098 110.037 25.1873 110.775 25.1873H111.49C111.521 25.6483 111.4 26.1069 111.145 26.4923C111.012 26.6727 110.837 26.8184 110.635 26.9172C110.434 27.0159 110.212 27.0648 109.987 27.0598C109.397 27.0573 108.942 26.8223 108.942 26.2823V26.2848ZM108.105 23.5348C108.667 23.1022 109.353 22.8613 110.062 22.8473C111.035 22.8473 111.49 23.1898 111.49 24.2123H110.58C109.89 24.2123 109.08 24.2748 108.45 24.5823C108.107 24.7388 107.82 24.9956 107.626 25.3188C107.433 25.6419 107.341 26.0162 107.365 26.3923C107.365 27.5998 108.462 28.2748 109.582 28.2748C109.976 28.2779 110.363 28.1786 110.706 27.9866C111.049 27.7946 111.337 27.5165 111.54 27.1798H111.565C111.568 27.4969 111.592 27.8134 111.637 28.1273H113.09C113.052 27.6273 113.03 27.1923 113.017 26.7123C113.005 26.2323 112.992 25.7648 112.992 25.1248V24.3123C112.992 22.4398 112.192 21.6398 110.26 21.6398C109.5 21.6508 108.75 21.814 108.055 22.1198L108.105 23.5348ZM103.327 28.1273H104.977V25.8023C104.977 24.8898 104.977 23.2148 106.32 23.2148C106.577 23.2022 106.834 23.2493 107.07 23.3523V21.6898C106.906 21.6495 106.738 21.6327 106.57 21.6398C105.585 21.6398 104.907 22.6398 104.832 23.2273H104.807V21.7873H103.342L103.327 28.1273ZM99.3524 26.2198C99.3524 27.4698 100.067 28.2748 101.352 28.2748C101.763 28.2843 102.173 28.2347 102.57 28.1273L102.522 26.8223C102.292 26.9456 102.033 27.0051 101.772 26.9948C101.145 26.9948 100.997 26.4948 100.997 25.9498V22.9823H102.462V21.7748H101.007V19.9773L99.3574 20.5073V21.7748H98.1324V22.9823H99.3524V26.2198ZM97.5324 21.8748C96.945 21.724 96.3414 21.6451 95.7349 21.6398C94.4424 21.6398 93.2349 22.2423 93.2349 23.6098C93.2349 25.8998 96.1024 25.0498 96.1024 26.2948C96.1024 26.9098 95.4374 27.0698 95.0199 27.0698C94.4528 27.0597 93.896 26.9158 93.3949 26.6498L93.2949 28.0048C93.905 28.1744 94.5343 28.2651 95.1674 28.2748C96.5099 28.2748 97.8274 27.6848 97.8274 26.2073C97.8274 23.9173 94.9574 24.5573 94.9574 23.5473C94.9574 23.0073 95.4874 22.8473 95.9299 22.8473C96.435 22.8441 96.9362 22.9356 97.4074 23.1173L97.5324 21.8748ZM92.2574 21.7748H90.6074V24.8848C90.6074 25.6973 90.3574 26.9898 89.1549 26.9898C88.0949 26.9898 88.0824 25.9448 88.0824 25.1673V21.7748H86.4324V25.7748C86.4324 27.2023 87.0849 28.2598 88.5874 28.2598C88.9872 28.2613 89.3821 28.1721 89.7424 27.9988C90.1027 27.8256 90.419 27.5729 90.6674 27.2598H90.6924V28.1198H92.2574V21.7748ZM77.1149 28.1148H78.8999L79.6499 26.1448H83.1324L83.8824 28.1148H85.7899L82.4174 19.5223H80.4724L77.1149 28.1148ZM82.6549 24.7923H80.1549L81.4049 21.2448H81.4299L82.6549 24.7923ZM67.5274 28.1148H69.1774V25.0123C69.1774 24.1998 69.4274 22.9073 70.6299 22.9073C71.6874 22.9073 71.6999 23.9548 71.6999 24.7298V28.1148H73.3499V24.1148C73.3499 22.6848 72.6974 21.6273 71.1949 21.6273C70.8049 21.6156 70.418 21.7008 70.069 21.8754C69.72 22.0499 69.4196 22.3082 69.1949 22.6273H69.1699V18.8848H67.5199L67.5274 28.1148ZM63.5874 26.2073C63.5874 27.4573 64.3024 28.2623 65.5874 28.2623C65.9991 28.2718 66.4099 28.2221 66.8074 28.1148L66.7574 26.8098C66.5275 26.9335 66.2684 26.9931 66.0074 26.9823C65.3774 26.9823 65.2299 26.4823 65.2299 25.9373V22.9823H66.6949V21.7748H65.2574V19.9773L63.6074 20.5073V21.7748H62.3899V22.9823H63.6074L63.5874 26.2073ZM61.6574 21.7748H60.0074V24.8848C60.0074 25.6973 59.7574 26.9898 58.5549 26.9898C57.4949 26.9898 57.4824 25.9448 57.4824 25.1673V21.7748H55.8324V25.7748C55.8324 27.2023 56.4875 28.2598 57.9875 28.2598C58.3876 28.2613 58.7828 28.1721 59.1435 27.9989C59.5042 27.8257 59.821 27.573 60.0699 27.2598H60.0924V28.1198H61.6574V21.7748ZM49.9374 24.7923C49.9374 23.8423 50.4549 22.9073 51.5274 22.9073C52.5999 22.9073 53.1275 23.8198 53.1275 24.7923C53.1275 25.8498 52.7949 26.9823 51.5274 26.9823C50.2599 26.9823 49.9449 25.8373 49.9449 24.7923H49.9374ZM48.2149 24.9873C48.2149 26.8098 49.4324 28.2623 51.5274 28.2623C53.6224 28.2623 54.8499 26.8098 54.8499 24.9873C54.8499 22.8948 53.4099 21.6273 51.5274 21.6273C49.6449 21.6273 48.2224 22.8848 48.2224 24.9873H48.2149ZM47.0074 19.6823C46.3427 19.4694 45.6479 19.3656 44.95 19.3748C43.4375 19.3748 41.95 20.0748 41.95 21.9973C41.95 24.8398 45.7174 24.1623 45.7174 25.7998C45.7174 26.5773 44.8424 26.9098 44.1899 26.9098C43.5126 26.8953 42.849 26.7151 42.2575 26.3848L42.0975 27.9348C42.8119 28.1541 43.555 28.2662 44.3024 28.2673C46.0374 28.2673 47.5274 27.5548 47.5274 25.6698C47.5274 22.7898 43.7599 23.4198 43.7599 21.9198C43.7599 20.9848 44.5099 20.7248 45.1149 20.7248C45.7172 20.7291 46.3124 20.855 46.8649 21.0948L47.0074 19.6823Z" fill="black"/>
</svg>
