<svg width="126" height="35" viewBox="0 0 126 35" fill="none" xmlns="http://www.w3.org/2000/svg">
<path d="M71.0201 15.6102H72.6701V13.2827C72.6701 12.3727 72.6701 10.6977 74.0126 10.6977C74.3076 10.6977 74.6026 10.7477 74.7501 10.8327V9.17018C74.5776 9.12018 74.4051 9.12018 74.2451 9.12018C73.2601 9.12018 72.5826 10.1177 72.5101 10.7077H72.4851V9.26768H71.0201V15.6102ZM69.5326 13.9102C68.9176 14.2552 68.2276 14.5502 67.4276 14.5502C66.4051 14.5502 65.6926 13.9727 65.6176 12.9502H70.0001C70.0001 10.7352 69.3351 9.12018 66.9826 9.12018C65.0126 9.12018 64.0401 10.6352 64.0401 12.4702C64.0401 14.5502 65.2601 15.7577 67.3526 15.7577C68.2401 15.7577 68.9276 15.5852 69.5326 15.2527V13.9102V13.9102ZM65.6176 11.8177C65.6926 10.9677 66.1601 10.3277 67.0826 10.3277C68.0051 10.3277 68.3751 11.0177 68.4251 11.8177H65.6176ZM59.5626 15.6102H61.4226L63.7626 9.27018H62.1126L60.5851 13.8877H60.5601L58.9851 9.27018H57.2126L59.5626 15.6102ZM52.0176 12.2852C52.0176 11.3377 52.5351 10.4027 53.6051 10.4027C54.6876 10.4027 55.2051 11.3127 55.2051 12.2852C55.2051 13.3452 54.8726 14.4777 53.6051 14.4777C52.3501 14.4777 52.0176 13.3327 52.0176 12.2852ZM50.2926 12.4827C50.2926 14.3052 51.5126 15.7577 53.6051 15.7577C55.7101 15.7577 56.9301 14.3052 56.9301 12.4827C56.9301 10.3902 55.4901 9.12268 53.6051 9.12268C51.7326 9.12018 50.2926 10.3902 50.2926 12.4827ZM49.0901 7.22518C48.3526 7.00268 47.5626 6.86768 46.5651 6.86768C43.6476 6.86768 41.8501 8.51768 41.8501 11.4602C41.8501 14.3652 43.7826 15.7577 46.5651 15.7577C47.4876 15.7577 48.4376 15.5602 49.3476 15.3152V10.6852H45.8751V12.0402H47.6976V14.2802C47.4026 14.3552 47.0326 14.4027 46.5651 14.4027C44.7301 14.4027 43.6476 13.0852 43.6476 11.3377C43.6476 9.57768 44.7551 8.22268 46.7626 8.22268C47.4526 8.22268 48.3151 8.37018 48.9776 8.67768L49.0901 7.22518Z" fill="#0D4C84"/>
<path d="M122.693 15.61H124.342V10.475H125.783V9.26754H124.342V8.48004C124.342 7.98754 124.515 7.50754 125.07 7.50754C125.428 7.50754 125.638 7.64254 125.785 7.73004L125.92 6.36254C125.6 6.28754 125.132 6.22754 124.712 6.22754C123.407 6.22754 122.693 7.11504 122.693 8.38254V9.27004H121.473V10.4775H122.693V15.61V15.61ZM116.195 12.285C116.195 11.3375 116.713 10.4025 117.783 10.4025C118.865 10.4025 119.383 11.3125 119.383 12.285C119.383 13.345 119.05 14.4775 117.783 14.4775C116.528 14.4775 116.195 13.3325 116.195 12.285ZM114.47 12.4825C114.47 14.305 115.69 15.7575 117.783 15.7575C119.888 15.7575 121.107 14.305 121.107 12.4825C121.107 10.39 119.668 9.12254 117.783 9.12254C115.913 9.12004 114.47 10.39 114.47 12.4825ZM107.825 13.7C107.825 14.955 108.54 15.755 109.832 15.755C110.325 15.755 110.707 15.705 111.052 15.6075L111.003 14.3025C110.83 14.4125 110.548 14.475 110.253 14.475C109.625 14.475 109.478 13.97 109.478 13.4275V10.475H110.942V9.26754H109.478V7.47004L107.827 8.00004V9.26754H106.607V10.475H107.827V13.7H107.825ZM100.07 15.61H101.72V12.5075C101.72 11.695 101.978 10.4025 103.173 10.4025C104.233 10.4025 104.243 11.45 104.243 12.225V15.61H105.893V11.6075C105.893 10.18 105.24 9.12004 103.738 9.12004C102.875 9.12004 102.175 9.40254 101.658 10.13H101.632V9.26754H100.07V15.61ZM98.62 13.91C98.005 14.255 97.315 14.55 96.515 14.55C95.4925 14.55 94.78 13.9725 94.705 12.95H99.0875C99.0875 10.735 98.4225 9.12004 96.07 9.12004C94.1 9.12004 93.1275 10.635 93.1275 12.47C93.1275 14.55 94.3475 15.7575 96.44 15.7575C97.3275 15.7575 98.015 15.585 98.62 15.2525V13.91V13.91ZM94.7025 11.8175C94.7775 10.9675 95.245 10.3275 96.1675 10.3275C97.09 10.3275 97.46 11.0175 97.51 11.8175H94.7025ZM82.875 15.61H84.525V12.5325C84.525 11.7075 84.66 10.4025 85.755 10.4025C86.7025 10.4025 86.7025 11.24 86.7025 11.83V15.61H88.3525V12.5325C88.3525 11.7075 88.4875 10.4025 89.5825 10.4025C90.53 10.4025 90.53 11.24 90.53 11.83V15.61H92.18V11.6075C92.18 10.1925 91.7375 9.12004 90.1725 9.12004C89.3975 9.12004 88.5725 9.47754 88.19 10.24C87.8325 9.45254 87.205 9.12004 86.3175 9.12004C85.7025 9.12004 84.95 9.37754 84.435 10.155H84.41V9.26754H82.87V15.61H82.875ZM75.6875 15.61H77.3375V12.5075C77.3375 11.695 77.595 10.4025 78.79 10.4025C79.85 10.4025 79.86 11.45 79.86 12.225V15.61H81.51V11.6075C81.51 10.18 80.8575 9.12004 79.355 9.12004C78.4925 9.12004 77.7925 9.40254 77.275 10.13H77.25V9.26754H75.6875V15.61Z" fill="#0D4C84"/>
<path d="M121.733 26.0875C121.733 25.115 122.828 24.9925 123.568 24.9925H124.283C124.283 25.485 124.208 25.94 123.938 26.2975C123.68 26.6425 123.285 26.865 122.78 26.865C122.19 26.8625 121.733 26.63 121.733 26.0875ZM120.895 23.33C121.45 22.9125 122.15 22.64 122.853 22.64C123.825 22.64 124.28 22.985 124.28 24.0075H123.37C122.68 24.0075 121.868 24.07 121.24 24.3775C120.613 24.685 120.158 25.24 120.158 26.1875C120.158 27.395 121.253 28.07 122.373 28.07C123.123 28.07 123.948 27.675 124.33 26.975H124.355C124.368 27.1725 124.368 27.59 124.43 27.9225H125.883C125.845 27.43 125.82 26.9875 125.808 26.5075C125.795 26.04 125.783 25.56 125.783 24.92V24.1075C125.783 22.235 124.983 21.435 123.05 21.435C122.348 21.435 121.488 21.62 120.845 21.915L120.895 23.33ZM117.488 20.425H119.138V18.85H117.488V20.425ZM117.488 27.9225H119.138V21.5825H117.488V27.9225ZM114.373 27.9225H116.023V18.6875H114.373V27.9225ZM108.97 26.0875C108.97 25.115 110.065 24.9925 110.805 24.9925H111.52C111.52 25.485 111.445 25.94 111.175 26.2975C110.918 26.6425 110.523 26.865 110.018 26.865C109.425 26.8625 108.97 26.63 108.97 26.0875ZM108.133 23.33C108.688 22.9125 109.388 22.64 110.09 22.64C111.063 22.64 111.518 22.985 111.518 24.0075H110.608C109.918 24.0075 109.105 24.07 108.478 24.3775C107.85 24.685 107.395 25.24 107.395 26.1875C107.395 27.395 108.49 28.07 109.61 28.07C110.36 28.07 111.185 27.675 111.568 26.975H111.593C111.605 27.1725 111.605 27.59 111.668 27.9225H113.12C113.083 27.43 113.058 26.9875 113.045 26.5075C113.033 26.04 113.02 25.56 113.02 24.92V24.1075C113.02 22.235 112.22 21.435 110.288 21.435C109.585 21.435 108.725 21.62 108.083 21.915L108.133 23.33ZM103.355 27.9225H105.005V25.595C105.005 24.685 105.005 23.01 106.348 23.01C106.643 23.01 106.938 23.06 107.085 23.145V21.4825C106.913 21.4325 106.74 21.4325 106.58 21.4325C105.595 21.4325 104.918 22.43 104.845 23.02H104.82V21.58H103.355V27.9225ZM99.3801 26.0125C99.3801 27.2675 100.095 28.0675 101.388 28.0675C101.88 28.0675 102.263 28.0175 102.608 27.92L102.558 26.615C102.385 26.725 102.103 26.7875 101.808 26.7875C101.18 26.7875 101.033 26.2825 101.033 25.74V22.785H102.498V21.5775H101.033V19.78L99.3826 20.31V21.5775H98.1626V22.785H99.3826V26.0125H99.3801ZM97.5601 21.6675C97.0426 21.5575 96.5376 21.4325 95.7626 21.4325C94.4701 21.4325 93.2751 22.035 93.2751 23.4025C93.2751 25.6925 96.1426 24.8425 96.1426 26.0875C96.1426 26.7025 95.4776 26.8625 95.0601 26.8625C94.4926 26.8625 93.9526 26.7025 93.4351 26.445L93.3376 27.8C93.9401 27.96 94.5801 28.07 95.2101 28.07C96.5526 28.07 97.8701 27.48 97.8701 26.0025C97.8701 23.7125 95.0026 24.3525 95.0026 23.3425C95.0026 22.8 95.5326 22.64 95.9751 22.64C96.5776 22.64 96.9476 22.7375 97.4526 22.91L97.5601 21.6675ZM92.2926 21.5825H90.6426V24.685C90.6426 25.4975 90.3851 26.79 89.1901 26.79C88.1301 26.79 88.1201 25.7425 88.1201 24.9675V21.5825H86.4701V25.585C86.4701 27.0125 87.1226 28.0725 88.6251 28.0725C89.4876 28.0725 90.2001 27.6775 90.7051 27.0625H90.7301V27.925H92.2926V21.5825ZM77.1501 27.9225H78.9351L79.6851 25.9525H83.1701L83.9076 27.9225H85.8151L82.4426 19.3275H80.4976L77.1501 27.9225ZM82.6901 24.5975H80.1776L81.4201 21.0525H81.4451L82.6901 24.5975ZM67.5626 27.9225H69.2126V24.82C69.2126 24.0075 69.4701 22.715 70.6651 22.715C71.7251 22.715 71.7351 23.7625 71.7351 24.5375V27.9225H73.3851V23.92C73.3851 22.4925 72.7326 21.4325 71.2301 21.4325C70.3676 21.4325 69.6551 21.8275 69.2351 22.4425H69.2101V18.6875H67.5601V27.9225H67.5626ZM63.6226 26.0125C63.6226 27.2675 64.3376 28.0675 65.6301 28.0675C66.1226 28.0675 66.5051 28.0175 66.8501 27.92L66.8001 26.615C66.6276 26.725 66.3451 26.7875 66.0501 26.7875C65.4226 26.7875 65.2751 26.2825 65.2751 25.74V22.785H66.7401V21.5775H65.2751V19.78L63.6251 20.31V21.5775H62.4051V22.785H63.6251V26.0125H63.6226ZM61.6926 21.5825H60.0426V24.685C60.0426 25.4975 59.7851 26.79 58.5901 26.79C57.5301 26.79 57.5201 25.7425 57.5201 24.9675V21.5825H55.8701V25.585C55.8701 27.0125 56.5226 28.0725 58.0251 28.0725C58.8876 28.0725 59.6001 27.6775 60.1051 27.0625H60.1301V27.925H61.6926V21.5825ZM49.9726 24.5975C49.9726 23.65 50.4901 22.715 51.5601 22.715C52.6426 22.715 53.1601 23.625 53.1601 24.5975C53.1601 25.6575 52.8276 26.79 51.5601 26.79C50.3051 26.79 49.9726 25.645 49.9726 24.5975ZM48.2501 24.795C48.2501 26.6175 49.4701 28.07 51.5626 28.07C53.6676 28.07 54.8876 26.6175 54.8876 24.795C54.8876 22.7025 53.4476 21.435 51.5626 21.435C49.6901 21.4325 48.2501 22.7025 48.2501 24.795ZM47.0451 19.4875C46.4176 19.2775 45.7276 19.18 44.9901 19.18C43.4751 19.18 41.9851 19.8825 41.9851 21.8025C41.9851 24.6475 45.7526 23.97 45.7526 25.6075C45.7526 26.3825 44.8776 26.715 44.2251 26.715C43.5476 26.715 42.8701 26.505 42.2801 26.185L42.1201 27.7375C42.9701 27.9475 43.3876 28.07 44.3251 28.07C46.0601 28.07 47.5501 27.355 47.5501 25.4725C47.5501 22.5925 43.7826 23.22 43.7826 21.73C43.7826 20.795 44.5451 20.535 45.1376 20.535C45.7401 20.535 46.3451 20.67 46.8851 20.905L47.0451 19.4875Z" fill="#0D4C84"/>
<path d="M16.9526 8.06023C11.8301 8.24773 7.83015 12.5552 8.01765 17.6802C8.20515 22.8052 12.5101 26.8077 17.6326 26.6202C22.7551 26.4327 26.7551 22.1252 26.5676 17.0002C26.3826 11.8727 22.0751 7.87273 16.9526 8.06023ZM16.9426 7.78773C22.2151 7.59523 26.6476 11.7127 26.8426 16.9902C27.0376 22.2652 22.9176 26.7002 17.6426 26.8927C12.3701 27.0852 7.93765 22.9652 7.74265 17.6902C7.55265 12.4127 11.6701 7.98023 16.9426 7.78773Z" fill="#808183"/>
<path fill-rule="evenodd" clip-rule="evenodd" d="M17.225 22.7851C17.2375 23.1576 17.2375 23.5151 17.2225 23.9026C17.1275 24.0351 17.0025 24.1251 16.905 24.2576C16.7125 24.0776 16.82 23.8876 16.84 23.6851C16.885 23.3551 17.045 23.0626 17.12 22.7426L17.225 22.7851ZM17.5275 22.8176C17.6725 23.2576 17.76 23.6826 17.7925 24.1701C17.625 24.2901 17.62 24.1626 17.5325 24.1076C17.1525 23.8776 17.405 23.3526 17.3475 22.9976L17.41 22.7226L17.5275 22.8176ZM14.1525 22.6501L14.0875 22.8001C13.8775 22.9526 13.5475 22.9201 13.315 22.8576L13.265 22.6876L13.285 22.6526H13.0925L13.1 22.8376C13.24 23.1201 13.595 23.0476 13.88 23.0376C14.025 23.0751 14.16 23.2126 14.3125 23.1351C14.435 22.9301 14.5725 23.1701 14.715 23.1626C14.8725 23.1851 14.955 23.0526 15.2275 23.1001C15.0625 23.3076 14.9275 23.5401 14.8225 23.7876C14.7575 24.0051 15.0875 23.9776 15.0525 24.1951C15.09 24.4076 15.43 24.2951 15.4375 24.5401C15.5 24.6801 15.67 24.6176 15.785 24.6426C15.915 24.6651 15.935 24.8376 16.0525 24.9201L16.325 24.8951C16.4525 24.8901 16.5 25.0176 16.59 25.0851L16.8875 24.9876C17.075 24.9951 17.11 25.1951 17.2425 25.2751C17.445 25.3551 17.4925 25.0501 17.6775 25.0301L18.04 25.1901C18.1525 25.1151 18.16 24.9551 18.2725 24.8951L18.56 24.9276C18.69 24.9651 18.6975 24.8076 18.7825 24.7476C18.8825 24.7151 18.9825 24.7551 19.0975 24.7351L19.2175 24.4876C19.27 24.3701 19.4 24.3801 19.5125 24.3476C19.55 24.1751 19.72 24.1251 19.86 24.0476C19.8675 23.8451 19.745 23.6776 19.625 23.5251C19.5775 23.3826 19.4575 23.2601 19.4925 23.0426C19.62 23.0101 19.695 23.1076 19.785 23.1901C19.915 23.2276 20.0575 23.1651 20.1525 23.0626C20.265 22.9876 20.3275 23.1276 20.415 23.1826L20.7425 23.1126C20.895 22.9351 21.2 23.1101 21.35 22.8901L21.4225 22.6501L21.2675 22.6476L21.2475 22.7626C21.04 22.9851 20.7225 22.9101 20.4225 22.9076C20.4375 22.7951 20.475 22.7076 20.53 22.6451L20.3525 22.6476L20.1925 22.8451C20.08 22.8926 19.9375 22.9126 19.835 22.8726L19.755 22.6751L19.7975 22.6501L19.475 22.6476C19.4925 22.7876 19.4475 22.8526 19.39 22.8901C19.16 23.0101 19.025 22.7751 18.87 22.6476H18.6125C18.8675 22.8876 19.1175 23.1451 19.34 23.4201C19.1575 23.5126 19.0925 23.3426 19.005 23.2751C18.81 23.0751 18.6075 22.8601 18.415 22.6501L18.285 22.6476C18.3925 22.7576 18.485 22.8701 18.5775 22.9901C18.775 23.2551 19.01 23.4326 19.19 23.7001L19.125 23.9026C18.725 23.4101 18.3075 23.0976 18.045 22.6476H17.8825C18.15 22.8951 18.3275 23.2501 18.5975 23.5476C18.73 23.6726 18.8525 23.8551 18.815 24.0126C18.6 23.9926 18.565 23.8201 18.46 23.7101C18.2 23.3801 17.95 23.0251 17.79 22.6451H17.6975L17.8 22.8451C17.96 23.2826 18.36 23.6276 18.3625 24.1001C18.0925 24.1676 18.1025 24.0101 18.0525 23.8826C17.895 23.4726 17.65 23.0951 17.565 22.6676L17.5825 22.6426L17.01 22.6451C16.9675 22.9776 16.8225 23.2776 16.755 23.6001C16.6325 23.7901 16.57 23.9951 16.535 24.2101C16.305 24.2051 16.245 24.0926 16.2975 23.9901C16.3475 23.8151 16.4425 23.6551 16.48 23.4826C16.62 23.2026 16.7675 22.9251 16.8925 22.6451L16.8125 22.6476C16.695 22.9776 16.465 23.2726 16.2825 23.5776C16.1875 23.6951 16.09 23.8276 16.04 23.9726C15.85 23.8926 15.89 23.8051 15.93 23.7476C16.1675 23.3751 16.405 23.0126 16.6825 22.6501L16.575 22.6476L16.3725 22.9126C16.2225 23.1326 15.9425 23.2726 15.82 23.5051C15.7525 23.5926 15.715 23.7676 15.5575 23.7451C15.465 23.5626 15.675 23.4251 15.755 23.2926C15.9575 23.0626 16.1925 22.8576 16.4175 22.6451H16.275C16.0575 22.8551 15.7875 23.0126 15.61 23.2551L15.4425 23.3901C15.3225 23.2376 15.3925 23.1776 15.445 23.1026C15.615 22.9426 15.805 22.7901 15.9975 22.6426L15.6875 22.6501C15.555 22.8051 15.46 23.0001 15.2525 22.9001L15.2625 22.6501H14.87L14.75 22.8601C14.5925 22.8801 14.395 22.9301 14.2625 22.8051L14.3225 22.6476L14.1525 22.6501Z" fill="#808183"/>
<path fill-rule="evenodd" clip-rule="evenodd" d="M18.4674 21.5076C18.6424 21.5876 18.8574 21.5926 19.0074 21.7601C19.1849 21.9251 19.3474 22.0626 19.4849 22.2451L18.4699 22.3401C18.3374 22.2151 18.1474 22.1076 18.0549 21.9551C18.0474 21.7551 18.1849 21.5926 18.2199 21.4051C18.3299 21.2976 18.3649 21.4676 18.4674 21.5076ZM16.5724 21.8201L16.5249 22.0651C16.3699 22.1276 16.2624 22.3051 16.0899 22.3526C15.7874 22.3351 15.4474 22.3901 15.1724 22.3426C15.4824 21.7876 15.9824 21.7826 16.3599 21.4826C16.5199 21.5076 16.5124 21.7076 16.5724 21.8201ZM22.9199 19.9451L22.9124 19.9976L22.7899 20.1751C22.5774 20.1976 22.3099 19.9926 22.1599 20.2126C22.0474 20.3026 22.1024 20.5876 21.8824 20.4951C21.7949 20.4401 21.6774 20.3876 21.5499 20.4201C21.4249 20.5101 21.4299 20.7101 21.3049 20.7726C21.1749 20.7476 21.0824 20.5951 20.9274 20.6301L20.7074 20.8951C20.5499 20.9001 20.4574 20.7176 20.3024 20.7801C20.1899 20.8126 20.1249 20.9876 19.9949 20.9776C19.9199 20.8951 19.8599 20.7976 19.7424 20.7576C19.5999 20.7626 19.5474 20.9226 19.4024 20.9001C19.0424 20.7101 19.0349 20.2901 18.9499 19.9451H22.9199ZM18.4974 19.9451L18.4474 20.2026C18.3324 20.5951 18.2324 20.9426 18.0249 21.1926C17.9874 21.3526 18.0599 21.3626 18.0349 21.4501C17.9449 21.7401 17.8549 22.0451 17.6349 22.2826C17.5524 22.3851 17.4599 22.6051 17.2724 22.5676C16.8599 22.2826 16.7149 21.8001 16.5699 21.3476C16.6649 21.2276 16.6849 21.3276 16.7374 21.2701C16.6774 21.1726 16.5874 21.0751 16.5549 20.9626C16.4174 20.7376 16.3799 20.4676 16.4124 20.2076L16.2424 20.2276L16.1499 19.9451L16.0149 19.9426L16.1674 20.5426C16.2324 20.7701 16.0699 20.9901 16.0199 21.2226C15.7599 21.5476 15.3949 21.7901 15.0924 22.0876C14.8574 22.3551 14.5224 22.1526 14.2099 22.2501C13.9324 22.5051 13.4649 22.2501 13.1874 22.4876L13.0924 22.6501L13.2849 22.6476C13.4324 22.4201 13.7724 22.5626 14.0049 22.5276L14.1499 22.5801L14.1524 22.6501L14.3174 22.6476L14.4774 22.5101C14.5924 22.5201 14.7499 22.4851 14.8524 22.5526L14.8699 22.6501L15.2624 22.6476L15.3949 22.5326L15.7674 22.5626L15.6874 22.6501H15.9999C16.1674 22.5226 16.3374 22.4001 16.5049 22.2801L16.5624 22.2926L16.4124 22.4976L16.2749 22.6476H16.4174L16.6549 22.4151L16.6974 22.4276L16.5724 22.6451H16.6799L16.7999 22.4951L16.8449 22.5376L16.8099 22.6476H16.8899L16.9424 22.5201L17.0174 22.5751L17.0099 22.6501L17.5824 22.6476H17.6999H17.7924L17.7474 22.5326L17.8874 22.6451H18.0499L18.0374 22.6201C17.9774 22.5226 17.8299 22.4426 17.8674 22.3101C18.0349 22.4176 18.1699 22.5276 18.2874 22.6451L18.4174 22.6426C18.3024 22.5176 18.1874 22.3926 18.0824 22.2726L18.1824 22.2551C18.3274 22.3776 18.4724 22.5076 18.6149 22.6426H18.8724L18.7949 22.5901L19.4524 22.5226L19.4774 22.6401H19.7999C20.0499 22.4951 20.2699 22.4551 20.3574 22.6026L20.3549 22.6426L20.5324 22.6401L20.7699 22.5001C20.9274 22.5076 21.1124 22.4876 21.2599 22.5526L21.2749 22.6401L21.4299 22.6376L21.4324 22.6026C21.2799 22.3226 20.9224 22.3776 20.6499 22.3601C20.3824 22.0826 19.9474 22.3276 19.6524 22.1251C19.2674 21.7651 18.8499 21.3376 18.5774 20.9601C18.3724 20.6201 18.6324 20.2776 18.6649 19.9326H18.4974V19.9451ZM15.7549 19.9451C15.7074 20.1176 15.7474 20.3226 15.6799 20.4926C15.6424 20.6076 15.5749 20.7251 15.4774 20.8151C15.3349 20.8351 15.2149 20.6826 15.0749 20.7576C14.9474 20.7901 14.8549 20.9951 14.7224 20.8851C14.5899 20.8026 14.4949 20.5776 14.3124 20.6576C14.1724 20.7201 14.1099 20.9651 13.9474 20.8576C13.8574 20.7751 13.8099 20.6201 13.6649 20.5951C13.5349 20.5701 13.4824 20.7026 13.3524 20.6926C13.1499 20.6001 13.0924 20.2151 12.8124 20.4251L12.5399 20.4501C12.4349 20.3251 12.4274 20.1526 12.2824 20.0876C12.1249 20.0651 11.9574 20.1726 11.8099 20.0776L11.7749 19.9501L15.7549 19.9451Z" fill="#808183"/>
<path fill-rule="evenodd" clip-rule="evenodd" d="M18.2726 17.2325C18.2801 17.365 18.2701 17.4975 18.2376 17.63C18.1676 18.0625 18.1551 18.4925 18.2851 18.9325C18.2926 19.12 18.4551 19.2425 18.4451 19.415C18.5901 19.5775 18.5426 19.76 18.4951 19.9475L18.6601 19.945L18.6626 19.91C18.6901 19.865 18.7301 19.7775 18.9351 19.885L18.9501 19.945H22.9176C22.9901 19.6425 23.3576 19.82 23.5726 19.7425C23.6801 19.5375 23.5126 19.2875 23.7526 19.1475C23.9676 19.14 24.1976 19.16 24.4251 19.1075C24.5376 19.0325 24.4051 18.935 24.4001 18.85C24.3651 18.7075 24.1301 18.545 24.3126 18.4225C24.5276 18.4 24.7701 18.405 25.0551 18.31C25.0351 18.1825 24.9751 18.0825 24.9276 17.985C24.8676 17.8875 24.7351 17.805 24.7151 17.6775C24.8376 17.53 25.0101 17.5225 25.1651 17.445C25.2626 17.385 25.4201 17.365 25.4451 17.235L25.4401 17.23L20.4951 17.2325C20.5851 17.31 20.6576 17.395 20.6551 17.5275C20.3576 17.61 20.2226 17.4575 20.0776 17.39C20.1551 17.545 20.2601 17.655 20.2501 17.8C20.1701 17.9325 20.0501 17.8075 19.9626 17.7825L19.7276 17.62C19.7176 17.735 19.9651 17.855 19.7676 17.9325C19.5976 17.9675 19.4651 17.8725 19.3726 17.7475C19.3401 17.6475 19.2801 17.55 19.3026 17.435L19.4076 17.235H19.1651L19.0676 17.345C18.8876 17.2625 18.5926 17.3975 18.4701 17.235L18.2726 17.2325ZM15.4701 17.2325C15.5276 17.3725 15.5651 17.5175 15.5051 17.6725C15.4251 17.805 15.3151 17.9525 15.1276 17.93L15.0351 17.7325C14.9476 17.665 14.8801 17.81 14.7501 17.785C14.5676 17.535 14.7101 17.4575 14.7626 17.325C14.6201 17.345 14.5126 17.535 14.3251 17.485L14.2326 17.3025L14.2426 17.23H9.1876L9.1701 17.2725C9.1051 17.4475 9.3476 17.4225 9.4376 17.505C9.5401 17.5875 9.6976 17.5525 9.7726 17.68C9.7351 17.8525 9.5251 17.975 9.5326 18.1625L9.85261 18.3225C10.0551 18.3725 10.3226 18.205 10.4151 18.43C10.3351 18.605 10.2426 18.78 10.2501 18.98C10.3251 19.0925 10.4676 19.0575 10.5701 19.0975C10.7301 19.12 10.8826 19.0275 11.0151 19.1525L10.9376 19.4125C10.9426 19.54 10.8026 19.6475 10.8776 19.7575C11.1226 19.805 11.3776 19.725 11.6226 19.7175C11.7426 19.7525 11.7551 19.845 11.7726 19.9425L15.7526 19.94C15.7801 19.8425 15.8326 19.755 15.9501 19.6875L16.0151 19.94H16.1501L16.1001 19.8125L16.0751 19.555C16.1526 19.3075 16.2726 19.06 16.3051 18.8025C16.3576 18.685 16.3551 18.57 16.4076 18.455C16.4251 18.1825 16.5301 17.8775 16.4476 17.58C16.5426 17.405 16.8026 17.51 16.9576 17.4175C17.0851 17.38 17.2001 17.315 17.3001 17.23H16.5951L16.5251 17.3025C16.3651 17.455 16.2476 17.3075 16.1126 17.2325L15.8776 17.23L15.8626 17.2425L15.6651 17.2325H15.4701Z" fill="#808183"/>
<path fill-rule="evenodd" clip-rule="evenodd" d="M14.5227 12.7776C14.5277 12.9051 14.5302 12.9776 14.5502 13.1051C14.5302 13.3651 14.5402 13.6351 14.4052 13.8551C14.3527 13.5851 14.2427 13.3451 14.1627 13.0901C14.2302 12.9576 14.3077 12.7551 14.4802 12.7351L14.5227 12.7776ZM20.5877 13.2451C20.6227 13.4451 20.4577 13.5951 20.4652 13.8101C20.6052 13.7326 20.5827 13.4901 20.7702 13.5251L20.8052 13.6951C20.6827 13.8851 20.6352 14.1301 20.4827 14.3226C20.3077 13.8426 20.2927 13.4551 20.3502 13.0651C20.5227 13.1026 20.5552 13.1751 20.5877 13.2451ZM14.1927 13.5351C14.2177 13.8351 14.3102 13.9601 14.2577 14.1076C14.0477 13.8726 14.0002 13.6876 13.9077 13.5176L14.0277 13.2826C14.1677 13.2801 14.1302 13.4526 14.1927 13.5351ZM13.9627 13.9026C14.0552 14.0851 14.2777 14.2501 14.1977 14.4676C14.0802 14.8001 14.1102 15.2026 14.1527 15.5451C13.9552 15.6676 13.7802 15.5726 13.6477 15.4501C13.6302 15.3501 13.6127 15.2926 13.6077 15.1801C13.8227 15.1576 13.8977 15.2851 13.9677 15.2101L13.5802 14.7951C13.7627 14.6726 13.8652 14.7551 13.9802 14.7801C13.8727 14.5826 13.6852 14.5176 13.6202 14.3626L13.6977 14.1451L13.8752 14.2676C13.8552 14.1101 13.6027 13.9051 13.7977 13.7551L13.9627 13.9026ZM21.0377 13.8301C21.0852 13.9726 20.9452 14.0351 20.8777 14.1376L20.6327 14.4901C20.5152 14.4526 20.5577 14.3776 20.5827 14.3201C20.6627 14.1176 20.8127 13.9401 20.9502 13.7776L21.0377 13.8301ZM21.1752 14.4276L20.6652 14.9476C20.5152 14.7526 20.6402 14.6601 20.6802 14.5601C20.7752 14.4426 20.9252 14.2501 21.0827 14.1726L21.1752 14.4276ZM21.2327 14.8126C21.2652 14.9251 21.1827 15.0001 21.1427 15.0726C20.9877 15.1651 20.8177 15.1851 20.6477 15.2201L20.6852 15.0476C20.8377 14.9276 20.9902 14.7776 21.1902 14.7701L21.2327 14.8126ZM21.0752 15.2626C20.9702 15.5251 20.7852 15.5751 20.6427 15.5501C20.7352 15.3176 20.9002 15.1551 21.0752 15.2626ZM16.7602 15.6076C16.8102 15.8076 16.9052 16.0176 16.7827 16.1951C16.5752 16.3901 16.3777 16.1101 16.1902 16.0451L16.4752 16.0051L16.7052 16.0401C16.7977 15.7926 16.4777 15.6626 16.3552 15.4951C16.4952 15.4026 16.6427 15.5101 16.7602 15.6076ZM17.2777 16.0026C17.1702 16.2076 17.1102 16.1526 17.0677 16.1251C17.0477 15.9676 17.0602 15.9251 17.1177 15.9076L17.2777 16.0026ZM19.1702 17.2326C19.5377 16.8151 19.8177 16.4251 19.8527 15.9376C19.9477 15.4026 20.0577 14.8826 20.2402 14.3751C20.1627 13.0726 20.0327 11.8026 20.1127 10.5101C20.2252 10.4351 20.2327 10.6351 20.3327 10.6726C20.4902 10.2801 20.4352 9.92512 20.6702 9.71512C20.8877 9.79262 20.8977 10.0501 20.9477 10.2501C20.9177 10.6101 20.9452 10.9676 20.9877 11.3101C21.2177 10.9576 21.2852 10.4676 21.6927 10.2376C21.7477 10.6076 21.7002 10.8676 21.7127 11.1676C21.6752 11.3551 21.5377 11.5026 21.4877 11.6926C21.4077 11.8251 21.4127 12.0251 21.4777 12.1676L21.6602 12.0451C21.8902 11.6351 22.2027 11.1951 22.6227 10.9051C22.8527 10.9401 22.8152 11.0851 22.8052 11.1701C22.7827 11.3576 22.6452 11.5051 22.6227 11.6776C22.3727 11.9026 22.2677 12.1626 22.1352 12.4401C22.0802 12.5151 21.9702 12.6326 22.0452 12.7451C22.1877 12.6976 22.2677 12.5801 22.3652 12.4601C22.6502 12.0051 23.1277 11.7601 23.5802 11.5701C23.6627 11.8976 23.3827 12.0501 23.3202 12.3251C23.2027 12.6301 22.9402 12.8851 22.6577 13.0376L22.4952 13.3001L22.7377 13.2476C23.1977 12.9151 23.6902 12.6251 24.2452 12.5176C24.3952 12.7276 24.2127 12.8476 24.0877 12.9526C23.8777 13.1026 23.6427 13.2826 23.4777 13.5051C23.6277 13.6576 23.7652 13.5226 23.9077 13.4751C24.1477 13.3376 24.4902 13.3101 24.7502 13.3576C24.5902 13.6501 24.3952 13.8151 24.2452 14.0351C24.3077 14.2051 24.5027 14.0401 24.6477 14.0626C24.8352 14.0851 25.0627 14.0901 25.1852 14.2576C25.0077 14.4926 24.8102 14.5726 24.6577 14.7351C24.8227 14.9576 25.0377 14.9076 25.1977 15.0026L25.4177 15.1676C25.2402 15.3876 24.9552 15.4851 24.8802 15.7326C24.9852 15.8726 25.1727 15.8801 25.3202 15.9901C25.4402 16.1001 25.6427 16.1501 25.6902 16.3201C25.4802 16.4576 25.2852 16.5776 25.0577 16.6726L25.0502 16.8601C25.1827 16.9951 25.3402 17.0901 25.4477 17.2276L20.5027 17.2301L20.3302 17.0926C20.4877 17.0576 20.6352 17.1676 20.9127 16.9851C20.8477 16.7851 20.6302 16.7076 20.4427 16.6876C20.4977 16.6001 20.6102 16.5676 20.6877 16.3201C20.5252 16.1976 20.4177 16.3876 20.2752 16.3776C20.1852 16.2526 20.4002 16.2451 20.4377 16.1276L20.4577 15.9126C20.3402 15.8301 20.2577 15.9626 20.1752 16.0226L20.1802 15.7776L20.0802 15.7676C19.9877 16.0001 19.9677 16.2601 19.8627 16.4926C19.7477 16.7451 19.5602 16.9826 19.4152 17.2301H19.1702V17.2326ZM16.5927 17.2326C16.7027 17.1076 16.7627 16.9426 16.7452 16.7526C16.6977 16.6101 16.7052 16.4101 16.5302 16.3451C16.3102 16.2101 16.0902 16.0751 15.8977 15.8951L16.1252 15.8576C16.2827 15.8651 16.4277 15.9026 16.5877 15.9276C16.4202 15.6326 16.1977 15.4551 15.9652 15.3626C16.0327 15.2751 16.1927 15.3126 16.3077 15.3201C16.9027 15.4851 17.4702 15.7226 17.9577 16.1201C18.2277 16.4251 18.3977 16.7501 18.4402 17.1476L18.4802 17.2301H18.2777C18.2702 17.1051 18.2477 16.9801 18.2152 16.8551L18.1352 16.6276C18.0577 16.5001 17.9527 16.3201 17.7802 16.3401C17.6377 16.3876 17.6152 16.5476 17.6052 16.6751C17.5777 16.8901 17.4652 17.0876 17.3002 17.2301H16.5927V17.2326ZM9.18766 17.2326C9.29016 17.0126 9.51016 16.8926 9.65016 16.6976C9.57016 16.4851 9.31016 16.4101 9.16016 16.2126C9.29266 15.9351 9.48766 15.7851 9.67016 15.6626L9.62016 15.4626C9.48516 15.2826 9.29516 15.1751 9.18766 14.9776C9.35516 14.8276 9.56516 14.7201 9.79266 14.6826C9.73766 14.3701 9.54766 14.2176 9.46766 14.0351C9.76266 13.9101 10.1252 14.0251 10.4077 13.8851C10.2527 13.5751 10.0752 13.4251 9.92516 13.2001L10.1377 13.1351C10.3952 13.0976 10.6427 13.2026 10.8852 13.2076C10.6577 12.9001 10.4052 12.6226 10.4077 12.2801C10.9702 12.3451 11.3527 12.6601 11.7627 12.8751C11.7177 12.4026 11.1302 12.0801 11.1427 11.5926C11.7552 11.8576 12.2227 12.1401 12.6377 12.5126C12.4777 12.0751 12.4502 11.6751 12.2102 11.3826C12.1027 11.2001 12.1077 10.9701 12.1002 10.7701C12.2277 10.7376 12.2927 10.9076 12.4077 10.9451C12.6627 11.2376 12.9027 11.5301 13.0727 11.8676C13.3302 11.8426 13.2677 11.6726 13.2027 11.5326C13.1252 11.3501 13.0902 11.1776 13.0827 10.9626C12.9727 10.6801 12.9927 10.4501 13.0677 10.1601C13.3852 10.2476 13.3952 10.4776 13.5002 10.6476C13.6102 10.9151 13.6652 11.2276 13.7477 11.5126C13.8102 11.6251 13.7552 11.7426 13.8577 11.8101C14.0577 11.7876 13.9077 11.5801 13.9452 11.4476C13.9477 11.1176 14.0202 10.7276 13.9502 10.4001C13.8802 10.0726 14.0127 9.76762 14.2352 9.55762L14.2927 9.57011C14.3452 9.81261 14.3977 10.0976 14.3777 10.3401C14.4427 10.5101 14.3452 10.6576 14.4377 10.7951C14.6252 10.8176 14.6302 10.5301 14.8152 10.5376C14.8777 10.6651 14.8402 10.8526 14.9027 10.9776C14.9252 11.1626 14.9177 11.3651 14.8952 11.5651C14.9152 11.6926 14.8777 11.8526 14.8677 11.9976C14.8002 12.4876 14.7152 12.9626 14.6352 13.4526C14.3827 14.0076 14.5952 14.6876 14.7152 15.2426C14.9127 15.5651 15.0402 15.9176 15.0702 16.3176C15.2252 16.6426 15.5477 16.8151 15.6027 17.1726L15.6652 17.2251L15.4727 17.2226L15.3502 16.9376C15.1977 16.7151 14.9352 16.5651 14.8827 16.2951C14.8177 16.0976 14.8927 15.8076 14.7027 15.6576L14.7127 15.9451C14.6277 15.9626 14.6077 15.8476 14.4352 15.8251C14.3827 15.9426 14.4427 16.0251 14.4902 16.1251L14.5277 16.3251C14.3977 16.3301 14.3077 16.1901 14.1927 16.1651L13.9952 16.2301C13.9852 16.3601 14.0902 16.4701 14.3402 16.6326L14.0452 16.7726L13.9252 16.9776C14.0452 17.1451 14.2552 17.0076 14.4127 16.9876L14.2477 17.2226H9.18766V17.2326Z" fill="#808183"/>
<path fill-rule="evenodd" clip-rule="evenodd" d="M4.49264 19.3002L4.36764 18.2702L5.72014 18.5902L4.49264 19.3002ZM4.37264 19.3652L3.72514 19.7402L3.45264 19.8627C3.16764 19.8977 3.27764 19.5202 3.14514 19.5377L3.09264 19.6277C3.11764 19.8377 3.15264 20.0352 3.17764 20.2402C3.20264 20.4452 3.21764 20.6502 3.24264 20.8552L3.31764 20.9352C3.43264 20.9227 3.25014 20.6952 3.54514 20.5227L5.89014 19.1302C6.54764 18.7427 6.72264 18.7227 6.71264 18.6552C6.70514 18.5902 6.63264 18.6227 6.39014 18.5452C6.06264 18.4402 6.06264 18.3527 5.98264 18.3627L5.79764 18.5102C5.75514 18.5152 5.55014 18.4527 3.89764 18.0327C3.52264 17.9402 3.22264 17.8052 3.09264 17.6852C2.94764 17.5577 2.97764 17.3527 2.88264 17.3627L2.82764 17.4377C2.85014 17.6202 2.88014 17.7827 2.90264 17.9527C2.94514 18.3002 2.95014 18.4227 2.96264 18.5302L3.03014 18.6052C3.15514 18.5902 2.97764 18.1827 3.50514 18.1177C3.65764 18.1002 3.81764 18.1477 4.24014 18.2352L4.37264 19.3652Z" fill="#808183"/>
<path d="M4.79997 22.435C4.27247 22.7175 4.07747 23.325 4.52497 24.165C4.90247 24.8725 5.48248 25.0375 6.13498 24.69L7.57248 23.925C7.96998 23.715 8.25247 23.78 8.39997 23.9225L8.57498 24.05L8.57248 23.9225C8.48498 23.76 8.41247 23.6425 8.30997 23.45C8.20747 23.26 8.15248 23.1325 8.06498 22.9675L7.95997 22.895C7.89497 22.93 7.94248 22.975 7.96748 23.1125C8.00248 23.315 7.89998 23.585 7.50248 23.7975L6.05498 24.5675C5.49248 24.865 5.01748 24.7625 4.73248 24.2275C4.46998 23.7325 4.58748 23.245 5.07998 22.9825L7.06498 21.9275C7.37998 21.76 7.42998 22.2175 7.54748 22.155L7.55997 22.02C7.47497 21.86 7.40248 21.7475 7.25998 21.475C7.11498 21.2025 7.05998 21.08 6.97748 20.92L6.85748 20.855C6.73998 20.9175 7.08998 21.215 6.77748 21.3825L4.79997 22.435Z" fill="#808183"/>
<path d="M7.06262 27.5673L7.05762 27.6473C7.13262 27.7098 7.19012 27.5223 7.35012 27.6573C7.45262 27.7423 7.58762 28.1198 7.87512 28.3598C8.51762 28.8973 9.18012 28.7148 9.54262 28.2848C10.3701 27.2973 8.69762 26.3223 9.32512 25.5748C9.54012 25.3198 9.87012 25.2848 10.1701 25.5373C10.6151 25.9098 10.4976 26.4823 10.2426 27.0598L10.2126 27.1998L10.3026 27.1798C10.3476 27.1273 10.5651 26.8348 10.9926 26.2223L11.0051 26.1298C10.9301 26.0673 10.8726 26.2398 10.7576 26.1448C10.6026 26.0173 10.6051 25.7398 10.2551 25.4473C9.80762 25.0698 9.12762 25.1098 8.77512 25.5323C7.93762 26.5323 9.67762 27.4248 8.99012 28.2448C8.75762 28.5223 8.37762 28.6148 7.98262 28.2848C7.46262 27.8473 7.68262 27.1623 8.03512 26.6048L8.08262 26.4373L8.00262 26.4523L7.06262 27.5673Z" fill="#808183"/>
<path d="M14.0048 27.8002C14.4948 27.9702 14.7648 28.5602 14.8148 29.0327C14.8298 29.1652 14.8298 29.2402 14.8598 29.2502L14.9173 29.2252L14.9623 28.9327L15.0898 28.0577L15.0698 27.9452L14.9923 27.9627L14.8023 27.9427L12.6973 27.2177L12.5373 27.1177L12.4873 27.0552L12.4023 27.1327L11.9623 27.9002L11.8198 28.1602L11.8498 28.2152L12.0198 28.0727C12.3498 27.7327 12.9248 27.4302 13.4173 27.6002L12.4173 30.5202C12.3023 30.8552 11.8748 30.5302 11.8323 30.6552L11.9348 30.7677C12.1623 30.8477 12.2923 30.8802 12.5848 30.9802C12.8773 31.0802 12.9998 31.1352 13.2273 31.2127L13.3773 31.1852C13.4198 31.0602 12.8848 31.0552 12.9998 30.7202L14.0048 27.8002Z" fill="#808183"/>
<path fill-rule="evenodd" clip-rule="evenodd" d="M17.7825 28.3148L18.085 28.2873C18.5725 28.2448 18.8825 28.4423 18.935 29.0473C18.9875 29.6598 18.7175 29.9223 18.165 29.9723L17.93 29.9923L17.7825 28.3148ZM17.4375 31.4548C17.47 31.8098 17.03 31.6773 17.04 31.8098L17.16 31.8748C17.34 31.8598 17.4725 31.8373 17.78 31.8098C18.0875 31.7823 18.2225 31.7823 18.4 31.7648L18.505 31.6823C18.495 31.5498 18.0825 31.7573 18.0525 31.4023L17.94 30.1248L18.0225 30.1173C18.4125 30.0823 18.525 30.1898 18.9425 30.8473L19.4625 31.6648C19.92 31.6298 20.2725 31.6048 20.345 31.5973L20.4425 31.5248C20.43 31.3923 20.0775 31.6048 19.8175 31.1698L19.485 30.6023C19.1825 30.0923 18.95 30.0273 18.4525 30.0123V30.0023C19.185 29.8848 19.66 29.5123 19.6125 28.9798C19.5725 28.5273 19.14 28.0748 18.1425 28.1623C17.9425 28.1798 17.745 28.2073 17.4675 28.2323C17.16 28.2598 17.025 28.2598 16.8475 28.2748L16.74 28.3573C16.7525 28.4898 17.1625 28.2823 17.1925 28.6373L17.4375 31.4548Z" fill="#808183"/>
<path fill-rule="evenodd" clip-rule="evenodd" d="M23.39 28.89L22.4575 29.345L22.32 27.96L23.39 28.89ZM23.4925 28.98L24.0575 29.47L24.26 29.69C24.385 29.9475 23.995 29.9675 24.0525 30.0875L24.155 30.1075C24.345 30.015 24.52 29.9175 24.705 29.8275C24.89 29.7375 25.08 29.6575 25.265 29.5675L25.315 29.4725C25.265 29.3675 25.11 29.615 24.8525 29.3925L22.775 27.6275C22.195 27.1325 22.12 26.975 22.0575 27.005C21.9975 27.035 22.0525 27.09 22.0575 27.3475C22.065 27.6925 21.9825 27.72 22.0175 27.7925L22.2175 27.92C22.235 27.9575 22.2425 28.1725 22.385 29.8725C22.4175 30.2575 22.3875 30.585 22.32 30.7475C22.2475 30.925 22.0425 30.965 22.085 31.05L22.1725 31.0775C22.3375 30.9975 22.4825 30.915 22.635 30.84C22.95 30.6875 23.065 30.6425 23.1625 30.595L23.21 30.5075C23.155 30.3925 22.8275 30.695 22.595 30.2175C22.5275 30.08 22.52 29.9125 22.4675 29.485L23.4925 28.98Z" fill="#808183"/>
<path d="M26.9749 27.5999C27.2349 27.8424 26.8199 28.0399 26.9174 28.1299L27.0474 28.0974C27.1699 27.9674 27.2524 27.8599 27.4649 27.6349C28.2424 26.7999 28.5549 26.4799 28.8299 26.1874L28.0999 25.2124L27.9974 25.0974L27.9274 25.0949L27.9524 25.2224C28.2349 25.6899 28.4024 26.4574 27.8549 27.0449C27.6799 27.2324 27.5349 27.2799 27.3124 27.0749L25.3249 25.2199C25.0649 24.9774 25.4799 24.7799 25.3824 24.6899L25.2524 24.7224C25.1299 24.8549 25.0474 24.9599 24.8349 25.1849C24.6249 25.4099 24.5249 25.4999 24.4024 25.6324L24.3799 25.7649C24.4774 25.8549 24.6449 25.4274 24.9024 25.6699L26.9749 27.5999Z" fill="#808183"/>
<path d="M29.9749 23.4425C30.2974 23.5925 29.9624 23.9075 30.0824 23.965L30.1974 23.8925C30.2749 23.73 30.3199 23.605 30.4499 23.325C30.5799 23.045 30.6474 22.9275 30.7224 22.765L30.7024 22.63C30.5824 22.575 30.5549 23.0325 30.2349 22.8825L27.6699 21.685C27.3474 21.535 27.6824 21.22 27.5624 21.165L27.4474 21.235C27.3724 21.3975 27.3249 21.525 27.1949 21.805C27.0649 22.085 26.9974 22.2025 26.9224 22.365L26.9424 22.4975C27.0624 22.5525 27.0899 22.095 27.4099 22.245L29.9749 23.4425Z" fill="#808183"/>
<path fill-rule="evenodd" clip-rule="evenodd" d="M30.2775 18.56L30.1525 19.59L28.9175 18.95L30.2775 18.56ZM30.41 18.5225L31.13 18.315L31.425 18.2625C31.7075 18.2975 31.5125 18.635 31.645 18.6525L31.7175 18.5775C31.7425 18.3675 31.7575 18.1675 31.7825 17.9625C31.8075 17.76 31.8425 17.555 31.8675 17.35L31.815 17.255C31.7 17.24 31.8225 17.505 31.495 17.6L28.8825 18.3825C28.1525 18.5975 27.9775 18.5775 27.97 18.6425C27.9625 18.71 28.0375 18.6925 28.2575 18.8275C28.55 19.0075 28.53 19.095 28.6075 19.105L28.8225 19.0075C28.865 19.0125 29.0475 19.1225 30.5525 19.93C30.8925 20.1125 31.1525 20.315 31.25 20.4625C31.36 20.62 31.2825 20.8125 31.375 20.825L31.4475 20.7675C31.47 20.5825 31.48 20.42 31.5 20.25C31.5425 19.9025 31.5675 19.7825 31.58 19.675L31.5325 19.5875C31.4075 19.5725 31.48 20.01 30.955 19.9475C30.8025 19.93 30.6575 19.8425 30.27 19.6575L30.41 18.5225Z" fill="#808183"/>
<path d="M8.68501 10.785L8.76501 10.7925C8.83501 10.7175 8.64751 10.655 8.79751 10.495C8.89001 10.395 9.28001 10.2725 9.54501 9.98998C10.135 9.35748 9.99501 8.67498 9.58251 8.29248C8.64001 7.41248 7.54001 9.07498 6.82751 8.41248C6.58251 8.18498 6.57251 7.84748 6.84751 7.55248C7.25501 7.11498 7.82751 7.25498 8.39251 7.53748L8.53251 7.57498L8.51751 7.48248C8.46751 7.43498 8.18501 7.19998 7.59501 6.74498L7.50001 6.72998C7.43001 6.80498 7.60251 6.86748 7.49751 6.97998C7.35501 7.13248 7.07751 7.11748 6.75751 7.46498C6.34501 7.90748 6.34001 8.59748 6.74251 8.97248C7.69751 9.86248 8.72001 8.12748 9.50251 8.85748C9.76751 9.10248 9.83501 9.49498 9.47501 9.88248C8.99751 10.395 8.31751 10.145 7.78001 9.76498L7.61251 9.70998L7.62251 9.79248L8.68501 10.785Z" fill="#808183"/>
<path fill-rule="evenodd" clip-rule="evenodd" d="M11.3649 4.1425C10.5474 4.5075 9.90995 5.55 10.3924 6.6375C10.8749 7.7225 12.0774 7.9475 12.8949 7.5825C13.7124 7.2175 14.3499 6.1725 13.8674 5.0875C13.3849 4.005 12.1824 3.78 11.3649 4.1425ZM13.2299 5.3725C13.7174 6.4675 13.4774 7.1825 12.8449 7.465C12.2099 7.7475 11.5199 7.445 11.0324 6.3525C10.5449 5.2575 10.7849 4.5425 11.4174 4.26C12.0499 3.9775 12.7424 4.28 13.2299 5.3725Z" fill="#808183"/>
<path d="M15.7976 5.6051C15.8076 6.2051 16.2776 6.65259 17.2576 6.63509C18.0851 6.62009 18.5051 6.1776 18.4926 5.4351L18.4651 3.80759C18.4576 3.35759 18.6501 3.1351 18.8501 3.0676C18.9876 3.0226 19.0526 3.0426 19.0501 2.9676L18.9326 2.9126C18.7426 2.9151 18.6001 2.93009 18.3751 2.93259C18.1526 2.93759 18.0101 2.92759 17.8176 2.93259L17.7026 2.99259C17.7051 3.06759 17.7676 3.0451 17.9051 3.0851C18.1076 3.1451 18.3076 3.3601 18.3151 3.8101L18.3426 5.44759C18.3551 6.08259 18.0376 6.4601 17.4126 6.4726C16.8351 6.4826 16.4426 6.1551 16.4326 5.6001L16.3926 3.35259C16.3851 2.99759 16.8301 3.16009 16.8276 3.02509L16.7101 2.95259C16.5251 2.95509 16.3876 2.9701 16.0676 2.9751C15.7501 2.9801 15.6126 2.97259 15.4251 2.97759L15.3101 3.0526C15.3126 3.1851 15.7501 3.00759 15.7551 3.36259L15.7976 5.6051Z" fill="#808183"/>
<path d="M22.87 4.19998C23.365 4.39998 23.6175 5.01248 23.6475 5.48748C23.655 5.62248 23.655 5.69498 23.685 5.70748L23.745 5.68498L23.805 5.39498L23.9725 4.52498L23.9575 4.40998L23.8775 4.42248L23.685 4.38998L21.5575 3.52998L21.395 3.41998L21.3475 3.35498L21.255 3.42748L20.7725 4.16998L20.615 4.41998L20.6425 4.47748L20.8225 4.34498C21.175 4.02498 21.78 3.75998 22.275 3.95998L21.125 6.82248C20.9925 7.15248 20.57 6.79748 20.52 6.91998L20.62 7.03998C20.85 7.13248 20.9825 7.17498 21.2775 7.29498C21.5725 7.41498 21.695 7.47498 21.9275 7.56998L22.0825 7.55248C22.1325 7.42998 21.5825 7.38998 21.715 7.05998L22.87 4.19998Z" fill="#808183"/>
<path d="M26.7299 8.8577L25.7224 9.90269C25.4749 10.1577 25.2774 9.7302 25.1849 9.8252L25.2174 9.9602C25.3499 10.0877 25.4574 10.1777 25.6874 10.3977C25.9149 10.6177 26.0074 10.7227 26.1399 10.8502L26.2749 10.8777C26.3674 10.7827 25.9324 10.5977 26.1799 10.3427L28.1474 8.30519C28.3949 8.05019 28.5924 8.47769 28.6849 8.38269L28.6524 8.2477C28.5199 8.1202 28.4124 8.0302 28.1849 7.8102C27.9549 7.5902 27.8649 7.4852 27.7299 7.3577L27.5949 7.33019C27.5024 7.42519 27.9374 7.6102 27.6899 7.8652L26.8224 8.76519L25.7199 7.7002L26.5899 6.80019C26.8374 6.54519 27.0349 6.97269 27.1274 6.87769L27.0949 6.74269C26.9624 6.61269 26.8549 6.52519 26.6274 6.30519C26.3974 6.08519 26.3074 5.98019 26.1724 5.85269L26.0374 5.8252C25.9449 5.9202 26.3799 6.10519 26.1324 6.36019L24.1674 8.3977C23.9199 8.6527 23.7224 8.22519 23.6299 8.32019L23.6624 8.45519C23.7949 8.58269 23.9024 8.67269 24.1324 8.89269C24.3599 9.11269 24.4524 9.21769 24.5849 9.34519L24.7199 9.3727C24.8124 9.2777 24.3774 9.09269 24.6249 8.83769L25.6349 7.79269L26.7299 8.8577Z" fill="#808183"/>
<path d="M16.8125 1.64751C9.37502 1.92001 3.33252 7.3075 1.94002 14.3L0.33252 13.995C1.91252 6.0175 8.94752 0 17.39 0C25.725 0 32.69 5.8675 34.385 13.6975L32.7825 14.0325C31.195 6.715 24.5525 1.36251 16.8125 1.64751Z" fill="#0D4C84"/>
<path d="M33.115 18.3548C33.145 17.8473 33.1525 17.3348 33.1325 16.8148C33.1 15.9623 33.0025 15.1298 32.8425 14.3198L34.445 13.9873C34.6625 15.0898 34.7775 16.2273 34.7775 17.3948C34.7775 17.7573 34.7675 18.1148 34.745 18.4698L33.115 18.3548Z" fill="#EB1C4D"/>
<path d="M32.925 20.0274C33.0025 19.5749 33.0576 19.1149 33.0951 18.6499L34.725 18.7649C34.685 19.2874 34.62 19.8049 34.535 20.3149L32.925 20.0274Z" fill="#FBB02F"/>
<path d="M1.95998 20.5874C3.48248 27.9899 10.165 33.4274 17.9675 33.1399C25.465 32.8649 31.545 27.3924 32.8725 20.3174L34.4825 20.6049C32.975 28.6774 25.895 34.7874 17.39 34.7874C8.98748 34.7874 1.97998 28.8274 0.35498 20.9049L1.95998 20.5874Z" fill="#0D4C84"/>
<path d="M1.71002 18.9248C1.75502 19.3898 1.82002 19.8473 1.90502 20.2973L0.300019 20.6148C0.205019 20.1073 0.13252 19.5898 0.0825195 19.0673L1.71002 18.9248Z" fill="#FBB02F"/>
<path d="M1.885 14.5902C1.6875 15.6852 1.605 16.8152 1.6475 17.9702C1.655 18.1902 1.6675 18.4102 1.685 18.6277L0.0550003 18.7727C0.0200003 18.3177 0 17.8577 0 17.3927C0 16.3302 0.0950001 15.2927 0.2775 14.2827L1.885 14.5902Z" fill="#EB1C4D"/>
</svg>
