<svg width="108" height="30" viewBox="0 0 108 30" fill="none" xmlns="http://www.w3.org/2000/svg">
<path d="M14.3444 17.2544H17.0146L20.9818 27.8591V30.0004H19.1298L15.6795 20.6644L12.2671 30.0004H10.3013V27.897L14.3444 17.2544Z" fill="#0E76BC"/>
<path d="M17.0144 12.7484H14.3442L10.377 2.14133V0H12.2314L15.6793 9.33602L19.0917 0H21.0575V2.10339L17.0144 12.7484Z" fill="#ED217C"/>
<path d="M16.9622 17.2818L18.2972 14.9697L29.4687 16.836L31.3207 17.9078L30.3935 19.5132L20.5856 17.8319L26.9645 25.4535L25.9804 27.1561L24.1592 26.1056L16.9622 17.2818Z" fill="#FCB040"/>
<path d="M14.3966 12.7176L13.0616 15.0296L1.89011 13.1634L0.0380859 12.0939L0.965285 10.4861L10.7732 12.1674L4.39426 4.54589L5.37837 2.84326L7.19957 3.89377L14.3966 12.7176Z" fill="#00AEEF"/>
<path d="M18.2972 15.0296L16.9622 12.7175L24.164 3.97671L26.0184 2.90723L26.9456 4.51263L20.5856 12.1674L30.3769 10.4552L31.3587 12.1579L29.5374 13.2084L18.2972 15.0296Z" fill="#8DC63F"/>
<path d="M13.0614 14.9697L14.3965 17.2818L7.19469 26.0226L5.34029 27.0921L4.41309 25.4867L10.7731 17.8319L0.98174 19.5441L0 17.8438L1.8212 16.7909L13.0614 14.9697Z" fill="#ED1C24"/>
<path d="M35.4873 17.8281V26.8393H40.9888V27.6384H34.553V17.8281H35.4873Z" fill="#00AEEF"/>
<path d="M43.8963 17.8281V27.6479H42.9714V17.8281H43.8963Z" fill="#00AEEF"/>
<path d="M46.8343 17.8281L50.0261 26.6164H50.0617L53.2251 17.8281H54.2139L50.5692 27.6479H49.4831L45.8525 17.8281H46.8343Z" fill="#00AEEF"/>
<path d="M57.0404 17.8281V27.6479H56.1038V17.8281H57.0404Z" fill="#00AEEF"/>
<path d="M61.0837 17.8281L66.8058 26.1279H66.8319V17.8281H67.7686V27.6479H66.7228L61.0007 19.3482H60.9699V27.6479H60.0332V17.8281H61.0837Z" fill="#00AEEF"/>
<path d="M78.4136 27.6482L78.2903 25.8602H78.2618C78.1089 26.1922 77.9022 26.4967 77.65 26.7613C77.4182 27.0059 77.1513 27.2145 76.858 27.3803C76.56 27.5416 76.2406 27.6597 75.9094 27.7312C75.569 27.8049 75.2215 27.8415 74.8732 27.8403C74.1735 27.8552 73.4796 27.7117 72.8433 27.4206C72.2827 27.1583 71.7871 26.7753 71.392 26.2989C71.0009 25.8196 70.7069 25.2687 70.5265 24.6769C70.1403 23.4126 70.1403 22.0617 70.5265 20.7974C70.7079 20.2039 71.0018 19.6508 71.392 19.1683C71.7863 18.6899 72.282 18.3051 72.8433 18.0419C73.4796 17.7507 74.1735 17.6072 74.8732 17.6221C75.366 17.6193 75.8565 17.6888 76.3292 17.8285C77.2224 18.0834 77.9853 18.6683 78.4634 19.4647C78.7239 19.9015 78.8971 20.3847 78.9732 20.8875H78.0389C78.0044 20.5851 77.9083 20.293 77.7567 20.0291C77.5874 19.7303 77.3685 19.4624 77.1093 19.237C76.822 18.9882 76.4939 18.7909 76.1395 18.6537C75.7375 18.4936 75.3082 18.4131 74.8755 18.4166C74.2937 18.4001 73.7169 18.528 73.1966 18.7889C72.7433 19.0229 72.3504 19.359 72.0489 19.7706C71.7462 20.1874 71.522 20.6559 71.3873 21.1531C71.1027 22.1859 71.1027 23.2765 71.3873 24.3094C71.5205 24.8093 71.7448 25.2804 72.0489 25.699C72.3507 26.1109 72.7434 26.4477 73.1966 26.6831C73.7176 26.9418 74.2941 27.0688 74.8755 27.053C75.3716 27.0623 75.8645 26.9711 76.3244 26.7851C76.7358 26.6183 77.1052 26.3624 77.4058 26.0357C77.703 25.7059 77.9276 25.3173 78.065 24.8951C78.2157 24.429 78.2854 23.9406 78.2713 23.4509H74.9206V22.6518H79.0871V27.6459L78.4136 27.6482Z" fill="#00AEEF"/>
<path d="M82.7864 17.8281V26.8393H88.2879V27.6384H81.8521V17.8281H82.7864Z" fill="black"/>
<path d="M94.1191 17.8281L97.963 27.6479H96.9671L95.7695 24.6055H91.3019L90.1162 27.6598H89.125L93.0733 17.84L94.1191 17.8281ZM95.4541 23.7968L93.5571 18.7624L91.5888 23.7968H95.4541Z" fill="black"/>
<path d="M103.982 17.8282C104.38 17.8268 104.777 17.8658 105.167 17.9444C105.524 18.0134 105.864 18.1485 106.17 18.3427C106.459 18.5298 106.698 18.7846 106.865 19.085C107.156 19.6753 107.206 20.3559 107.003 20.9821C106.923 21.2196 106.804 21.4423 106.652 21.6413C106.502 21.8371 106.321 22.0069 106.116 22.144C105.904 22.2828 105.669 22.3809 105.421 22.4333V22.4713C106.006 22.5291 106.547 22.8071 106.934 23.2491C107.316 23.6984 107.518 24.2742 107.498 24.864C107.497 25.0418 107.482 25.2193 107.456 25.3951C107.427 25.6028 107.372 25.8059 107.292 25.9998C107.202 26.2194 107.081 26.4253 106.934 26.6116C106.761 26.8267 106.549 27.0063 106.308 27.1405C106.006 27.3082 105.682 27.4335 105.345 27.5128C104.896 27.616 104.437 27.6645 103.977 27.6574H99.8269V17.8282H103.982ZM103.982 22.1322C104.312 22.139 104.641 22.095 104.959 22.0017C105.208 21.9272 105.442 21.8057 105.646 21.6437C105.822 21.5009 105.963 21.3201 106.059 21.1148C106.15 20.9113 106.197 20.6906 106.196 20.4675C106.196 19.2391 105.458 18.6249 103.982 18.6249H100.764V22.1322H103.982ZM103.982 26.8488C104.314 26.8506 104.646 26.8212 104.973 26.761C105.267 26.7081 105.547 26.5977 105.798 26.4362C106.037 26.2802 106.231 26.0643 106.36 25.8101C106.507 25.5045 106.578 25.1675 106.566 24.8284C106.584 24.5543 106.533 24.28 106.416 24.0312C106.3 23.7824 106.122 23.5672 105.9 23.4056C105.456 23.0894 104.816 22.9313 103.982 22.9313H100.764V26.8512L103.982 26.8488Z" fill="black"/>
<path d="M37.1379 2.53501L39.8649 9.29101H39.891L42.4995 2.53501H44.9183V12.2576H42.9667V6.48332H42.9477L40.6238 12.2528H39.016L36.6921 6.54971H36.666V12.2528H34.7144V2.53027L37.1379 2.53501Z" fill="black"/>
<path d="M49.3195 2.53516V12.2577H47.2351V2.53516H49.3195Z" fill="black"/>
<path d="M50.645 4.28759V2.53516H58.416V4.28759H55.5703V12.253H53.4859V4.28759H50.645Z" fill="black"/>
<path d="M62.1388 2.53508V5.75064H62.1554C62.429 5.53552 62.7502 5.38915 63.0921 5.3238C63.4946 5.23048 63.9074 5.18904 64.3204 5.20049C64.6851 5.20249 65.0452 5.2805 65.378 5.42953C65.7108 5.57856 66.0088 5.79534 66.2531 6.06603C66.5434 6.39327 66.7666 6.77437 66.91 7.18768C67.2451 8.24629 67.2451 9.38256 66.91 10.4412C66.766 10.8542 66.5429 11.2352 66.2531 11.5628C66.0082 11.8326 65.71 12.0487 65.3774 12.1972C65.0447 12.3458 64.6848 12.4237 64.3204 12.426C63.8572 12.4468 63.395 12.3658 62.9664 12.1889C62.611 12.0391 62.2999 11.8007 62.0629 11.4964H62.0368V12.2553H60.2583V2.53271L62.1388 2.53508ZM64.9631 7.93229C64.9126 7.70053 64.821 7.47968 64.6928 7.28016C64.5752 7.09653 64.417 6.94238 64.2303 6.82961C64.0248 6.7204 63.7956 6.66329 63.5628 6.66329C63.33 6.66329 63.1008 6.7204 62.8953 6.82961C62.7036 6.93991 62.541 7.09438 62.421 7.28016C62.2929 7.48007 62.2007 7.70074 62.1483 7.93229C62.0905 8.18669 62.0619 8.44684 62.0629 8.70772C62.0622 8.96466 62.0909 9.22084 62.1483 9.47129C62.2007 9.70284 62.2929 9.9235 62.421 10.1234C62.541 10.3092 62.7036 10.4637 62.8953 10.574C63.1008 10.6832 63.33 10.7403 63.5628 10.7403C63.7956 10.7403 64.0248 10.6832 64.2303 10.574C64.417 10.4612 64.5752 10.307 64.6928 10.1234C64.821 9.92389 64.9126 9.70304 64.9631 9.47129C65.0224 9.22113 65.0519 8.96481 65.0508 8.70772C65.0522 8.44669 65.0227 8.18641 64.9631 7.93229Z" fill="black"/>
<path d="M68.4207 4.0884V2.53516H70.3059V4.0884H68.4207ZM70.3059 5.38789V12.2648H68.4207V5.39738L70.3059 5.38789Z" fill="black"/>
<path d="M78.2807 12.7481C78.2001 13.1119 78.0334 13.451 77.7946 13.737C77.5015 14.0758 77.1338 14.3421 76.7204 14.5148C76.1169 14.7512 75.4709 14.8594 74.8233 14.8325C74.4765 14.8308 74.1311 14.7886 73.7941 14.7068C73.4597 14.6259 73.1398 14.4939 72.8456 14.3156C72.5626 14.1401 72.3201 13.9065 72.1342 13.6302C71.9363 13.3327 71.8239 12.9865 71.8093 12.6295H73.6803C73.7082 12.7824 73.7692 12.9274 73.8589 13.0544C73.9485 13.1813 74.0648 13.2872 74.1996 13.3646C74.4742 13.5065 74.7799 13.5775 75.0889 13.571C75.3064 13.5905 75.5254 13.5577 75.7276 13.4752C75.9297 13.3927 76.1092 13.2629 76.2508 13.0967C76.5032 12.7467 76.6271 12.3204 76.6018 11.8897V10.9862H76.5757C76.3804 11.3413 76.075 11.6234 75.7054 11.7901C75.3337 11.9614 74.9291 12.0496 74.5198 12.0485C74.062 12.0608 73.6077 11.9674 73.1918 11.7758C72.8318 11.6051 72.5179 11.3506 72.2765 11.0336C72.0302 10.7042 71.8513 10.3295 71.75 9.93092C71.6381 9.49477 71.5823 9.04612 71.584 8.59585C71.5822 8.16152 71.6478 7.72954 71.7785 7.31532C71.8974 6.9199 72.0888 6.55002 72.3429 6.22449C72.5912 5.9096 72.9062 5.65368 73.2653 5.47515C73.6602 5.28312 74.0949 5.18724 74.534 5.19533C74.9435 5.18735 75.3493 5.27419 75.7197 5.44906C76.0834 5.64026 76.3815 5.93592 76.5757 6.29801H76.6018V5.39689H78.3946V11.8233C78.3873 12.1345 78.3492 12.4443 78.2807 12.7481V12.7481ZM75.696 10.4645C75.8939 10.3625 76.0665 10.2174 76.2011 10.04C76.336 9.8579 76.4372 9.6531 76.4998 9.43531C76.5671 9.20419 76.6006 8.96459 76.5994 8.7239C76.6006 8.45398 76.5744 8.18464 76.5212 7.92002C76.4728 7.68318 76.3829 7.45677 76.2556 7.2513C76.1342 7.05385 75.9644 6.89062 75.7623 6.77702C75.5257 6.65324 75.2609 6.59356 74.994 6.60391C74.7557 6.59689 74.5196 6.65163 74.3087 6.7628C74.1198 6.8687 73.9576 7.0163 73.8344 7.19438C73.7012 7.38195 73.6062 7.59384 73.5546 7.81805C73.497 8.05961 73.4683 8.30719 73.4692 8.55554C73.4693 8.80308 73.4931 9.05004 73.5404 9.29303C73.5853 9.5253 73.6712 9.74773 73.7941 9.9499C73.9127 10.1431 74.0752 10.3056 74.2684 10.4242C74.4884 10.5565 74.7423 10.6216 74.9988 10.6115C75.2389 10.6227 75.4781 10.5755 75.696 10.474V10.4645Z" fill="black"/>
<path d="M84.7805 11.3756C84.5806 11.7271 84.2765 12.008 83.9102 12.1795C83.5266 12.3454 83.1116 12.4263 82.6937 12.4166C82.225 12.4263 81.7608 12.3238 81.3397 12.1178C80.96 11.9261 80.6303 11.6484 80.3769 11.3068C80.1189 10.9521 79.9254 10.5548 79.8054 10.133C79.6764 9.68352 79.6118 9.21807 79.6133 8.75048C79.6122 8.2985 79.6769 7.84876 79.8054 7.41541C79.9256 7.00603 80.1192 6.62194 80.3769 6.2819C80.6318 5.95272 80.9555 5.68321 81.3254 5.49224C81.7364 5.28375 82.1927 5.18029 82.6534 5.19108C83.046 5.1701 83.4393 5.21826 83.8153 5.33336C84.157 5.46707 84.4567 5.68977 84.6833 5.97837H84.7117V2.53516H86.5969V12.2577H84.8042V11.3803L84.7805 11.3756ZM84.5433 7.94896C84.5039 7.72811 84.4234 7.51659 84.3062 7.32529C84.1928 7.14698 84.0393 6.99758 83.858 6.88897C83.6469 6.77095 83.4073 6.7135 83.1656 6.72297C82.9179 6.71363 82.6722 6.77096 82.4542 6.88897C82.2671 6.99721 82.1092 7.14941 81.9941 7.33241C81.8744 7.52564 81.7893 7.73831 81.7428 7.96082C81.6899 8.20225 81.6636 8.44877 81.6645 8.69594C81.6657 8.93542 81.6936 9.17402 81.7475 9.40734C81.799 9.63436 81.8905 9.85038 82.0179 10.0452C82.139 10.2313 82.3013 10.387 82.4921 10.5005C82.6966 10.6209 82.9309 10.6809 83.168 10.6736C83.4119 10.6825 83.6536 10.6251 83.8675 10.5076C84.0524 10.3986 84.2066 10.2444 84.3157 10.0595C84.4308 9.86118 84.511 9.64461 84.5528 9.4192C84.6008 9.17471 84.6246 8.92611 84.624 8.67696C84.622 8.4323 84.5958 8.18845 84.5457 7.94896H84.5433Z" fill="black"/>
<path d="M94.1806 12.253H92.376V11.589C92.0836 11.8938 91.7178 12.1183 91.3137 12.2412C90.9085 12.3642 90.4874 12.4265 90.064 12.4261C89.7547 12.4284 89.4467 12.3877 89.1486 12.3052C88.8782 12.233 88.625 12.1072 88.404 11.9353C88.191 11.764 88.0205 11.5456 87.906 11.2974C87.7808 11.008 87.7201 10.6948 87.7282 10.3797C87.7158 10.0466 87.7867 9.71565 87.9345 9.41688C88.0786 9.15723 88.2617 8.92129 88.4775 8.71733C88.7016 8.49697 88.9507 8.30358 89.2198 8.14109C89.4882 8.01184 89.7718 7.91703 90.064 7.8589C90.3382 7.79171 90.6188 7.75435 90.9011 7.74745C91.219 7.73639 91.5372 7.76105 91.8496 7.82096C91.9469 7.84735 92.0427 7.87901 92.1365 7.91581C92.1365 7.91581 92.1365 7.61228 92.1365 7.41783C92.1231 7.25283 92.0667 7.09422 91.9729 6.95778C91.924 6.86917 91.8529 6.79481 91.7666 6.742C91.6749 6.6901 91.5744 6.65553 91.4702 6.64002C91.35 6.62324 91.2287 6.61532 91.1074 6.61631C90.8682 6.60198 90.6309 6.66609 90.4315 6.79891C90.2679 6.92222 90.2489 6.96253 90.0901 7.25895H88.193C88.2214 6.81788 88.193 6.54754 88.3922 6.25349C88.5494 6.01047 88.7711 5.8159 89.0324 5.69148C89.3471 5.50908 89.6902 5.38083 90.0474 5.31207C90.4213 5.23653 90.8018 5.1984 91.1833 5.19824C91.5347 5.19945 91.8856 5.22401 92.2338 5.27175C92.5694 5.31588 92.8959 5.41271 93.2013 5.55869C93.4829 5.69481 93.727 5.89748 93.9127 6.14916C94.1103 6.44513 94.2076 6.79678 94.1901 7.15224V12.2506L94.1806 12.253ZM91.9397 9.26985C91.8802 9.20766 91.8019 9.16682 91.7168 9.15366C91.6432 9.13642 91.5688 9.12297 91.4939 9.11335C91.3761 9.09685 91.2571 9.0905 91.1382 9.09438C91.0136 9.09797 90.8894 9.10826 90.7659 9.1252C90.6497 9.12926 90.5343 9.14676 90.4221 9.17737C90.3157 9.20943 90.2155 9.25913 90.1256 9.3244C90.0406 9.38698 89.9708 9.46806 89.9217 9.56153C89.8675 9.67459 89.8415 9.79906 89.8458 9.92435C89.8424 10.0457 89.8684 10.1662 89.9217 10.2753C89.9705 10.3666 90.0425 10.4435 90.1304 10.4982C90.2241 10.5558 90.3279 10.5953 90.4363 10.6144C90.556 10.6363 90.6774 10.6474 90.7991 10.6476C91.0458 10.6609 91.2915 10.6077 91.5105 10.4935C91.6643 10.4052 91.7926 10.2786 91.8828 10.1259C91.9694 10.0055 92.027 9.86675 92.0512 9.72042C92.058 9.62288 92.0525 9.52487 92.0346 9.42874C92.0234 9.36597 91.9897 9.30944 91.9397 9.26985Z" fill="black"/>
<path d="M106.806 12.2525H105.001V11.5885C104.708 11.8927 104.343 12.1172 103.939 12.2406C103.534 12.3636 103.112 12.426 102.689 12.4256C102.38 12.4281 102.072 12.3874 101.774 12.3046C101.503 12.2329 101.25 12.1071 101.029 11.9347C100.816 11.7634 100.646 11.5451 100.531 11.2968C100.406 11.0075 100.345 10.6943 100.353 10.3791C100.347 10.049 100.421 9.72234 100.571 9.42818C100.711 9.16975 100.891 8.93457 101.103 8.731C101.326 8.50949 101.575 8.31599 101.845 8.15477C102.113 8.02551 102.397 7.9307 102.689 7.87257C102.963 7.80539 103.244 7.76802 103.526 7.76112C103.844 7.7502 104.162 7.77486 104.475 7.83463C104.572 7.86102 104.668 7.89269 104.762 7.92948C104.762 7.92948 104.762 7.62595 104.762 7.4315C104.748 7.2665 104.692 7.1079 104.598 6.97146C104.549 6.88285 104.478 6.80849 104.392 6.75567C104.3 6.70377 104.199 6.6692 104.095 6.65369C103.975 6.63691 103.854 6.62899 103.732 6.62999C103.493 6.61565 103.256 6.67976 103.057 6.81258C102.893 6.93589 102.872 6.9762 102.715 7.27262H100.818C100.847 6.83155 100.818 6.56122 101.015 6.26717C101.174 6.02455 101.396 5.83015 101.658 5.70515C101.972 5.52276 102.315 5.39451 102.672 5.32574C103.046 5.2502 103.427 5.21207 103.808 5.21191C104.16 5.21312 104.511 5.23768 104.859 5.28543C105.194 5.32955 105.521 5.42639 105.826 5.57236C106.108 5.70849 106.352 5.91115 106.538 6.16283C106.735 6.4588 106.833 6.81045 106.815 7.16591V12.2643L106.806 12.2525ZM104.565 9.2693C104.505 9.2071 104.427 9.16626 104.342 9.1531C104.268 9.13587 104.194 9.12241 104.119 9.1128C104.001 9.0963 103.882 9.08995 103.763 9.09382C103.639 9.09741 103.514 9.1077 103.391 9.12465C103.274 9.12887 103.158 9.14638 103.045 9.17682C102.939 9.20936 102.84 9.25903 102.751 9.32384C102.666 9.38642 102.596 9.46751 102.547 9.56098C102.493 9.67403 102.467 9.79851 102.471 9.92379C102.467 10.0452 102.493 10.1656 102.547 10.2748C102.596 10.3661 102.668 10.4429 102.755 10.4977C102.849 10.5553 102.953 10.5947 103.061 10.6139C103.181 10.6358 103.302 10.6469 103.424 10.6471C103.671 10.6604 103.917 10.6071 104.136 10.4929C104.289 10.4047 104.418 10.278 104.508 10.1254C104.594 10.005 104.652 9.86619 104.676 9.71986C104.68 9.62597 104.672 9.53199 104.653 9.44004C104.646 9.37404 104.615 9.31299 104.565 9.2693Z" fill="black"/>
<path d="M99.6516 10.614V12.2526H98.3118C98.0325 12.2564 97.7538 12.2262 97.4818 12.1625C97.2352 12.097 97.0018 11.9896 96.7917 11.8448C96.599 11.7137 96.4371 11.5421 96.3175 11.342C96.184 11.1558 96.1225 10.9275 96.1444 10.6994V6.64913H94.7666V5.39705H96.1444V3.81299H98.0414V5.39705H99.6611V6.65861H98.0414V10.0591C98.0414 10.3769 98.0841 10.448 98.2027 10.5334C98.3213 10.6188 98.5205 10.614 98.8382 10.614H99.6516Z" fill="black"/>
</svg>
