<svg width="108" height="30" viewBox="0 0 108 30" fill="none" xmlns="http://www.w3.org/2000/svg">
<path d="M14.3444 17.3701H17.0146L20.9818 27.9748V30.1161H19.1298L15.6795 20.7801L12.2671 30.1161H10.3013V28.0127L14.3444 17.3701Z" fill="#656565"/>
<path d="M17.0144 12.8646H14.3442L10.377 2.25754V0.116211H12.2314L15.6793 9.45223L19.0917 0.116211H21.0575V2.2196L17.0144 12.8646Z" fill="#878787"/>
<path d="M16.9624 17.399L18.2975 15.0869L29.4689 16.9532L31.321 18.025L30.3938 19.6304L20.5858 17.9491L26.9648 25.5707L25.9807 27.2733L24.1595 26.2228L16.9624 17.399Z" fill="#9E9E9E"/>
<path d="M14.3964 12.8338L13.0613 15.1459L1.88987 13.2796L0.0378418 12.2101L0.965041 10.6023L10.773 12.2836L4.39402 4.6621L5.37813 2.95947L7.19933 4.00998L14.3964 12.8338Z" fill="#787878"/>
<path d="M18.2975 15.1458L16.9624 12.8337L24.1642 4.09292L26.0186 3.02344L26.9458 4.62884L20.5858 12.2836L30.3772 10.5715L31.3589 12.2741L29.5377 13.3246L18.2975 15.1458Z" fill="#838383"/>
<path d="M13.0614 15.0869L14.3965 17.399L7.19469 26.1398L5.34029 27.2093L4.41309 25.6039L10.7731 17.9491L0.98174 19.6613L0 17.961L1.8212 16.9081L13.0614 15.0869Z" fill="#858585"/>
<path d="M35.4873 17.8232V26.8344H40.9888V27.6335H34.553V17.8232H35.4873Z" fill="#787878"/>
<path d="M43.8963 17.8232V27.643H42.9714V17.8232H43.8963Z" fill="#787878"/>
<path d="M46.8343 17.8232L50.0261 26.6115H50.0617L53.2251 17.8232H54.2139L50.5692 27.643H49.4831L45.8525 17.8232H46.8343Z" fill="#787878"/>
<path d="M57.0404 17.8232V27.643H56.1038V17.8232H57.0404Z" fill="#787878"/>
<path d="M61.0837 17.8232L66.8058 26.123H66.8319V17.8232H67.7686V27.643H66.7228L61.0007 19.3433H60.9699V27.643H60.0332V17.8232H61.0837Z" fill="#787878"/>
<path d="M78.4136 27.6438L78.2903 25.8558H78.2618C78.1089 26.1878 77.9022 26.4923 77.65 26.757C77.4182 27.0015 77.1513 27.2101 76.858 27.3759C76.56 27.5372 76.2406 27.6553 75.9094 27.7268C75.569 27.8005 75.2215 27.8371 74.8732 27.8359C74.1735 27.8508 73.4796 27.7074 72.8433 27.4162C72.2827 27.1539 71.7871 26.7709 71.392 26.2945C71.0009 25.8152 70.7069 25.2643 70.5265 24.6725C70.1403 23.4082 70.1403 22.0573 70.5265 20.793C70.7079 20.1995 71.0018 19.6464 71.392 19.1639C71.7863 18.6855 72.282 18.3007 72.8433 18.0375C73.4796 17.7463 74.1735 17.6028 74.8732 17.6178C75.366 17.6149 75.8565 17.6844 76.3292 17.8241C77.2224 18.079 77.9853 18.6639 78.4634 19.4603C78.7239 19.8971 78.8971 20.3803 78.9732 20.8831H78.0389C78.0044 20.5807 77.9083 20.2886 77.7567 20.0247C77.5874 19.7259 77.3685 19.458 77.1093 19.2326C76.822 18.9838 76.4939 18.7865 76.1395 18.6493C75.7375 18.4892 75.3082 18.4087 74.8755 18.4122C74.2937 18.3957 73.7169 18.5236 73.1966 18.7845C72.7433 19.0185 72.3504 19.3546 72.0489 19.7662C71.7462 20.183 71.522 20.6515 71.3873 21.1487C71.1027 22.1815 71.1027 23.2721 71.3873 24.305C71.5205 24.8049 71.7448 25.276 72.0489 25.6946C72.3507 26.1065 72.7434 26.4433 73.1966 26.6787C73.7176 26.9374 74.2941 27.0645 74.8755 27.0486C75.3716 27.0579 75.8645 26.9667 76.3244 26.7807C76.7358 26.6139 77.1052 26.358 77.4058 26.0313C77.703 25.7015 77.9276 25.3129 78.065 24.8907C78.2157 24.4246 78.2854 23.9362 78.2713 23.4465H74.9206V22.6474H79.0871V27.6415L78.4136 27.6438Z" fill="#787878"/>
<path d="M82.7864 17.8232V26.8344H88.2879V27.6335H81.8521V17.8232H82.7864Z" fill="black"/>
<path d="M94.1191 17.8232L97.963 27.643H96.9671L95.7695 24.6006H91.3019L90.1162 27.6549H89.125L93.0733 17.8351L94.1191 17.8232ZM95.4541 23.7919L93.5571 18.7575L91.5888 23.7919H95.4541Z" fill="black"/>
<path d="M103.982 17.8233C104.38 17.822 104.777 17.8609 105.167 17.9395C105.524 18.0085 105.864 18.1436 106.17 18.3379C106.459 18.5249 106.698 18.7797 106.865 19.0801C107.156 19.6704 107.206 20.351 107.003 20.9772C106.923 21.2147 106.804 21.4374 106.652 21.6364C106.502 21.8322 106.321 22.0021 106.116 22.1391C105.904 22.2779 105.669 22.3761 105.421 22.4284V22.4664C106.006 22.5242 106.547 22.8023 106.934 23.2442C107.316 23.6935 107.518 24.2693 107.498 24.8591C107.497 25.0369 107.482 25.2144 107.456 25.3903C107.427 25.5979 107.372 25.801 107.292 25.995C107.202 26.2146 107.081 26.4205 106.934 26.6068C106.761 26.8218 106.549 27.0014 106.308 27.1356C106.006 27.3034 105.682 27.4287 105.345 27.5079C104.896 27.6111 104.437 27.6597 103.977 27.6525H99.8269V17.8233H103.982ZM103.982 22.1273C104.312 22.1341 104.641 22.0901 104.959 21.9969C105.208 21.9224 105.442 21.8008 105.646 21.6388C105.822 21.4961 105.963 21.3152 106.059 21.11C106.15 20.9064 106.197 20.6857 106.196 20.4626C106.196 19.2342 105.458 18.62 103.982 18.62H100.764V22.1273H103.982ZM103.982 26.8439C104.314 26.8457 104.646 26.8163 104.973 26.7562C105.267 26.7032 105.547 26.5928 105.798 26.4313C106.037 26.2753 106.231 26.0595 106.36 25.8052C106.507 25.4996 106.578 25.1626 106.566 24.8235C106.584 24.5494 106.533 24.2751 106.416 24.0263C106.3 23.7775 106.122 23.5623 105.9 23.4007C105.456 23.0845 104.816 22.9264 103.982 22.9264H100.764V26.8463L103.982 26.8439Z" fill="black"/>
<path d="M37.1379 2.53062L39.8649 9.28661H39.891L42.4995 2.53062H44.9183V12.2532H42.9667V6.47892H42.9477L40.6238 12.2484H39.016L36.6921 6.54532H36.666V12.2484H34.7144V2.52588L37.1379 2.53062Z" fill="black"/>
<path d="M49.3195 2.53076V12.2533H47.2351V2.53076H49.3195Z" fill="black"/>
<path d="M50.645 4.2832V2.53076H58.416V4.2832H55.5703V12.2486H53.4859V4.2832H50.645Z" fill="black"/>
<path d="M62.1388 2.53069V5.74624H62.1554C62.429 5.53113 62.7502 5.38476 63.0921 5.3194C63.4946 5.22608 63.9074 5.18465 64.3204 5.19609C64.6851 5.1981 65.0452 5.27611 65.378 5.42514C65.7108 5.57417 66.0088 5.79095 66.2531 6.06164C66.5434 6.38888 66.7666 6.76998 66.91 7.18328C67.2451 8.24189 67.2451 9.37817 66.91 10.4368C66.766 10.8498 66.5429 11.2308 66.2531 11.5584C66.0082 11.8282 65.71 12.0443 65.3774 12.1928C65.0447 12.3414 64.6848 12.4193 64.3204 12.4216C63.8572 12.4424 63.395 12.3614 62.9664 12.1845C62.611 12.0347 62.2999 11.7963 62.0629 11.492H62.0368V12.2509H60.2583V2.52832L62.1388 2.53069ZM64.9631 7.92789C64.9126 7.69614 64.821 7.47529 64.6928 7.27577C64.5752 7.09213 64.417 6.93798 64.2303 6.82521C64.0248 6.71601 63.7956 6.6589 63.5628 6.6589C63.33 6.6589 63.1008 6.71601 62.8953 6.82521C62.7036 6.93552 62.541 7.08998 62.421 7.27577C62.2929 7.47568 62.2007 7.69634 62.1483 7.92789C62.0905 8.18229 62.0619 8.44244 62.0629 8.70332C62.0622 8.96026 62.0909 9.21645 62.1483 9.4669C62.2007 9.69844 62.2929 9.91911 62.421 10.119C62.541 10.3048 62.7036 10.4593 62.8953 10.5696C63.1008 10.6788 63.33 10.7359 63.5628 10.7359C63.7956 10.7359 64.0248 10.6788 64.2303 10.5696C64.417 10.4568 64.5752 10.3027 64.6928 10.119C64.821 9.9195 64.9126 9.69865 64.9631 9.4669C65.0224 9.21674 65.0519 8.96042 65.0508 8.70332C65.0522 8.44229 65.0227 8.18202 64.9631 7.92789Z" fill="black"/>
<path d="M68.4207 4.084V2.53076H70.3059V4.084H68.4207ZM70.3059 5.3835V12.2604H68.4207V5.39299L70.3059 5.3835Z" fill="black"/>
<path d="M78.2807 12.7437C78.2001 13.1075 78.0334 13.4466 77.7946 13.7326C77.5015 14.0714 77.1338 14.3377 76.7204 14.5104C76.1169 14.7468 75.4709 14.855 74.8233 14.8281C74.4765 14.8264 74.1311 14.7842 73.7941 14.7024C73.4597 14.6215 73.1398 14.4895 72.8456 14.3112C72.5626 14.1357 72.3201 13.9021 72.1342 13.6258C71.9363 13.3283 71.8239 12.9822 71.8093 12.6251H73.6803C73.7082 12.778 73.7692 12.923 73.8589 13.05C73.9485 13.1769 74.0648 13.2828 74.1996 13.3603C74.4742 13.5021 74.7799 13.5731 75.0889 13.5666C75.3064 13.5861 75.5254 13.5533 75.7276 13.4708C75.9297 13.3883 76.1092 13.2585 76.2508 13.0923C76.5032 12.7423 76.6271 12.316 76.6018 11.8853V10.9818H76.5757C76.3804 11.3369 76.075 11.6191 75.7054 11.7857C75.3337 11.957 74.9291 12.0452 74.5198 12.0441C74.062 12.0564 73.6077 11.9631 73.1918 11.7714C72.8318 11.6007 72.5179 11.3462 72.2765 11.0292C72.0302 10.6998 71.8513 10.3251 71.75 9.92653C71.6381 9.49038 71.5823 9.04173 71.584 8.59145C71.5822 8.15712 71.6478 7.72514 71.7785 7.31092C71.8974 6.91551 72.0888 6.54562 72.3429 6.2201C72.5912 5.90521 72.9062 5.64928 73.2653 5.47075C73.6602 5.27873 74.0949 5.18285 74.534 5.19093C74.9435 5.18296 75.3493 5.2698 75.7197 5.44467C76.0834 5.63587 76.3815 5.93153 76.5757 6.29361H76.6018V5.3925H78.3946V11.8189C78.3873 12.1302 78.3492 12.4399 78.2807 12.7437V12.7437ZM75.696 10.4601C75.8939 10.3581 76.0665 10.213 76.2011 10.0356C76.336 9.85351 76.4372 9.64871 76.4998 9.43092C76.5671 9.1998 76.6006 8.9602 76.5994 8.71951C76.6006 8.44959 76.5744 8.18025 76.5212 7.91562C76.4728 7.67878 76.3829 7.45237 76.2556 7.2469C76.1342 7.04946 75.9644 6.88623 75.7623 6.77263C75.5257 6.64885 75.2609 6.58916 74.994 6.59952C74.7557 6.5925 74.5196 6.64723 74.3087 6.7584C74.1198 6.8643 73.9576 7.01191 73.8344 7.18998C73.7012 7.37755 73.6062 7.58945 73.5546 7.81365C73.497 8.05522 73.4683 8.3028 73.4692 8.55115C73.4693 8.79869 73.4931 9.04565 73.5404 9.28863C73.5853 9.5209 73.6712 9.74333 73.7941 9.9455C73.9127 10.1387 74.0752 10.3012 74.2684 10.4198C74.4884 10.5521 74.7423 10.6172 74.9988 10.6071C75.2389 10.6183 75.4781 10.5711 75.696 10.4696V10.4601Z" fill="black"/>
<path d="M84.7805 11.3712C84.5806 11.7227 84.2765 12.0036 83.9102 12.1751C83.5266 12.341 83.1116 12.4219 82.6937 12.4122C82.225 12.4219 81.7608 12.3194 81.3397 12.1134C80.96 11.9217 80.6303 11.644 80.3769 11.3024C80.1189 10.9477 79.9254 10.5504 79.8054 10.1286C79.6764 9.67912 79.6118 9.21367 79.6133 8.74609C79.6122 8.2941 79.6769 7.84436 79.8054 7.41101C79.9256 7.00164 80.1192 6.61755 80.3769 6.27751C80.6318 5.94833 80.9555 5.67882 81.3254 5.48784C81.7364 5.27936 82.1927 5.17589 82.6534 5.18668C83.046 5.16571 83.4393 5.21387 83.8153 5.32896C84.157 5.46267 84.4567 5.68538 84.6833 5.97397H84.7117V2.53076H86.5969V12.2533H84.8042V11.3759L84.7805 11.3712ZM84.5433 7.94457C84.5039 7.72372 84.4234 7.51219 84.3062 7.3209C84.1928 7.14258 84.0393 6.99318 83.858 6.88457C83.6469 6.76655 83.4073 6.70911 83.1656 6.71857C82.9179 6.70924 82.6722 6.76657 82.4542 6.88457C82.2671 6.99282 82.1092 7.14502 81.9941 7.32801C81.8744 7.52124 81.7893 7.73391 81.7428 7.95642C81.6899 8.19785 81.6636 8.44438 81.6645 8.69154C81.6657 8.93102 81.6936 9.16962 81.7475 9.40295C81.799 9.62997 81.8905 9.84599 82.0179 10.0408C82.139 10.2269 82.3013 10.3826 82.4921 10.4961C82.6966 10.6165 82.9309 10.6765 83.168 10.6692C83.4119 10.6781 83.6536 10.6207 83.8675 10.5033C84.0524 10.3942 84.2066 10.24 84.3157 10.0551C84.4308 9.85679 84.511 9.64022 84.5528 9.4148C84.6008 9.17032 84.6246 8.92171 84.624 8.67257C84.622 8.42791 84.5958 8.18405 84.5457 7.94457H84.5433Z" fill="black"/>
<path d="M94.1806 12.2481H92.376V11.5842C92.0836 11.8889 91.7178 12.1135 91.3137 12.2363C90.9085 12.3593 90.4874 12.4216 90.064 12.4212C89.7547 12.4236 89.4467 12.3828 89.1486 12.3003C88.8782 12.2281 88.625 12.1023 88.404 11.9304C88.191 11.7591 88.0205 11.5407 87.906 11.2925C87.7808 11.0031 87.7201 10.69 87.7282 10.3748C87.7158 10.0417 87.7867 9.71077 87.9345 9.412C88.0786 9.15235 88.2617 8.91641 88.4775 8.71245C88.7016 8.49209 88.9507 8.2987 89.2198 8.13621C89.4882 8.00696 89.7718 7.91214 90.064 7.85402C90.3382 7.78683 90.6188 7.74946 90.9011 7.74256C91.219 7.73151 91.5372 7.75616 91.8496 7.81608C91.9469 7.84247 92.0427 7.87413 92.1365 7.91093C92.1365 7.91093 92.1365 7.60739 92.1365 7.41294C92.1231 7.24794 92.0667 7.08934 91.9729 6.9529C91.924 6.86429 91.8529 6.78993 91.7666 6.73711C91.6749 6.68522 91.5744 6.65065 91.4702 6.63514C91.35 6.61835 91.2287 6.61043 91.1074 6.61143C90.8682 6.5971 90.6309 6.6612 90.4315 6.79402C90.2679 6.91733 90.2489 6.95765 90.0901 7.25407H88.193C88.2214 6.81299 88.193 6.54266 88.3922 6.24861C88.5494 6.00559 88.7711 5.81102 89.0324 5.6866C89.3471 5.5042 89.6902 5.37595 90.0474 5.30719C90.4213 5.23165 90.8018 5.19352 91.1833 5.19336C91.5347 5.19457 91.8856 5.21912 92.2338 5.26687C92.5694 5.311 92.8959 5.40783 93.2013 5.5538C93.4829 5.68993 93.727 5.8926 93.9127 6.14427C94.1103 6.44025 94.2076 6.79189 94.1901 7.14735V12.2458L94.1806 12.2481ZM91.9397 9.26497C91.8802 9.20277 91.8019 9.16194 91.7168 9.14878C91.6432 9.13154 91.5688 9.11809 91.4939 9.10847C91.3761 9.09197 91.2571 9.08562 91.1382 9.08949C91.0136 9.09308 90.8894 9.10337 90.7659 9.12032C90.6497 9.12437 90.5343 9.14188 90.4221 9.17249C90.3157 9.20454 90.2155 9.25424 90.1256 9.31951C90.0406 9.38209 89.9708 9.46318 89.9217 9.55665C89.8675 9.66971 89.8415 9.79418 89.8458 9.91947C89.8424 10.0409 89.8684 10.1613 89.9217 10.2704C89.9705 10.3617 90.0425 10.4386 90.1304 10.4933C90.2241 10.551 90.3279 10.5904 90.4363 10.6095C90.556 10.6314 90.6774 10.6425 90.7991 10.6427C91.0458 10.6561 91.2915 10.6028 91.5105 10.4886C91.6643 10.4004 91.7926 10.2737 91.8828 10.121C91.9694 10.0006 92.027 9.86186 92.0512 9.71553C92.058 9.618 92.0525 9.51998 92.0346 9.42385C92.0234 9.36108 91.9897 9.30456 91.9397 9.26497Z" fill="black"/>
<path d="M106.806 12.2476H105.001V11.5836C104.708 11.8879 104.343 12.1123 103.939 12.2357C103.534 12.3587 103.112 12.4211 102.689 12.4207C102.38 12.4232 102.072 12.3825 101.774 12.2998C101.503 12.2281 101.25 12.1022 101.029 11.9298C100.816 11.7585 100.646 11.5402 100.531 11.2919C100.406 11.0026 100.345 10.6894 100.353 10.3742C100.347 10.0441 100.421 9.71745 100.571 9.4233C100.711 9.16487 100.891 8.92969 101.103 8.72612C101.326 8.5046 101.575 8.3111 101.845 8.14988C102.113 8.02063 102.397 7.92582 102.689 7.86769C102.963 7.8005 103.244 7.76313 103.526 7.75624C103.844 7.74532 104.162 7.76997 104.475 7.82975C104.572 7.85614 104.668 7.8878 104.762 7.9246C104.762 7.9246 104.762 7.62107 104.762 7.42661C104.748 7.26162 104.692 7.10302 104.598 6.96658C104.549 6.87797 104.478 6.8036 104.392 6.75078C104.3 6.69889 104.199 6.66432 104.095 6.64881C103.975 6.63202 103.854 6.6241 103.732 6.6251C103.493 6.61077 103.256 6.67488 103.057 6.80769C102.893 6.93101 102.872 6.97132 102.715 7.26774H100.818C100.847 6.82667 100.818 6.55633 101.015 6.26229C101.174 6.01967 101.396 5.82526 101.658 5.70027C101.972 5.51787 102.315 5.38962 102.672 5.32086C103.046 5.24532 103.427 5.20719 103.808 5.20703C104.16 5.20824 104.511 5.2328 104.859 5.28054C105.194 5.32467 105.521 5.4215 105.826 5.56747C106.108 5.7036 106.352 5.90627 106.538 6.15795C106.735 6.45392 106.833 6.80557 106.815 7.16102V12.2594L106.806 12.2476ZM104.565 9.26441C104.505 9.20222 104.427 9.16138 104.342 9.14822C104.268 9.13098 104.194 9.11753 104.119 9.10791C104.001 9.09141 103.882 9.08506 103.763 9.08894C103.639 9.09253 103.514 9.10282 103.391 9.11976C103.274 9.12399 103.158 9.14149 103.045 9.17193C102.939 9.20448 102.84 9.25415 102.751 9.31896C102.666 9.38154 102.596 9.46262 102.547 9.55609C102.493 9.66915 102.467 9.79362 102.471 9.91891C102.467 10.0403 102.493 10.1607 102.547 10.2699C102.596 10.3612 102.668 10.4381 102.755 10.4928C102.849 10.5504 102.953 10.5898 103.061 10.609C103.181 10.6309 103.302 10.642 103.424 10.6422C103.671 10.6555 103.917 10.6023 104.136 10.488C104.289 10.3998 104.418 10.2732 104.508 10.1205C104.594 10.0001 104.652 9.86131 104.676 9.71498C104.68 9.62109 104.672 9.52711 104.653 9.43515C104.646 9.36915 104.615 9.3081 104.565 9.26441Z" fill="black"/>
<path d="M99.6516 10.6096V12.2482H98.3118C98.0325 12.2521 97.7538 12.2218 97.4818 12.1581C97.2352 12.0927 97.0018 11.9852 96.7917 11.8404C96.599 11.7093 96.4371 11.5377 96.3175 11.3376C96.184 11.1514 96.1225 10.9231 96.1444 10.695V6.64473H94.7666V5.39266H96.1444V3.80859H98.0414V5.39266H99.6611V6.65422H98.0414V10.0547C98.0414 10.3725 98.0841 10.4436 98.2027 10.529C98.3213 10.6144 98.5205 10.6096 98.8382 10.6096H99.6516Z" fill="black"/>
</svg>
