<svg width="108" height="30" viewBox="0 0 108 30" fill="none" xmlns="http://www.w3.org/2000/svg">
<path d="M14.3444 17.4863H17.0146L20.9818 28.091V30.2324H19.1298L15.6795 20.8963L12.2671 30.2324H10.3013V28.129L14.3444 17.4863Z" fill="#999999"/>
<path d="M17.0144 12.9808H14.3442L10.377 2.37375V0.232422H12.2314L15.6793 9.56844L19.0917 0.232422H21.0575V2.33581L17.0144 12.9808Z" fill="#787878"/>
<path d="M16.9624 17.5152L18.2975 15.2031L29.4689 17.0694L31.321 18.1412L30.3938 19.7466L20.5858 18.0653L26.9648 25.6869L25.9807 27.3895L24.1595 26.339L16.9624 17.5152Z" fill="#616161"/>
<path d="M14.3964 12.95L13.0613 15.2621L1.88987 13.3958L0.0378418 12.3263L0.965041 10.7186L10.773 12.3998L4.39402 4.77832L5.37813 3.07568L7.19933 4.12619L14.3964 12.95Z" fill="#878787"/>
<path d="M18.2975 15.262L16.9624 12.9499L24.1642 4.20913L26.0186 3.13965L26.9458 4.74506L20.5858 12.3998L30.3772 10.6877L31.3589 12.3903L29.5377 13.4408L18.2975 15.262Z" fill="#7D7D7D"/>
<path d="M13.0614 15.2031L14.3965 17.5152L7.19469 26.256L5.34029 27.3255L4.41309 25.7201L10.7731 18.0653L0.98174 19.7775L0 18.0772L1.8212 17.0243L13.0614 15.2031Z" fill="#7A7A7A"/>
<path d="M35.4873 17.9443V26.9555H40.9888V27.7546H34.553V17.9443H35.4873Z" fill="#878787"/>
<path d="M43.8963 17.9443V27.7641H42.9714V17.9443H43.8963Z" fill="#878787"/>
<path d="M46.8343 17.9443L50.0261 26.7326H50.0617L53.2251 17.9443H54.2139L50.5692 27.7641H49.4831L45.8525 17.9443H46.8343Z" fill="#878787"/>
<path d="M57.0404 17.9443V27.7641H56.1038V17.9443H57.0404Z" fill="#878787"/>
<path d="M61.0837 17.9443L66.8058 26.2441H66.8319V17.9443H67.7686V27.7641H66.7228L61.0007 19.4644H60.9699V27.7641H60.0332V17.9443H61.0837Z" fill="#878787"/>
<path d="M78.4136 27.7644L78.2903 25.9764H78.2618C78.1089 26.3085 77.9022 26.6129 77.65 26.8776C77.4182 27.1221 77.1513 27.3307 76.858 27.4965C76.56 27.6578 76.2406 27.776 75.9094 27.8474C75.569 27.9212 75.2215 27.9577 74.8732 27.9565C74.1735 27.9714 73.4796 27.828 72.8433 27.5368C72.2827 27.2745 71.7871 26.8915 71.392 26.4151C71.0009 25.9358 70.7069 25.3849 70.5265 24.7931C70.1403 23.5288 70.1403 22.1779 70.5265 20.9136C70.7079 20.3201 71.0018 19.767 71.392 19.2845C71.7863 18.8061 72.282 18.4213 72.8433 18.1581C73.4796 17.8669 74.1735 17.7234 74.8732 17.7384C75.366 17.7355 75.8565 17.805 76.3292 17.9447C77.2224 18.1996 77.9853 18.7845 78.4634 19.5809C78.7239 20.0177 78.8971 20.5009 78.9732 21.0037H78.0389C78.0044 20.7013 77.9083 20.4092 77.7567 20.1453C77.5874 19.8465 77.3685 19.5786 77.1093 19.3533C76.822 19.1044 76.4939 18.9071 76.1395 18.7699C75.7375 18.6098 75.3082 18.5293 74.8755 18.5328C74.2937 18.5163 73.7169 18.6442 73.1966 18.9051C72.7433 19.1391 72.3504 19.4752 72.0489 19.8868C71.7462 20.3036 71.522 20.7721 71.3873 21.2693C71.1027 22.3021 71.1027 23.3927 71.3873 24.4256C71.5205 24.9255 71.7448 25.3966 72.0489 25.8152C72.3507 26.2271 72.7434 26.5639 73.1966 26.7993C73.7176 27.058 74.2941 27.1851 74.8755 27.1692C75.3716 27.1785 75.8645 27.0873 76.3244 26.9013C76.7358 26.7345 77.1052 26.4786 77.4058 26.1519C77.703 25.8221 77.9276 25.4335 78.065 25.0113C78.2157 24.5452 78.2854 24.0568 78.2713 23.5672H74.9206V22.768H79.0871V27.7621L78.4136 27.7644Z" fill="#878787"/>
<path d="M82.7864 17.9443V26.9555H88.2879V27.7546H81.8521V17.9443H82.7864Z" fill="white"/>
<path d="M94.1191 17.9443L97.963 27.7641H96.9671L95.7695 24.7217H91.3019L90.1162 27.776H89.125L93.0733 17.9562L94.1191 17.9443ZM95.4541 23.913L93.5571 18.8786L91.5888 23.913H95.4541Z" fill="white"/>
<path d="M103.982 17.9444C104.38 17.9431 104.777 17.982 105.167 18.0606C105.524 18.1296 105.864 18.2647 106.17 18.4589C106.459 18.646 106.698 18.9008 106.865 19.2012C107.156 19.7915 107.206 20.4721 107.003 21.0983C106.923 21.3358 106.804 21.5585 106.652 21.7575C106.502 21.9533 106.321 22.1231 106.116 22.2602C105.904 22.399 105.669 22.4971 105.421 22.5495V22.5875C106.006 22.6453 106.547 22.9234 106.934 23.3653C107.316 23.8146 107.518 24.3904 107.498 24.9802C107.497 25.158 107.482 25.3355 107.456 25.5114C107.427 25.719 107.372 25.9221 107.292 26.1161C107.202 26.3356 107.081 26.5416 106.934 26.7279C106.761 26.9429 106.549 27.1225 106.308 27.2567C106.006 27.4245 105.682 27.5497 105.345 27.629C104.896 27.7322 104.437 27.7808 103.977 27.7736H99.8269V17.9444H103.982ZM103.982 22.2484C104.312 22.2552 104.641 22.2112 104.959 22.1179C105.208 22.0434 105.442 21.9219 105.646 21.7599C105.822 21.6172 105.963 21.4363 106.059 21.2311C106.15 21.0275 106.197 20.8068 106.196 20.5837C106.196 19.3553 105.458 18.7411 103.982 18.7411H100.764V22.2484H103.982ZM103.982 26.965C104.314 26.9668 104.646 26.9374 104.973 26.8773C105.267 26.8243 105.547 26.7139 105.798 26.5524C106.037 26.3964 106.231 26.1806 106.36 25.9263C106.507 25.6207 106.578 25.2837 106.566 24.9446C106.584 24.6705 106.533 24.3962 106.416 24.1474C106.3 23.8986 106.122 23.6834 105.9 23.5218C105.456 23.2056 104.816 23.0475 103.982 23.0475H100.764V26.9674L103.982 26.965Z" fill="white"/>
<path d="M37.1379 2.65122L39.8649 9.40722H39.891L42.4995 2.65122H44.9183V12.3738H42.9667V6.59953H42.9477L40.6238 12.369H39.016L36.6921 6.66593H36.666V12.369H34.7144V2.64648L37.1379 2.65122Z" fill="white"/>
<path d="M49.3195 2.65186V12.3744H47.2351V2.65186H49.3195Z" fill="white"/>
<path d="M50.645 4.40429V2.65186H58.416V4.40429H55.5703V12.3697H53.4859V4.40429H50.645Z" fill="white"/>
<path d="M62.1388 2.65129V5.86685H62.1554C62.429 5.65173 62.7502 5.50536 63.0921 5.44001C63.4946 5.34669 63.9074 5.30525 64.3204 5.3167C64.6851 5.31871 65.0452 5.39671 65.378 5.54574C65.7108 5.69478 66.0088 5.91155 66.2531 6.18224C66.5434 6.50948 66.7666 6.89058 66.91 7.30389C67.2451 8.3625 67.2451 9.49878 66.91 10.5574C66.766 10.9704 66.5429 11.3514 66.2531 11.679C66.0082 11.9488 65.71 12.1649 65.3774 12.3134C65.0447 12.462 64.6848 12.5399 64.3204 12.5422C63.8572 12.563 63.395 12.4821 62.9664 12.3051C62.611 12.1553 62.2999 11.9169 62.0629 11.6126H62.0368V12.3715H60.2583V2.64893L62.1388 2.65129ZM64.9631 8.0485C64.9126 7.81675 64.821 7.5959 64.6928 7.39637C64.5752 7.21274 64.417 7.05859 64.2303 6.94582C64.0248 6.83661 63.7956 6.7795 63.5628 6.7795C63.33 6.7795 63.1008 6.83661 62.8953 6.94582C62.7036 7.05612 62.541 7.21059 62.421 7.39637C62.2929 7.59629 62.2007 7.81695 62.1483 8.0485C62.0905 8.3029 62.0619 8.56305 62.0629 8.82393C62.0622 9.08087 62.0909 9.33705 62.1483 9.5875C62.2007 9.81905 62.2929 10.0397 62.421 10.2396C62.541 10.4254 62.7036 10.5799 62.8953 10.6902C63.1008 10.7994 63.33 10.8565 63.5628 10.8565C63.7956 10.8565 64.0248 10.7994 64.2303 10.6902C64.417 10.5774 64.5752 10.4233 64.6928 10.2396C64.821 10.0401 64.9126 9.81925 64.9631 9.5875C65.0224 9.33734 65.0519 9.08103 65.0508 8.82393C65.0522 8.5629 65.0227 8.30263 64.9631 8.0485Z" fill="white"/>
<path d="M68.4207 4.2051V2.65186H70.3059V4.2051H68.4207ZM70.3059 5.50459V12.3815H68.4207V5.51408L70.3059 5.50459Z" fill="white"/>
<path d="M78.2807 12.8643C78.2001 13.2281 78.0334 13.5672 77.7946 13.8532C77.5015 14.192 77.1338 14.4583 76.7204 14.631C76.1169 14.8674 75.4709 14.9756 74.8233 14.9487C74.4765 14.947 74.1311 14.9048 73.7941 14.823C73.4597 14.7421 73.1398 14.6101 72.8456 14.4318C72.5626 14.2563 72.3201 14.0227 72.1342 13.7464C71.9363 13.4489 71.8239 13.1028 71.8093 12.7457H73.6803C73.7082 12.8986 73.7692 13.0436 73.8589 13.1706C73.9485 13.2975 74.0648 13.4034 74.1996 13.4809C74.4742 13.6227 74.7799 13.6937 75.0889 13.6872C75.3064 13.7067 75.5254 13.6739 75.7276 13.5914C75.9297 13.5089 76.1092 13.3791 76.2508 13.2129C76.5032 12.8629 76.6271 12.4366 76.6018 12.0059V11.1024H76.5757C76.3804 11.4575 76.075 11.7397 75.7054 11.9063C75.3337 12.0776 74.9291 12.1658 74.5198 12.1648C74.062 12.177 73.6077 12.0837 73.1918 11.892C72.8318 11.7213 72.5179 11.4668 72.2765 11.1498C72.0302 10.8204 71.8513 10.4457 71.75 10.0471C71.6381 9.61098 71.5823 9.16233 71.584 8.71206C71.5822 8.27773 71.6478 7.84575 71.7785 7.43153C71.8974 7.03611 72.0888 6.66623 72.3429 6.34071C72.5912 6.02581 72.9062 5.76989 73.2653 5.59136C73.6602 5.39934 74.0949 5.30345 74.534 5.31154C74.9435 5.30356 75.3493 5.3904 75.7197 5.56528C76.0834 5.75647 76.3815 6.05214 76.5757 6.41422H76.6018V5.51311H78.3946V11.9395C78.3873 12.2508 78.3492 12.5605 78.2807 12.8643V12.8643ZM75.696 10.5807C75.8939 10.4787 76.0665 10.3336 76.2011 10.1562C76.336 9.97411 76.4372 9.76932 76.4998 9.55152C76.5671 9.3204 76.6006 9.0808 76.5994 8.84011C76.6006 8.57019 76.5744 8.30085 76.5212 8.03623C76.4728 7.79939 76.3829 7.57298 76.2556 7.36751C76.1342 7.17006 75.9644 7.00683 75.7623 6.89324C75.5257 6.76945 75.2609 6.70977 74.994 6.72012C74.7557 6.7131 74.5196 6.76784 74.3087 6.87901C74.1198 6.98491 73.9576 7.13251 73.8344 7.31059C73.7012 7.49816 73.6062 7.71005 73.5546 7.93426C73.497 8.17582 73.4683 8.4234 73.4692 8.67175C73.4693 8.91929 73.4931 9.16625 73.5404 9.40924C73.5853 9.64151 73.6712 9.86394 73.7941 10.0661C73.9127 10.2593 74.0752 10.4218 74.2684 10.5404C74.4884 10.6727 74.7423 10.7378 74.9988 10.7277C75.2389 10.7389 75.4781 10.6917 75.696 10.5902V10.5807Z" fill="white"/>
<path d="M84.7805 11.4923C84.5806 11.8438 84.2765 12.1247 83.9102 12.2962C83.5266 12.4621 83.1116 12.543 82.6937 12.5333C82.225 12.543 81.7608 12.4405 81.3397 12.2345C80.96 12.0428 80.6303 11.7651 80.3769 11.4235C80.1189 11.0688 79.9254 10.6715 79.8054 10.2497C79.6764 9.80022 79.6118 9.33477 79.6133 8.86718C79.6122 8.4152 79.6769 7.96546 79.8054 7.53211C79.9256 7.12273 80.1192 6.73864 80.3769 6.3986C80.6318 6.06942 80.9555 5.79991 81.3254 5.60893C81.7364 5.40045 82.1927 5.29699 82.6534 5.30777C83.046 5.2868 83.4393 5.33496 83.8153 5.45006C84.157 5.58376 84.4567 5.80647 84.6833 6.09507H84.7117V2.65186H86.5969V12.3744H84.8042V11.497L84.7805 11.4923ZM84.5433 8.06566C84.5039 7.84481 84.4234 7.63329 84.3062 7.44199C84.1928 7.26368 84.0393 7.11428 83.858 7.00567C83.6469 6.88765 83.4073 6.8302 83.1656 6.83967C82.9179 6.83033 82.6722 6.88766 82.4542 7.00567C82.2671 7.11391 82.1092 7.26611 81.9941 7.44911C81.8744 7.64234 81.7893 7.855 81.7428 8.07751C81.6899 8.31895 81.6636 8.56547 81.6645 8.81264C81.6657 9.05212 81.6936 9.29072 81.7475 9.52404C81.799 9.75106 81.8905 9.96708 82.0179 10.1619C82.139 10.348 82.3013 10.5037 82.4921 10.6172C82.6966 10.7376 82.9309 10.7976 83.168 10.7903C83.4119 10.7992 83.6536 10.7418 83.8675 10.6243C84.0524 10.5153 84.2066 10.3611 84.3157 10.1762C84.4308 9.97788 84.511 9.76131 84.5528 9.5359C84.6008 9.29141 84.6246 9.0428 84.624 8.79366C84.622 8.549 84.5958 8.30514 84.5457 8.06566H84.5433Z" fill="white"/>
<path d="M94.1806 12.3692H92.376V11.7052C92.0836 12.01 91.7178 12.2346 91.3137 12.3574C90.9085 12.4804 90.4874 12.5427 90.064 12.5423C89.7547 12.5446 89.4467 12.5039 89.1486 12.4214C88.8782 12.3492 88.625 12.2234 88.404 12.0515C88.191 11.8802 88.0205 11.6618 87.906 11.4136C87.7808 11.1242 87.7201 10.8111 87.7282 10.4959C87.7158 10.1628 87.7867 9.83186 87.9345 9.53309C88.0786 9.27344 88.2617 9.0375 88.4775 8.83354C88.7016 8.61319 88.9507 8.41979 89.2198 8.2573C89.4882 8.12805 89.7718 8.03324 90.064 7.97511C90.3382 7.90793 90.6188 7.87056 90.9011 7.86366C91.219 7.8526 91.5372 7.87726 91.8496 7.93717C91.9469 7.96356 92.0427 7.99522 92.1365 8.03202C92.1365 8.03202 92.1365 7.72849 92.1365 7.53404C92.1231 7.36904 92.0667 7.21044 91.9729 7.07399C91.924 6.98539 91.8529 6.91103 91.7666 6.85821C91.6749 6.80631 91.5744 6.77174 91.4702 6.75623C91.35 6.73945 91.2287 6.73153 91.1074 6.73253C90.8682 6.71819 90.6309 6.7823 90.4315 6.91512C90.2679 7.03843 90.2489 7.07874 90.0901 7.37516H88.193C88.2214 6.93409 88.193 6.66375 88.3922 6.3697C88.5494 6.12668 88.7711 5.93212 89.0324 5.80769C89.3471 5.6253 89.6902 5.49705 90.0474 5.42828C90.4213 5.35274 90.8018 5.31461 91.1833 5.31445C91.5347 5.31566 91.8856 5.34022 92.2338 5.38796C92.5694 5.43209 92.8959 5.52893 93.2013 5.6749C93.4829 5.81102 93.727 6.01369 93.9127 6.26537C94.1103 6.56134 94.2076 6.91299 94.1901 7.26845V12.3669L94.1806 12.3692ZM91.9397 9.38606C91.8802 9.32387 91.8019 9.28303 91.7168 9.26987C91.6432 9.25263 91.5688 9.23918 91.4939 9.22956C91.3761 9.21306 91.2571 9.20671 91.1382 9.21059C91.0136 9.21418 90.8894 9.22447 90.7659 9.24141C90.6497 9.24547 90.5343 9.26297 90.4221 9.29358C90.3157 9.32564 90.2155 9.37534 90.1256 9.44061C90.0406 9.50319 89.9708 9.58427 89.9217 9.67774C89.8675 9.7908 89.8415 9.91527 89.8458 10.0406C89.8424 10.162 89.8684 10.2824 89.9217 10.3915C89.9705 10.4828 90.0425 10.5597 90.1304 10.6144C90.2241 10.6721 90.3279 10.7115 90.4363 10.7306C90.556 10.7525 90.6774 10.7636 90.7991 10.7638C91.0458 10.7772 91.2915 10.7239 91.5105 10.6097C91.6643 10.5215 91.7926 10.3948 91.8828 10.2421C91.9694 10.1217 92.027 9.98296 92.0512 9.83663C92.058 9.73909 92.0525 9.64108 92.0346 9.54495C92.0234 9.48218 91.9897 9.42565 91.9397 9.38606Z" fill="white"/>
<path d="M106.806 12.3687H105.001V11.7047C104.708 12.009 104.343 12.2334 103.939 12.3568C103.534 12.4798 103.112 12.5422 102.689 12.5418C102.38 12.5443 102.072 12.5036 101.774 12.4208C101.503 12.3492 101.25 12.2233 101.029 12.0509C100.816 11.8796 100.646 11.6613 100.531 11.413C100.406 11.1237 100.345 10.8105 100.353 10.4953C100.347 10.1652 100.421 9.83855 100.571 9.54439C100.711 9.28596 100.891 9.05078 101.103 8.84721C101.326 8.6257 101.575 8.43219 101.845 8.27098C102.113 8.14172 102.397 8.04691 102.689 7.98878C102.963 7.9216 103.244 7.88423 103.526 7.87733C103.844 7.86641 104.162 7.89107 104.475 7.95084C104.572 7.97723 104.668 8.0089 104.762 8.04569C104.762 8.04569 104.762 7.74216 104.762 7.54771C104.748 7.38271 104.692 7.22411 104.598 7.08767C104.549 6.99906 104.478 6.9247 104.392 6.87188C104.3 6.81998 104.199 6.78541 104.095 6.7699C103.975 6.75312 103.854 6.7452 103.732 6.7462C103.493 6.73186 103.256 6.79597 103.057 6.92879C102.893 7.0521 102.872 7.09241 102.715 7.38883H100.818C100.847 6.94776 100.818 6.67743 101.015 6.38338C101.174 6.14076 101.396 5.94636 101.658 5.82136C101.972 5.63897 102.315 5.51072 102.672 5.44195C103.046 5.36641 103.427 5.32828 103.808 5.32812C104.16 5.32933 104.511 5.35389 104.859 5.40164C105.194 5.44576 105.521 5.5426 105.826 5.68857C106.108 5.8247 106.352 6.02736 106.538 6.27904C106.735 6.57501 106.833 6.92666 106.815 7.28212V12.3805L106.806 12.3687ZM104.565 9.38551C104.505 9.32331 104.427 9.28247 104.342 9.26931C104.268 9.25207 104.194 9.23862 104.119 9.229C104.001 9.21251 103.882 9.20616 103.763 9.21003C103.639 9.21362 103.514 9.22391 103.391 9.24086C103.274 9.24508 103.158 9.26259 103.045 9.29303C102.939 9.32557 102.84 9.37524 102.751 9.44005C102.666 9.50263 102.596 9.58372 102.547 9.67719C102.493 9.79024 102.467 9.91472 102.471 10.04C102.467 10.1614 102.493 10.2818 102.547 10.391C102.596 10.4823 102.668 10.5592 102.755 10.6139C102.849 10.6715 102.953 10.7109 103.061 10.7301C103.181 10.752 103.302 10.7631 103.424 10.7633C103.671 10.7766 103.917 10.7234 104.136 10.6091C104.289 10.5209 104.418 10.3942 104.508 10.2416C104.594 10.1212 104.652 9.9824 104.676 9.83607C104.68 9.74218 104.672 9.6482 104.653 9.55625C104.646 9.49025 104.615 9.4292 104.565 9.38551Z" fill="white"/>
<path d="M99.6516 10.7302V12.3688H98.3118C98.0325 12.3727 97.7538 12.3424 97.4818 12.2787C97.2352 12.2133 97.0018 12.1058 96.7917 11.961C96.599 11.8299 96.4371 11.6583 96.3175 11.4582C96.184 11.272 96.1225 11.0437 96.1444 10.8156V6.76534H94.7666V5.51326H96.1444V3.9292H98.0414V5.51326H99.6611V6.77482H98.0414V10.1753C98.0414 10.4931 98.0841 10.5642 98.2027 10.6496C98.3213 10.735 98.5205 10.7302 98.8382 10.7302H99.6516Z" fill="white"/>
</svg>
