<svg width="81" height="16" viewBox="0 0 81 16" fill="none" xmlns="http://www.w3.org/2000/svg">
<path d="M60.4318 9.31327C60.4318 11.4102 59.1285 12.4085 57.2549 12.4085C55.382 12.4085 54.1605 11.4102 54.1605 9.31327V0.944188C54.1605 0.577712 54.099 0.39407 53.7123 0.271912C53.4065 0.169978 52.8976 0.0890785 52.2253 0.0890785C51.5539 0.0890785 51.0442 0.169978 50.7392 0.271912C50.3525 0.39407 50.291 0.577712 50.291 0.944188V9.43543C50.291 13.6301 52.9178 15.9106 57.2549 15.9106C61.6129 15.9106 64.26 13.6301 64.26 9.43543V0.944188C64.26 0.577712 64.1985 0.39407 63.8118 0.271912C63.5068 0.169978 63.0182 0.0890785 62.3459 0.0890785C61.6736 0.0890785 61.185 0.169978 60.88 0.271912C60.4933 0.39407 60.4318 0.577712 60.4318 0.944188V9.31327Z" fill="#757575"/>
<path d="M41.3111 15.8291C41.9834 15.8291 42.4922 15.7474 42.7972 15.6455C43.1847 15.5233 43.2454 15.3405 43.2454 14.974V3.754H47.2774C47.6641 3.754 47.8065 3.61162 47.9085 3.30582C47.9902 3.0615 48.0719 2.61331 48.0719 2.04378C48.0719 1.47343 47.9902 1.02525 47.9085 0.780933C47.8065 0.475941 47.6641 0.332748 47.2774 0.332748H35.3447C34.958 0.332748 34.8156 0.475941 34.7137 0.780933C34.632 1.02525 34.5503 1.47343 34.5503 2.04378C34.5503 2.61331 34.632 3.0615 34.7137 3.30582C34.8156 3.61162 34.958 3.754 35.3447 3.754H39.3768V14.974C39.3768 15.3405 39.4374 15.5233 39.825 15.6455C40.13 15.7474 40.6388 15.8291 41.3111 15.8291Z" fill="#757575"/>
<path d="M9.13808 12.4085C6.57275 12.4085 4.73956 10.5963 4.73956 7.96952C4.73956 5.34271 6.57275 3.53055 9.13808 3.53055C11.7042 3.53055 13.5366 5.34271 13.5366 7.96952C13.5366 10.5963 11.7042 12.4085 9.13808 12.4085ZM9.13808 0.0275933C4.19025 0.0275933 0.70752 3.38817 0.70752 7.96952C0.70752 12.5509 4.19025 15.9106 9.13808 15.9106C14.0859 15.9106 17.5686 12.5509 17.5686 7.96952C17.5686 3.38817 14.0859 0.0275933 9.13808 0.0275933Z" fill="#757575"/>
<path d="M27.0368 7.82747H24.084V3.63282H27.0368C28.421 3.63282 29.2971 4.34555 29.2971 5.73055C29.2971 7.0743 28.421 7.82747 27.0368 7.82747ZM27.0983 0.333731H20.7242C20.4192 0.333731 20.2153 0.517371 20.2153 0.843397V14.975C20.2153 15.3414 20.276 15.5243 20.6635 15.6464C20.9685 15.7484 21.4782 15.8301 22.1496 15.8301C22.8219 15.8301 23.3308 15.7484 23.6358 15.6464C24.0233 15.5243 24.084 15.3414 24.084 14.975V11.0651H27.1387C31.1093 11.0651 33.2273 8.90668 33.2273 5.73055C33.2273 2.47191 31.1093 0.333731 27.0983 0.333731" fill="#757575"/>
<path d="M66.7645 14.0985C68.7401 15.3201 71.3054 15.9106 73.586 15.9106C77.5776 15.9106 80.4074 13.9359 80.4074 10.657C80.4074 8.15236 78.5953 6.84906 75.2153 6.2593L74.5228 6.13633C71.9364 5.68896 71.2439 5.36293 71.2439 4.65021C71.2439 3.81532 72.201 3.34691 73.8505 3.34691C75.174 3.34691 76.4571 3.63249 77.8008 4.24328C78.1269 4.38566 78.3307 4.40589 78.5751 4.16157C78.982 3.75465 79.5725 2.71589 79.7764 1.98294C79.8783 1.61646 79.7562 1.39237 79.4706 1.24999C77.8421 0.435328 75.8261 0.0275933 73.7898 0.0275933C69.6761 0.0275933 67.1512 1.86078 67.0906 4.89452C67.0291 7.60305 68.8825 8.96702 72.1808 9.47588L72.9752 9.59804C75.4798 9.98555 76.1926 10.2905 76.1926 11.085C76.1926 12.0016 75.2153 12.5711 73.484 12.5711C71.896 12.5711 70.2877 12.042 68.4343 11.0647C68.088 10.8811 67.9254 10.9013 67.6609 11.1667C67.2532 11.5736 66.6828 12.6326 66.479 13.3655C66.3778 13.732 66.5 13.9359 66.7645 14.0985Z" fill="#757575"/>
<path d="M60.4318 9.31327C60.4318 11.4102 59.1285 12.4085 57.2549 12.4085C55.382 12.4085 54.1605 11.4102 54.1605 9.31327V0.944188C54.1605 0.577712 54.099 0.39407 53.7123 0.271912C53.4065 0.169978 52.8976 0.0890785 52.2253 0.0890785C51.5539 0.0890785 51.0442 0.169978 50.7392 0.271912C50.3525 0.39407 50.291 0.577712 50.291 0.944188V9.43543C50.291 13.6301 52.9178 15.9106 57.2549 15.9106C61.6129 15.9106 64.26 13.6301 64.26 9.43543V0.944188C64.26 0.577712 64.1985 0.39407 63.8118 0.271912C63.5068 0.169978 63.0182 0.0890785 62.3459 0.0890785C61.6736 0.0890785 61.185 0.169978 60.88 0.271912C60.4933 0.39407 60.4318 0.577712 60.4318 0.944188V9.31327Z" fill="#757575"/>
<path d="M41.3111 15.8291C41.9834 15.8291 42.4922 15.7474 42.7972 15.6455C43.1847 15.5233 43.2454 15.3405 43.2454 14.974V3.754H47.2774C47.6641 3.754 47.8065 3.61162 47.9085 3.30582C47.9902 3.0615 48.0719 2.61331 48.0719 2.04378C48.0719 1.47343 47.9902 1.02525 47.9085 0.780933C47.8065 0.475941 47.6641 0.332748 47.2774 0.332748H35.3447C34.958 0.332748 34.8156 0.475941 34.7137 0.780933C34.632 1.02525 34.5503 1.47343 34.5503 2.04378C34.5503 2.61331 34.632 3.0615 34.7137 3.30582C34.8156 3.61162 34.958 3.754 35.3447 3.754H39.3768V14.974C39.3768 15.3405 39.4374 15.5233 39.825 15.6455C40.13 15.7474 40.6388 15.8291 41.3111 15.8291Z" fill="#757575"/>
<path d="M9.13808 12.4085C6.57275 12.4085 4.73956 10.5963 4.73956 7.96952C4.73956 5.34271 6.57275 3.53055 9.13808 3.53055C11.7042 3.53055 13.5366 5.34271 13.5366 7.96952C13.5366 10.5963 11.7042 12.4085 9.13808 12.4085ZM9.13808 0.0275933C4.19025 0.0275933 0.70752 3.38817 0.70752 7.96952C0.70752 12.5509 4.19025 15.9106 9.13808 15.9106C14.0859 15.9106 17.5686 12.5509 17.5686 7.96952C17.5686 3.38817 14.0859 0.0275933 9.13808 0.0275933Z" fill="#757575"/>
<path d="M27.0368 7.82747H24.084V3.63282H27.0368C28.421 3.63282 29.2971 4.34555 29.2971 5.73055C29.2971 7.0743 28.421 7.82747 27.0368 7.82747ZM27.0983 0.333731H20.7242C20.4192 0.333731 20.2153 0.517371 20.2153 0.843397V14.975C20.2153 15.3414 20.276 15.5243 20.6635 15.6464C20.9685 15.7484 21.4782 15.8301 22.1496 15.8301C22.8219 15.8301 23.3308 15.7484 23.6358 15.6464C24.0233 15.5243 24.084 15.3414 24.084 14.975V11.0651H27.1387C31.1093 11.0651 33.2273 8.90668 33.2273 5.73055C33.2273 2.47191 31.1093 0.333731 27.0983 0.333731" fill="#757575"/>
<path d="M66.7645 14.0985C68.7401 15.3201 71.3054 15.9106 73.586 15.9106C77.5776 15.9106 80.4074 13.9359 80.4074 10.657C80.4074 8.15236 78.5953 6.84906 75.2153 6.2593L74.5228 6.13633C71.9364 5.68896 71.2439 5.36293 71.2439 4.65021C71.2439 3.81532 72.201 3.34691 73.8505 3.34691C75.174 3.34691 76.4571 3.63249 77.8008 4.24328C78.1269 4.38566 78.3307 4.40589 78.5751 4.16157C78.982 3.75465 79.5725 2.71589 79.7764 1.98294C79.8783 1.61646 79.7562 1.39237 79.4706 1.24999C77.8421 0.435328 75.8261 0.0275933 73.7898 0.0275933C69.6761 0.0275933 67.1512 1.86078 67.0906 4.89452C67.0291 7.60305 68.8825 8.96702 72.1808 9.47588L72.9752 9.59804C75.4798 9.98555 76.1926 10.2905 76.1926 11.085C76.1926 12.0016 75.2153 12.5711 73.484 12.5711C71.896 12.5711 70.2877 12.042 68.4343 11.0647C68.088 10.8811 67.9254 10.9013 67.6609 11.1667C67.2532 11.5736 66.6828 12.6326 66.479 13.3655C66.3778 13.732 66.5 13.9359 66.7645 14.0985Z" fill="#757575"/>
</svg>
