<svg width="81" height="16" viewBox="0 0 81 16" fill="none" xmlns="http://www.w3.org/2000/svg">
<path d="M60.4318 9.3411C60.4318 11.438 59.1285 12.4363 57.2549 12.4363C55.382 12.4363 54.1605 11.438 54.1605 9.3411V0.97202C54.1605 0.605544 54.099 0.421902 53.7123 0.299744C53.4065 0.19781 52.8976 0.116911 52.2253 0.116911C51.5539 0.116911 51.0442 0.19781 50.7392 0.299744C50.3525 0.421902 50.291 0.605544 50.291 0.97202V9.46326C50.291 13.6579 52.9178 15.9385 57.2549 15.9385C61.6129 15.9385 64.26 13.6579 64.26 9.46326V0.97202C64.26 0.605544 64.1985 0.421902 63.8118 0.299744C63.5068 0.19781 63.0182 0.116911 62.3459 0.116911C61.6736 0.116911 61.185 0.19781 60.88 0.299744C60.4933 0.421902 60.4318 0.605544 60.4318 0.97202V9.3411Z" fill="#8A8A8A"/>
<path d="M41.3111 15.8569C41.9834 15.8569 42.4922 15.7752 42.7972 15.6733C43.1847 15.5511 43.2454 15.3683 43.2454 15.0018V3.78183H47.2774C47.6641 3.78183 47.8065 3.63945 47.9085 3.33365C47.9902 3.08933 48.0719 2.64114 48.0719 2.07161C48.0719 1.50127 47.9902 1.05308 47.9085 0.808765C47.8065 0.503773 47.6641 0.36058 47.2774 0.36058H35.3447C34.958 0.36058 34.8156 0.503773 34.7137 0.808765C34.632 1.05308 34.5503 1.50127 34.5503 2.07161C34.5503 2.64114 34.632 3.08933 34.7137 3.33365C34.8156 3.63945 34.958 3.78183 35.3447 3.78183H39.3768V15.0018C39.3768 15.3683 39.4374 15.5511 39.825 15.6733C40.13 15.7752 40.6388 15.8569 41.3111 15.8569Z" fill="#8A8A8A"/>
<path d="M9.13808 12.4363C6.57275 12.4363 4.73956 10.6242 4.73956 7.99736C4.73956 5.37054 6.57275 3.55839 9.13808 3.55839C11.7042 3.55839 13.5366 5.37054 13.5366 7.99736C13.5366 10.6242 11.7042 12.4363 9.13808 12.4363ZM9.13808 0.0554254C4.19025 0.0554254 0.70752 3.416 0.70752 7.99736C0.70752 12.5787 4.19025 15.9385 9.13808 15.9385C14.0859 15.9385 17.5686 12.5787 17.5686 7.99736C17.5686 3.416 14.0859 0.0554254 9.13808 0.0554254Z" fill="#8A8A8A"/>
<path d="M27.0368 7.85531H24.084V3.66065H27.0368C28.421 3.66065 29.2971 4.37338 29.2971 5.75839C29.2971 7.10213 28.421 7.85531 27.0368 7.85531ZM27.0983 0.361564H20.7242C20.4192 0.361564 20.2153 0.545204 20.2153 0.87123V15.0028C20.2153 15.3693 20.276 15.5521 20.6635 15.6743C20.9685 15.7762 21.4782 15.8579 22.1496 15.8579C22.8219 15.8579 23.3308 15.7762 23.6358 15.6743C24.0233 15.5521 24.084 15.3693 24.084 15.0028V11.0929H27.1387C31.1093 11.0929 33.2273 8.93451 33.2273 5.75839C33.2273 2.49974 31.1093 0.361564 27.0983 0.361564" fill="#8A8A8A"/>
<path d="M66.7645 14.1263C68.7401 15.3479 71.3054 15.9385 73.586 15.9385C77.5776 15.9385 80.4074 13.9637 80.4074 10.6848C80.4074 8.18019 78.5953 6.87689 75.2153 6.28713L74.5228 6.16417C71.9364 5.71679 71.2439 5.39076 71.2439 4.67804C71.2439 3.84315 72.201 3.37474 73.8505 3.37474C75.174 3.37474 76.4571 3.66032 77.8008 4.27111C78.1269 4.4135 78.3307 4.43372 78.5751 4.1894C78.982 3.78248 79.5725 2.74372 79.7764 2.01077C79.8783 1.6443 79.7562 1.4202 79.4706 1.27782C77.8421 0.46316 75.8261 0.0554254 73.7898 0.0554254C69.6761 0.0554254 67.1512 1.88861 67.0906 4.92236C67.0291 7.63088 68.8825 8.99485 72.1808 9.50371L72.9752 9.62587C75.4798 10.0134 76.1926 10.3184 76.1926 11.1128C76.1926 12.0294 75.2153 12.5989 73.484 12.5989C71.896 12.5989 70.2877 12.0698 68.4343 11.0926C68.088 10.9089 67.9254 10.9292 67.6609 11.1945C67.2532 11.6014 66.6828 12.6604 66.479 13.3934C66.3778 13.7598 66.5 13.9637 66.7645 14.1263Z" fill="#8A8A8A"/>
<path d="M60.4318 9.3411C60.4318 11.438 59.1285 12.4363 57.2549 12.4363C55.382 12.4363 54.1605 11.438 54.1605 9.3411V0.97202C54.1605 0.605544 54.099 0.421902 53.7123 0.299744C53.4065 0.19781 52.8976 0.116911 52.2253 0.116911C51.5539 0.116911 51.0442 0.19781 50.7392 0.299744C50.3525 0.421902 50.291 0.605544 50.291 0.97202V9.46326C50.291 13.6579 52.9178 15.9385 57.2549 15.9385C61.6129 15.9385 64.26 13.6579 64.26 9.46326V0.97202C64.26 0.605544 64.1985 0.421902 63.8118 0.299744C63.5068 0.19781 63.0182 0.116911 62.3459 0.116911C61.6736 0.116911 61.185 0.19781 60.88 0.299744C60.4933 0.421902 60.4318 0.605544 60.4318 0.97202V9.3411Z" fill="#8A8A8A"/>
<path d="M41.3111 15.8569C41.9834 15.8569 42.4922 15.7752 42.7972 15.6733C43.1847 15.5511 43.2454 15.3683 43.2454 15.0018V3.78183H47.2774C47.6641 3.78183 47.8065 3.63945 47.9085 3.33365C47.9902 3.08933 48.0719 2.64114 48.0719 2.07161C48.0719 1.50127 47.9902 1.05308 47.9085 0.808765C47.8065 0.503773 47.6641 0.36058 47.2774 0.36058H35.3447C34.958 0.36058 34.8156 0.503773 34.7137 0.808765C34.632 1.05308 34.5503 1.50127 34.5503 2.07161C34.5503 2.64114 34.632 3.08933 34.7137 3.33365C34.8156 3.63945 34.958 3.78183 35.3447 3.78183H39.3768V15.0018C39.3768 15.3683 39.4374 15.5511 39.825 15.6733C40.13 15.7752 40.6388 15.8569 41.3111 15.8569Z" fill="#8A8A8A"/>
<path d="M9.13808 12.4363C6.57275 12.4363 4.73956 10.6242 4.73956 7.99736C4.73956 5.37054 6.57275 3.55839 9.13808 3.55839C11.7042 3.55839 13.5366 5.37054 13.5366 7.99736C13.5366 10.6242 11.7042 12.4363 9.13808 12.4363ZM9.13808 0.0554254C4.19025 0.0554254 0.70752 3.416 0.70752 7.99736C0.70752 12.5787 4.19025 15.9385 9.13808 15.9385C14.0859 15.9385 17.5686 12.5787 17.5686 7.99736C17.5686 3.416 14.0859 0.0554254 9.13808 0.0554254Z" fill="#8A8A8A"/>
<path d="M27.0368 7.85531H24.084V3.66065H27.0368C28.421 3.66065 29.2971 4.37338 29.2971 5.75839C29.2971 7.10213 28.421 7.85531 27.0368 7.85531ZM27.0983 0.361564H20.7242C20.4192 0.361564 20.2153 0.545204 20.2153 0.87123V15.0028C20.2153 15.3693 20.276 15.5521 20.6635 15.6743C20.9685 15.7762 21.4782 15.8579 22.1496 15.8579C22.8219 15.8579 23.3308 15.7762 23.6358 15.6743C24.0233 15.5521 24.084 15.3693 24.084 15.0028V11.0929H27.1387C31.1093 11.0929 33.2273 8.93451 33.2273 5.75839C33.2273 2.49974 31.1093 0.361564 27.0983 0.361564" fill="#8A8A8A"/>
<path d="M66.7645 14.1263C68.7401 15.3479 71.3054 15.9385 73.586 15.9385C77.5776 15.9385 80.4074 13.9637 80.4074 10.6848C80.4074 8.18019 78.5953 6.87689 75.2153 6.28713L74.5228 6.16417C71.9364 5.71679 71.2439 5.39076 71.2439 4.67804C71.2439 3.84315 72.201 3.37474 73.8505 3.37474C75.174 3.37474 76.4571 3.66032 77.8008 4.27111C78.1269 4.4135 78.3307 4.43372 78.5751 4.1894C78.982 3.78248 79.5725 2.74372 79.7764 2.01077C79.8783 1.6443 79.7562 1.4202 79.4706 1.27782C77.8421 0.46316 75.8261 0.0554254 73.7898 0.0554254C69.6761 0.0554254 67.1512 1.88861 67.0906 4.92236C67.0291 7.63088 68.8825 8.99485 72.1808 9.50371L72.9752 9.62587C75.4798 10.0134 76.1926 10.3184 76.1926 11.1128C76.1926 12.0294 75.2153 12.5989 73.484 12.5989C71.896 12.5989 70.2877 12.0698 68.4343 11.0926C68.088 10.9089 67.9254 10.9292 67.6609 11.1945C67.2532 11.6014 66.6828 12.6604 66.479 13.3934C66.3778 13.7598 66.5 13.9637 66.7645 14.1263Z" fill="#8A8A8A"/>
</svg>
