<svg width="24" height="24" viewBox="0 0 24 24" fill="none" xmlns="http://www.w3.org/2000/svg">
<mask id="path-1-inside-1" fill="white">
<path fill-rule="evenodd" clip-rule="evenodd" d="M9.53903 0.976543L5.35717 2.09707C2.85655 2.76711 1.30903 5.21867 1.71426 7.72031C1.74127 7.88709 1.77697 8.05409 1.82164 8.2208L3.56028 14.7095C3.67 15.119 3.82749 15.5029 4.02514 15.8569C4.58935 16.8673 5.48085 17.6337 6.52283 18.054C6.88567 19.858 8.23453 21.3927 10.1324 21.9013L14.3143 23.0218C16.9816 23.7365 19.7233 22.1536 20.438 19.4862L22.1766 12.9975C22.8913 10.3302 21.3084 7.58851 18.6411 6.8738L16.1142 6.19671L15.7771 4.93866L15.6628 4.51208C15.5528 4.10183 15.395 3.71724 15.1968 3.36271C14.187 1.55625 12.1307 0.530416 10.0395 0.869165C9.87274 0.89618 9.70574 0.931874 9.53903 0.976543ZM13.3622 5.5857L13.2479 5.15912C12.8906 3.82546 11.5197 3.034 10.1861 3.39136L6.00422 4.51189C5.83751 4.55655 5.67927 4.61706 5.53069 4.69135C4.49064 5.21137 3.92377 6.40679 4.23645 7.57375L5.9751 14.0625C6.10661 14.5533 6.37536 14.9706 6.72901 15.2843L8.33551 9.28881C8.95213 6.98755 11.0775 5.49348 13.3622 5.5857ZM17.994 9.28861L13.8122 8.16809C12.4785 7.81073 11.1077 8.60219 10.7503 9.93585L9.01167 16.4246C8.65432 17.7582 9.44578 19.1291 10.7794 19.4864L14.9613 20.607C16.295 20.9643 17.6658 20.1729 18.0232 18.8392L19.7618 12.3505C20.1192 11.0168 19.3277 9.64597 17.994 9.28861Z"/>
</mask>
<path d="M5.35717 2.09707L6.00422 4.51189L6.00422 4.51188L5.35717 2.09707ZM9.53903 0.976543L8.89199 -1.43827L8.89199 -1.43827L9.53903 0.976543ZM1.71426 7.72031L4.18209 7.32056V7.32056L1.71426 7.72031ZM1.82164 8.2208L4.23645 7.57375L4.23645 7.57375L1.82164 8.2208ZM3.56028 14.7095L1.14547 15.3566L1.14547 15.3566L3.56028 14.7095ZM4.02514 15.8569L1.84237 17.0757L1.84237 17.0757L4.02514 15.8569ZM6.52283 18.054L8.97374 17.5611L8.70798 16.2398L7.45808 15.7356L6.52283 18.054ZM10.1324 21.9013L9.48534 24.3161H9.48535L10.1324 21.9013ZM14.3143 23.0218L14.9613 20.607H14.9613L14.3143 23.0218ZM20.438 19.4862L18.0232 18.8392L20.438 19.4862ZM22.1766 12.9975L19.7618 12.3505V12.3505L22.1766 12.9975ZM18.6411 6.8738L17.994 9.28861L17.994 9.28862L18.6411 6.8738ZM16.1142 6.19671L13.6993 6.84376L14.0729 8.23795L15.4671 8.61152L16.1142 6.19671ZM15.7771 4.93866L13.3622 5.5857L13.3622 5.5857L15.7771 4.93866ZM15.6628 4.51208L18.0776 3.86503V3.86503L15.6628 4.51208ZM15.1968 3.36271L13.0146 4.58255L13.0146 4.58255L15.1968 3.36271ZM10.0395 0.869165L9.63976 -1.59867L9.63976 -1.59867L10.0395 0.869165ZM13.3622 5.5857L13.2614 8.08367L16.6565 8.22071L15.7771 4.93866L13.3622 5.5857ZM13.2479 5.15912L15.6628 4.51208V4.51208L13.2479 5.15912ZM10.1861 3.39136L10.8331 5.80617V5.80617L10.1861 3.39136ZM6.00422 4.51189L6.65126 6.9267L6.65127 6.9267L6.00422 4.51189ZM5.53069 4.69135L4.41267 2.45527L5.53069 4.69135ZM4.23645 7.57375L1.82164 8.2208H1.82164L4.23645 7.57375ZM5.9751 14.0625L3.56028 14.7095H3.56028L5.9751 14.0625ZM6.72901 15.2843L5.07003 17.1546L8.09669 19.8393L9.14383 15.9314L6.72901 15.2843ZM8.33551 9.28881L5.92069 8.64176L8.33551 9.28881ZM13.8122 8.16809L14.4592 5.75327V5.75327L13.8122 8.16809ZM17.994 9.28861L18.6411 6.8738H18.6411L17.994 9.28861ZM10.7503 9.93585L8.33551 9.28881L10.7503 9.93585ZM9.01167 16.4246L11.4265 17.0716L9.01167 16.4246ZM10.7794 19.4864L11.4265 17.0716L11.4265 17.0716L10.7794 19.4864ZM14.9613 20.607L14.3143 23.0218H14.3143L14.9613 20.607ZM18.0232 18.8392L15.6084 18.1922L18.0232 18.8392ZM19.7618 12.3505L17.347 11.7034H17.347L19.7618 12.3505ZM6.00422 4.51188L10.1861 3.39136L8.89199 -1.43827L4.71012 -0.317744L6.00422 4.51188ZM4.18209 7.32056C3.9799 6.07239 4.7554 4.84651 6.00422 4.51189L4.71012 -0.317744C0.957699 0.687714 -1.36185 4.36496 -0.753575 8.12007L4.18209 7.32056ZM4.23645 7.57375C4.21365 7.48866 4.19564 7.4042 4.18209 7.32056L-0.753575 8.12007C-0.713094 8.36997 -0.659718 8.61951 -0.593178 8.86784L4.23645 7.57375ZM5.9751 14.0625L4.23645 7.57375L-0.593179 8.86784L1.14547 15.3566L5.9751 14.0625ZM6.2079 14.638C6.11009 14.4629 6.03094 14.2709 5.9751 14.0625L1.14547 15.3566C1.30906 15.9671 1.54488 16.5429 1.84237 17.0757L6.2079 14.638ZM7.45808 15.7356C6.93214 15.5234 6.48713 15.1381 6.2079 14.638L1.84237 17.0757C2.69157 18.5965 4.02957 19.744 5.58757 20.3725L7.45808 15.7356ZM10.7794 19.4864C9.83406 19.2331 9.1565 18.4697 8.97374 17.5611L4.07191 18.547C4.61485 21.2463 6.63501 23.5523 9.48534 24.3161L10.7794 19.4864ZM14.9613 20.607L10.7794 19.4864L9.48535 24.3161L13.6672 25.4366L14.9613 20.607ZM18.0232 18.8392C17.6658 20.1729 16.295 20.9643 14.9613 20.607L13.6672 25.4366C17.6682 26.5087 21.7807 24.1343 22.8528 20.1333L18.0232 18.8392ZM19.7618 12.3505L18.0232 18.8392L22.8528 20.1333L24.5914 13.6446L19.7618 12.3505ZM17.994 9.28862C19.3277 9.64597 20.1192 11.0168 19.7618 12.3505L24.5914 13.6446C25.6635 9.64358 23.2891 5.53105 19.2881 4.45899L17.994 9.28862ZM15.4671 8.61152L17.994 9.28861L19.2881 4.45899L16.7612 3.78189L15.4671 8.61152ZM13.3622 5.5857L13.6993 6.84376L18.529 5.54966L18.1919 4.29161L13.3622 5.5857ZM13.2479 5.15912L13.3622 5.5857L18.1919 4.29161L18.0776 3.86503L13.2479 5.15912ZM13.0146 4.58255C13.1126 4.75798 13.192 4.95032 13.2479 5.15912L18.0776 3.86503C17.9137 3.25334 17.6773 2.67649 17.379 2.14286L13.0146 4.58255ZM10.4393 3.337C11.4784 3.16868 12.5103 3.68036 13.0146 4.58255L17.379 2.14287C15.8637 -0.567865 12.7831 -2.10784 9.63976 -1.59867L10.4393 3.337ZM10.1861 3.39136C10.2712 3.36856 10.3556 3.35055 10.4393 3.337L9.63976 -1.59867C9.38985 -1.55819 9.14032 -1.50481 8.89199 -1.43827L10.1861 3.39136ZM15.7771 4.93866L15.6628 4.51208L10.8331 5.80617L10.9474 6.23275L15.7771 4.93866ZM15.6628 4.51208C14.9481 1.84475 12.2064 0.261834 9.53903 0.976544L10.8331 5.80617H10.8331L15.6628 4.51208ZM9.53903 0.976544L5.35717 2.09707L6.65127 6.9267L10.8331 5.80617L9.53903 0.976544ZM5.35717 2.09707C5.02693 2.18556 4.71096 2.30613 4.41267 2.45527L6.64872 6.92742C6.64758 6.92799 6.64809 6.92755 6.65126 6.9267L5.35717 2.09707ZM4.41267 2.45527C2.33164 3.49578 1.19551 5.88406 1.82164 8.2208L6.65127 6.9267C6.6505 6.92385 6.65053 6.92302 6.6506 6.92384C6.65066 6.92457 6.65067 6.92567 6.65057 6.92687C6.65036 6.92919 6.64994 6.92945 6.65062 6.92795C6.65094 6.92724 6.65137 6.92648 6.65184 6.92578C6.65206 6.92545 6.65226 6.92519 6.65241 6.925C6.65256 6.92482 6.65265 6.92473 6.65264 6.92473C6.65242 6.92497 6.65092 6.92632 6.64872 6.92742L4.41267 2.45527ZM1.82164 8.2208L3.56028 14.7095L8.38991 13.4154L6.65127 6.9267L1.82164 8.2208ZM3.56028 14.7095C3.82236 15.6876 4.36137 16.5259 5.07003 17.1546L8.388 13.4141C8.38775 13.4139 8.38864 13.4146 8.38982 13.4165C8.39038 13.4174 8.39072 13.4181 8.39084 13.4184C8.39098 13.4187 8.39057 13.4179 8.38991 13.4154L3.56028 14.7095ZM9.14383 15.9314L10.7503 9.93585L5.92069 8.64176L4.3142 14.6373L9.14383 15.9314ZM10.7503 9.93585C11.0578 8.78826 12.1195 8.03757 13.2614 8.08367L13.4631 3.08774C10.0356 2.94938 6.84644 5.18684 5.92069 8.64176L10.7503 9.93585ZM13.1651 10.5829L17.347 11.7034L18.6411 6.8738L14.4592 5.75327L13.1651 10.5829ZM13.1651 10.5829H13.1651L14.4592 5.75327C11.7919 5.03856 9.05022 6.62148 8.33551 9.28881L13.1651 10.5829ZM11.4265 17.0716L13.1651 10.5829L8.33551 9.28881L6.59686 15.7775L11.4265 17.0716ZM11.4265 17.0716L11.4265 17.0716L6.59686 15.7775C5.88215 18.4449 7.46506 21.1865 10.1324 21.9013L11.4265 17.0716ZM15.6084 18.1922L11.4265 17.0716L10.1324 21.9013L14.3143 23.0218L15.6084 18.1922ZM15.6084 18.1922L15.6083 18.1922L14.3143 23.0218C16.9816 23.7365 19.7233 22.1536 20.438 19.4862L15.6084 18.1922ZM17.347 11.7034L15.6084 18.1922L20.438 19.4862L22.1766 12.9975L17.347 11.7034ZM17.347 11.7034L17.347 11.7034L22.1766 12.9975C22.8913 10.3302 21.3084 7.58851 18.6411 6.8738L17.347 11.7034Z" fill="black" mask="url(#path-1-inside-1)"/>
</svg>
