<svg width="24" height="24" viewBox="0 0 24 24" fill="none" xmlns="http://www.w3.org/2000/svg">
<path fill-rule="evenodd" clip-rule="evenodd" d="M11.4042 19.4368L11.4371 19.4443C11.5976 19.4808 11.7788 19.5013 11.9827 19.4999L12 19.4998L12.0173 19.4999C12.2212 19.5013 12.4024 19.4808 12.5629 19.4443L12.5958 19.4368L12.6289 19.4302C14.4294 19.0718 16.9121 17.3069 18.7221 14.1499C20.0157 11.8934 20.5572 9.61875 20.4952 7.83682C20.4317 6.01022 19.7863 5.10455 19.1894 4.75747C18.3311 4.25843 16.2578 4.34021 13.7417 6.78372L12 8.47524L10.2583 6.78372C7.74224 4.34021 5.66894 4.25843 4.81063 4.75747C4.21367 5.10455 3.56827 6.01022 3.50476 7.83682C3.4428 9.61875 3.98425 11.8934 5.27794 14.1499C7.08792 17.3069 9.57063 19.0718 11.3711 19.4302L11.4042 19.4368ZM12 4.99029C9.22311 2.29345 5.90775 1.22773 3.55405 2.59622C0.330777 4.47029 0.131565 10.1997 3.1091 15.3933C5.15089 18.9547 8.1563 21.3393 10.883 21.8821C11.2431 21.9639 11.6168 22.0025 12 21.9999C12.3832 22.0025 12.7569 21.9639 13.117 21.8821C15.8437 21.3393 18.8491 18.9547 20.8909 15.3933C23.8684 10.1997 23.6692 4.47029 20.4459 2.59622C18.0922 1.22773 14.7769 2.29345 12 4.99029Z" fill="black"/>
</svg>
