<svg width="22" height="20" viewBox="0 0 22 20" fill="none" xmlns="http://www.w3.org/2000/svg">
<mask id="path-1-inside-1" fill="white">
<path fill-rule="evenodd" clip-rule="evenodd" d="M9.88299 19.8821C7.1563 19.3393 4.15089 16.9547 2.1091 13.3933C-0.868435 8.19973 -0.669223 2.47029 2.55405 0.596219C4.90775 -0.772266 8.22311 0.293448 11 2.99029C13.7769 0.293448 17.0922 -0.772266 19.4459 0.596219C22.6692 2.47029 22.8684 8.19973 19.8909 13.3933C17.8491 16.9547 14.8437 19.3393 12.117 19.8821C11.7569 19.9639 11.3832 20.0025 11 19.9999C10.6168 20.0025 10.2431 19.9639 9.88299 19.8821Z"/>
</mask>
<path d="M9.88299 19.8821L10.4371 17.4443L10.4042 17.4368L10.3711 17.4302L9.88299 19.8821ZM2.1091 13.3933L-0.0597514 14.6367H-0.0597512L2.1091 13.3933ZM2.55405 0.596219L1.29746 -1.56503L2.55405 0.596219ZM11 2.99029L9.25827 4.78372L11 6.47524L12.7417 4.78372L11 2.99029ZM19.4459 0.596219L18.1894 2.75747L19.4459 0.596219ZM19.8909 13.3933L17.7221 12.1499V12.1499L19.8909 13.3933ZM12.117 19.8821L11.6289 17.4302L11.5958 17.4368L11.5629 17.4443L12.117 19.8821ZM11 19.9999L11.0173 17.4999L11 17.4998L10.9827 17.4999L11 19.9999ZM10.3711 17.4302C8.57063 17.0718 6.08792 15.3069 4.27794 12.1499L-0.0597512 14.6367C2.21386 18.6025 5.74196 21.6068 9.39492 22.334L10.3711 17.4302ZM4.27794 12.1499C2.98425 9.89335 2.4428 7.61875 2.50476 5.83682C2.56827 4.01022 3.21367 3.10455 3.81063 2.75747L1.29746 -1.56503C-1.32885 -0.0380447 -2.39469 2.85804 -2.49222 5.66307C-2.5913 8.51277 -1.74359 11.6997 -0.0597514 14.6367L4.27794 12.1499ZM3.81063 2.75747C4.66894 2.25843 6.74224 2.34021 9.25827 4.78372L12.7417 1.19687C9.70399 -1.75332 5.14656 -3.80296 1.29746 -1.56503L3.81063 2.75747ZM20.7025 -1.56503C16.8534 -3.80296 12.296 -1.75332 9.25827 1.19687L12.7417 4.78372C15.2578 2.34021 17.3311 2.25843 18.1894 2.75747L20.7025 -1.56503ZM22.0597 14.6367C23.7436 11.6997 24.5913 8.51277 24.4922 5.66307C24.3947 2.85804 23.3288 -0.0380448 20.7025 -1.56503L18.1894 2.75747C18.7863 3.10455 19.4317 4.01022 19.4952 5.83682C19.5572 7.61875 19.0157 9.89335 17.7221 12.1499L22.0597 14.6367ZM12.6051 22.334C16.258 21.6068 19.7861 18.6025 22.0597 14.6367L17.7221 12.1499C15.9121 15.3069 13.4294 17.0718 11.6289 17.4302L12.6051 22.334ZM11.5629 17.4443C11.4024 17.4808 11.2212 17.5013 11.0173 17.4999L10.9827 22.4998C11.5453 22.5037 12.1114 22.4471 12.6711 22.3199L11.5629 17.4443ZM9.32887 22.3199C9.88863 22.4471 10.4547 22.5037 11.0173 22.4998L10.9827 17.4999C10.7788 17.5013 10.5976 17.4808 10.4371 17.4443L9.32887 22.3199Z" fill="black" mask="url(#path-1-inside-1)"/>
</svg>
